<?xml version="1.0" standalone="no"?>
<!DOCTYPE svg PUBLIC "-//W3C//DTD SVG 1.1//EN" "http://www.w3.org/Graphics/SVG/1.1/DTD/svg11.dtd" >
<svg xmlns="http://www.w3.org/2000/svg" xmlns:xlink="http://www.w3.org/1999/xlink" version="1.1">
<metadata>
Created by FontForge 20170924 at Tue Sep 24 02:19:00 2019
 By www-data
Copyright 1990-2003 Bitstream Inc. All rights reserved.
</metadata>
<defs>
<font id="Humanist521BT-Roman" horiz-adv-x="2040" >
  <font-face 
    font-family="Humanst521 BT"
    font-weight="400"
    font-stretch="normal"
    units-per-em="2048"
    panose-1="2 11 6 2 2 2 4 2 2 4"
    ascent="1556"
    descent="-492"
    x-height="924"
    cap-height="1399"
    bbox="-1100 -573 2841 1960"
    underline-thickness="123"
    underline-position="-292"
    unicode-range="U+0020-FB04"
  />
<missing-glyph horiz-adv-x="1229" 
d="M102 -362v1806h1024v-1806h-1024zM217 -248h795v1577h-795v-1577z" />
    <glyph glyph-name=".notdef" horiz-adv-x="1229" 
d="M102 -362v1806h1024v-1806h-1024zM217 -248h795v1577h-795v-1577z" />
    <glyph glyph-name="NULL" horiz-adv-x="0" 
 />
    <glyph glyph-name="nonmarkingreturn" horiz-adv-x="516" 
 />
    <glyph glyph-name="space" unicode=" " horiz-adv-x="516" 
 />
    <glyph glyph-name="exclam" unicode="!" horiz-adv-x="516" 
d="M131 109q0 54 36 90.5t89 36.5t90 -37t37 -90q0 -54 -36.5 -90.5t-90.5 -36.5q-53 0 -89 36t-36 91zM242 434q-43 106 -73 311.5t-30 425.5q0 131 27.5 190.5t87.5 59.5t88.5 -57t28.5 -180q0 -196 -27 -390.5t-76 -359.5h-26z" />
    <glyph glyph-name="quotedbl" unicode="&#x22;" horiz-adv-x="614" 
d="M524 1436v-555h-139v555h139zM229 1436v-555h-139v555h139z" />
    <glyph glyph-name="numbersign" unicode="#" horiz-adv-x="1575" 
d="M969 858h-260l-93 -264h261zM924 1458l-162 -454h256l164 454h164l-160 -454h301l-51 -146h-303l-93 -262h322l-51 -147h-322l-162 -453h-165l161 453h-258l-162 -453h-165l159 453h-309l53 147h310l92 262h-330l51 146h332l162 454h166z" />
    <glyph glyph-name="dollar" unicode="$" horiz-adv-x="1034" 
d="M457 842l-1 360q-95 -1 -150.5 -47.5t-55.5 -124.5q0 -67 51.5 -113.5t155.5 -74.5zM584 205q93 6 143.5 51t50.5 121q0 73 -50 126.5t-144 82.5v-381zM47 154v262q112 -99 214.5 -151t195.5 -58v428q-200 50 -301 146t-101 235q0 150 109.5 252t292.5 118v152h127v-149
q90 -7 172 -37t157 -84v-221q-95 74 -178 113t-151 42v-397q198 -61 299.5 -165t101.5 -245q0 -166 -102 -265t-299 -124v-225h-127v223h-15q-90 0 -185.5 36t-209.5 114z" />
    <glyph glyph-name="percent" unicode="%" horiz-adv-x="1964" 
d="M1253 391q0 -98 68.5 -165.5t167.5 -67.5q97 0 165 67.5t68 165.5t-68 167t-165 69q-98 0 -167 -69t-69 -167zM1071 391q0 175 121.5 296.5t296.5 121.5q174 0 295 -121.5t121 -296.5q0 -173 -121.5 -294.5t-294.5 -121.5q-175 0 -296.5 121t-121.5 295zM426 -25
l944 1448h168l-948 -1448h-164zM240 1006q0 -99 67.5 -167.5t165.5 -68.5q97 0 165.5 68.5t68.5 167.5q0 97 -68.5 165t-165.5 68q-98 0 -165.5 -67.5t-67.5 -165.5zM57 1004q0 175 120.5 296t295.5 121q174 0 296 -121.5t122 -295.5t-122 -295t-296 -121t-295 120.5
t-121 295.5z" />
    <glyph glyph-name="ampersand" unicode="&#x26;" horiz-adv-x="1335" 
d="M770 340l-235 281q-146 -88 -205.5 -152t-59.5 -129q0 -76 52 -122t139 -46q64 0 137 39.5t172 128.5zM588 852q108 72 153 130.5t45 125.5t-48 110.5t-124 43.5q-72 0 -121 -44t-49 -108q0 -50 37.5 -117.5t106.5 -140.5zM1319 0h-260l-168 201q-105 -117 -213.5 -171.5
t-233.5 -54.5q-174 0 -278.5 97t-104.5 256q0 119 81.5 218t271.5 208q-85 84 -124.5 166.5t-39.5 173.5q0 148 99 238.5t261 90.5t261.5 -87t99.5 -226q0 -115 -62.5 -206.5t-201.5 -180.5l204 -238q40 45 77.5 103t74.5 133h209q-38 -105 -96.5 -200.5t-137.5 -182.5z" />
    <glyph glyph-name="quotesingle" unicode="'" horiz-adv-x="317" 
d="M229 1436v-555h-139v555h139z" />
    <glyph glyph-name="parenleft" unicode="(" horiz-adv-x="645" 
d="M498 -463q-199 232 -293 459.5t-94 474.5q0 243 100.5 474t314.5 476h113q-177 -218 -265.5 -458.5t-88.5 -501.5q0 -229 82 -459.5t247 -464.5h-116z" />
    <glyph glyph-name="parenright" unicode=")" horiz-adv-x="645" 
d="M147 -463h-118q166 236 248.5 466t82.5 458q0 261 -88.5 501.5t-265.5 458.5h111q215 -247 316.5 -477.5t101.5 -472.5q0 -247 -94.5 -474.5t-293.5 -459.5z" />
    <glyph glyph-name="asterisk" unicode="*" horiz-adv-x="905" 
d="M692 1352l99 -99l-283 -217l352 47v-139l-352 47l283 -217l-99 -98l-217 282l47 -352h-139l45 352l-215 -282l-98 98l282 217l-352 -47v139l352 -45l-282 215l98 99l215 -283l-45 352h139l-47 -352z" />
    <glyph glyph-name="plus" unicode="+" horiz-adv-x="1706" 
d="M924 1221v-541h528v-139h-528v-541h-142v541h-528v139h528v541h142z" />
    <glyph glyph-name="comma" unicode="," horiz-adv-x="516" 
d="M221 -18q-45 23 -66.5 53t-21.5 69q0 51 33.5 85t81.5 34q60 0 97.5 -52t37.5 -138q0 -107 -62 -185t-178 -116l-2 37q40 34 60 80t20 106v27z" />
    <glyph glyph-name="hyphen" unicode="-" horiz-adv-x="692" 
d="M84 379v166h524v-166h-524z" />
    <glyph glyph-name="period" unicode="." horiz-adv-x="516" 
d="M137 104q0 51 35 86t86 35t86 -35t35 -86q0 -50 -35 -85t-86 -35t-86 35t-35 85z" />
    <glyph glyph-name="slash" unicode="/" horiz-adv-x="578" 
d="M88 -190h-139l483 1611h143z" />
    <glyph glyph-name="zero" unicode="0" horiz-adv-x="1034" 
d="M258 698q0 -256 67 -394t191 -138t191 138t67 394q0 257 -67 396t-191 139q-123 0 -190.5 -139t-67.5 -396zM57 698q0 334 124.5 528.5t334.5 194.5t334.5 -194.5t124.5 -528.5t-124.5 -528.5t-334.5 -194.5t-334.5 194.5t-124.5 528.5z" />
    <glyph glyph-name="one" unicode="1" horiz-adv-x="1034" 
d="M418 0v1399h198v-1399h-198z" />
    <glyph glyph-name="two" unicode="2" horiz-adv-x="1034" 
d="M70 0q105 156 242.5 330t154.5 198q97 140 144.5 251t47.5 198q0 115 -65 184.5t-174 69.5q-76 0 -154 -43t-160 -129v239q87 64 171 94.5t169 30.5q186 0 300 -117t114 -307q0 -157 -94 -335t-336 -461h528v-203h-888z" />
    <glyph glyph-name="three" unicode="3" horiz-adv-x="1034" 
d="M135 57v213q83 -43 158.5 -64.5t142.5 -21.5q107 0 169.5 60t62.5 164q0 106 -74 163.5t-223 67.5v176q130 0 206 59.5t76 161.5q0 91 -70.5 148t-185.5 57q-44 0 -96 -13.5t-139 -49.5v180q71 33 137.5 49t132.5 16q189 0 303.5 -101.5t114.5 -266.5q0 -98 -43 -176
t-125 -131q95 -47 147 -134t52 -200q0 -195 -124.5 -317t-326.5 -122q-72 0 -143.5 20t-151.5 62z" />
    <glyph glyph-name="four" unicode="4" horiz-adv-x="1034" 
d="M610 0v467h-598v84l705 870h86v-788h155v-166h-155v-467h-193zM610 633l6 422l-335 -422h329z" />
    <glyph glyph-name="five" unicode="5" horiz-adv-x="1034" 
d="M96 70v206q78 -47 156.5 -71.5t155.5 -24.5q131 0 209.5 68t78.5 180q0 127 -95 196.5t-269 69.5q-28 0 -63 -5.5t-79 -16.5l25 727h616v-170h-442l-14 -359h31q226 0 359.5 -119t133.5 -319q0 -197 -138 -327t-349 -130q-70 0 -149 24t-167 71z" />
    <glyph glyph-name="six" unicode="6" horiz-adv-x="1034" 
d="M291 541q-5 -26 -7.5 -47t-2.5 -39q0 -131 68 -211t179 -80q101 0 162.5 63.5t61.5 167.5q0 105 -64 171.5t-164 66.5q-68 0 -125.5 -23t-107.5 -69zM326 756q67 32 125 48.5t106 16.5q172 0 284.5 -118t112.5 -297q0 -187 -124.5 -308t-317.5 -121q-197 0 -316.5 136
t-119.5 360q0 278 145.5 519t427.5 429l109 -137q-180 -124 -284.5 -252t-147.5 -276z" />
    <glyph glyph-name="seven" unicode="7" horiz-adv-x="1034" 
d="M209 43l510 1174h-596v182h893l-635 -1434z" />
    <glyph glyph-name="eight" unicode="8" horiz-adv-x="1034" 
d="M262 723q-77 51 -118.5 131.5t-41.5 179.5q0 171 119 280t305 109q175 0 290.5 -110.5t115.5 -276.5q0 -101 -42.5 -184t-117.5 -129q96 -36 150.5 -122t54.5 -202q0 -181 -131 -302.5t-330 -121.5q-200 0 -330.5 121.5t-130.5 304.5q0 116 55 201.5t152 120.5zM745 1030
q0 95 -62.5 153t-164.5 58q-100 0 -162.5 -58t-62.5 -151q0 -98 64.5 -163.5t156.5 -65.5q101 0 166 63.5t65 163.5zM268 397q0 -101 67.5 -167t172.5 -66q114 0 184 65t70 170q0 102 -66.5 163t-177.5 61t-180.5 -63.5t-69.5 -162.5z" />
    <glyph glyph-name="nine" unicode="9" horiz-adv-x="1034" 
d="M735 858l2 7q11 54 11 79q0 132 -68.5 212.5t-179.5 80.5q-101 0 -162.5 -63.5t-61.5 -167.5q0 -105 63.5 -171.5t162.5 -66.5q69 0 126.5 22t106.5 68zM700 643q-67 -33 -124 -49t-105 -16q-173 0 -286 118t-113 297q0 187 124.5 308.5t317.5 121.5q197 0 316.5 -135.5
t119.5 -359.5q0 -279 -145.5 -521t-427.5 -430l-109 138q178 121 285.5 252.5t146.5 275.5z" />
    <glyph glyph-name="colon" unicode=":" horiz-adv-x="516" 
d="M137 102q0 51 35 86t86 35t86 -35t35 -86q0 -50 -35 -85t-86 -35t-86 35t-35 85zM137 825q0 51 35 85t86 34t86 -34t35 -85q0 -50 -35 -85t-86 -35t-86 35t-35 85z" />
    <glyph glyph-name="semicolon" unicode=";" horiz-adv-x="516" 
d="M137 823q0 51 35 86t86 35t87 -35t36 -86q0 -50 -36 -85.5t-87 -35.5t-86 35.5t-35 85.5zM221 -18q-43 22 -63.5 51.5t-20.5 70.5q0 51 31.5 85t79.5 34q60 0 96.5 -52t36.5 -138q0 -108 -61 -185.5t-177 -115.5l-2 37q40 34 60 80t20 106v27z" />
    <glyph glyph-name="less" unicode="&#x3c;" horiz-adv-x="1706" 
d="M1442 1006l-969 -396l969 -393v-154l-1178 484v129l1178 483v-153z" />
    <glyph glyph-name="equal" unicode="=" horiz-adv-x="1706" 
d="M1452 481v-139h-1198v139h1198zM1452 879v-140h-1198v140h1198z" />
    <glyph glyph-name="greater" unicode="&#x3e;" horiz-adv-x="1706" 
d="M1442 676v-129l-1178 -484v154l971 393l-971 396v153z" />
    <glyph glyph-name="question" unicode="?" horiz-adv-x="641" 
d="M410 106q0 -52 -36.5 -88t-88.5 -36q-53 0 -89 36t-36 88t36 87.5t89 35.5q52 0 88.5 -35.5t36.5 -87.5zM88 1368q51 28 104.5 41.5t110.5 13.5q132 0 217.5 -87t85.5 -222q0 -81 -29.5 -154t-105.5 -169q-23 -29 -66 -80q-122 -144 -122 -222q0 -15 3 -31.5t9 -33.5
l-47 -21q-41 43 -61.5 89.5t-20.5 97.5q0 48 17.5 98t60.5 119q13 22 40 62q99 149 99 225q0 59 -36 95t-95 36q-39 0 -87.5 -18t-115.5 -56z" />
    <glyph glyph-name="at" unicode="@" horiz-adv-x="2048" 
d="M1284 854l57 115h132l-146 -576q-4 -16 -6 -31t-2 -28q0 -46 25.5 -70t74.5 -24q48 0 102.5 26.5t106.5 75.5q80 76 125 186.5t45 233.5q0 259 -190.5 420t-499.5 161q-133 0 -246 -28t-211 -86q-191 -114 -296 -299.5t-105 -409.5q0 -177 61.5 -308t192.5 -230
q100 -77 236.5 -118.5t287.5 -41.5q169 0 328.5 49t292.5 141l55 -82q-148 -111 -314.5 -167t-349.5 -56q-190 0 -348 47t-280 140q-154 118 -230 274t-76 354q0 165 52 313t151 269q146 178 351.5 270t455.5 92q163 0 310 -45t253 -127q130 -100 197.5 -231t67.5 -283
q0 -175 -63.5 -315t-184.5 -236q-68 -54 -149.5 -83t-166.5 -29q-99 0 -149.5 39.5t-50.5 117.5v19q-55 -89 -129 -131.5t-172 -42.5q-153 0 -233.5 85t-80.5 247q0 235 138 394t339 159q85 0 145.5 -37.5t96.5 -112.5zM1190 475l59 236q-17 88 -68.5 136t-129.5 48
q-138 0 -232 -130t-94 -319q0 -105 48.5 -162t137.5 -57q97 0 174.5 69t104.5 179z" />
    <glyph glyph-name="A" unicode="A" horiz-adv-x="1276" 
d="M416 592h436l-221 504zM-45 0l606 1399h146l614 -1399h-207l-180 412h-596l-178 -412h-205z" />
    <glyph glyph-name="B" unicode="B" horiz-adv-x="1186" 
d="M348 616v-434h266q146 0 213.5 51.5t67.5 161.5q0 114 -75.5 167.5t-237.5 53.5h-234zM150 0v1399h409q209 0 322.5 -95t113.5 -270q0 -108 -51 -180t-156 -111q153 -36 236.5 -131t83.5 -231q0 -174 -127.5 -277.5t-345.5 -103.5h-485zM348 799h135q153 0 227 55t74 168
q0 103 -58.5 150t-186.5 47h-191v-420z" />
    <glyph glyph-name="C" unicode="C" horiz-adv-x="1421" 
d="M1341 332v-226q-123 -64 -250.5 -97.5t-252.5 -33.5q-120 0 -229 31.5t-206 93.5q-156 102 -242.5 260.5t-86.5 344.5q0 141 57 273.5t162 231.5q112 106 251 158.5t308 52.5q118 0 234 -27t243 -85v-217q-133 72 -250 106.5t-227 34.5q-245 0 -405 -152.5t-160 -382.5
q0 -227 157.5 -379.5t395.5 -152.5q122 0 247 41t254 125z" />
    <glyph glyph-name="D" unicode="D" horiz-adv-x="1518" 
d="M664 1208h-316v-1018h316q259 0 407 136t148 372q0 237 -148 373.5t-407 136.5zM664 1399q155 0 266.5 -29t204.5 -92q142 -96 219.5 -246.5t77.5 -331.5t-78 -332.5t-219 -246.5q-91 -63 -204 -92t-267 -29h-514v1399h514z" />
    <glyph glyph-name="E" unicode="E" horiz-adv-x="1114" 
d="M150 0v1399h841v-178h-643v-424h625v-181h-625v-436h664v-180h-862z" />
    <glyph glyph-name="F" unicode="F" horiz-adv-x="1030" 
d="M150 0v1399h796v-178h-598v-414h580v-180h-580v-627h-198z" />
    <glyph glyph-name="G" unicode="G" horiz-adv-x="1450" 
d="M1341 686v-592q-138 -60 -261.5 -89.5t-235.5 -29.5q-126 0 -237 31t-204 92q-156 102 -242.5 260.5t-86.5 346.5q0 141 57 273.5t162 231.5q111 107 250 159t311 52q117 0 234.5 -28t240.5 -84v-217q-133 72 -250 106.5t-227 34.5q-245 0 -405 -152.5t-160 -382.5
q0 -227 158 -379.5t397 -152.5q72 0 144 15.5t149 47.5v271h-263v186h469z" />
    <glyph glyph-name="H" unicode="H" horiz-adv-x="1503" 
d="M150 0v1399h198v-602h807v602h199v-1399h-199v608h-807v-608h-198z" />
    <glyph glyph-name="I" unicode="I" horiz-adv-x="512" 
d="M156 0v1399h200v-1399h-200z" />
    <glyph glyph-name="J" unicode="J" horiz-adv-x="516" 
d="M-125 -287h31q149 0 202.5 55.5t53.5 217.5v1413h198v-1362q0 -205 -30 -290t-103 -142q-46 -37 -116 -56.5t-156 -19.5h-35z" />
    <glyph glyph-name="K" unicode="K" horiz-adv-x="1251" 
d="M156 0v1399h200v-629l584 629h252l-608 -656l725 -743h-279l-674 692v-692h-200z" />
    <glyph glyph-name="L" unicode="L" horiz-adv-x="1034" 
d="M156 0v1399h198v-1219h666v-180h-864z" />
    <glyph glyph-name="M" unicode="M" horiz-adv-x="1655" 
d="M150 0v1399h174l503 -588l504 588h174v-1399h-194v1092l-484 -564l-483 564v-1092h-194z" />
    <glyph glyph-name="N" unicode="N" horiz-adv-x="1593" 
d="M150 0v1399h174l921 -1086v1086h199v-1399h-178l-918 1087v-1087h-198z" />
    <glyph glyph-name="O" unicode="O" horiz-adv-x="1640" 
d="M287 698q0 -107 40 -204t115 -172q73 -75 171.5 -115.5t205.5 -40.5q110 0 206.5 39.5t172.5 116.5q75 75 115.5 172t40.5 204t-40 202.5t-118 174.5q-75 77 -172 117.5t-205 40.5q-104 0 -201.5 -41t-175.5 -117q-75 -73 -115 -171t-40 -206zM74 705q0 140 57 272
t162 233q107 103 242 157t284 54q152 0 288.5 -54.5t240.5 -156.5q109 -106 164 -236t55 -282q0 -143 -56.5 -274.5t-160.5 -231.5q-109 -104 -243.5 -157.5t-287.5 -53.5q-149 0 -285.5 55t-240.5 156q-108 105 -163.5 237t-55.5 282z" />
    <glyph glyph-name="P" unicode="P" horiz-adv-x="1110" 
d="M348 780h217q146 0 211.5 52t65.5 167t-65.5 167.5t-211.5 52.5h-217v-439zM150 0v1399h436q219 0 342 -106t123 -294q0 -187 -123 -292t-342 -105h-238v-602h-198z" />
    <glyph glyph-name="Q" unicode="Q" horiz-adv-x="1640" 
d="M287 698q0 -107 40 -204t115 -172q75 -76 173.5 -118t203.5 -42q108 0 204.5 40.5t174.5 119.5q75 75 115.5 172t40.5 204t-40 202.5t-118 174.5q-75 77 -172 117.5t-205 40.5q-104 0 -201.5 -41t-175.5 -117q-75 -73 -115 -171t-40 -206zM635 0q-254 62 -407.5 255
t-153.5 450q0 140 57 272t162 233q107 103 242 157t284 54q152 0 288.5 -54.5t240.5 -156.5q109 -106 164 -236t55 -282q0 -248 -155 -433.5t-425 -258.5q126 -56 222.5 -81t185.5 -25q29 0 63.5 4t75.5 12l8 -21l-190 -165q-10 -2 -19 -2.5t-28 -0.5q-137 0 -307.5 71
t-362.5 208z" />
    <glyph glyph-name="R" unicode="R" horiz-adv-x="1157" 
d="M147 0v1399h410q212 0 327 -100t115 -283q0 -138 -63 -222t-199 -126q35 -19 66 -50.5t80 -105.5l340 -512h-242l-240 367q-108 166 -174.5 212t-158.5 46h-60v-625h-201zM348 793h166q140 0 209.5 54t69.5 165q0 114 -66 165.5t-213 51.5h-166v-436z" />
    <glyph glyph-name="S" unicode="S" horiz-adv-x="944" 
d="M78 109v264q95 -109 181.5 -157t184.5 -48q104 0 164 48.5t60 131.5q0 68 -40.5 119.5t-193.5 148.5q-237 153 -297.5 237t-60.5 200q0 163 115.5 267.5t297.5 104.5q81 0 159.5 -23.5t158.5 -72.5v-227q-92 74 -170 107.5t-156 33.5q-94 0 -153.5 -46.5t-59.5 -119.5
q0 -104 247 -258l30 -18q201 -125 263 -220.5t62 -236.5q0 -160 -116 -264.5t-297 -104.5q-113 0 -204 32t-175 102z" />
    <glyph glyph-name="T" unicode="T" horiz-adv-x="1255" 
d="M528 0v1217h-514v182h1227v-182h-514v-1217h-199z" />
    <glyph glyph-name="U" unicode="U" horiz-adv-x="1489" 
d="M141 1399h199v-803q0 -134 14.5 -190t48.5 -97q62 -73 147 -109t193 -36q182 0 293 94t111 248v893h199v-899q0 -234 -167 -379.5t-436 -145.5q-159 0 -287 56.5t-216 165.5q-54 65 -76.5 145t-22.5 246v811z" />
    <glyph glyph-name="V" unicode="V" horiz-adv-x="1214" 
d="M575 -10l-616 1409h209l436 -998l445 998h206l-628 -1409h-52z" />
    <glyph glyph-name="W" unicode="W" horiz-adv-x="1907" 
d="M483 -10l-518 1409h207l342 -955l377 955h127l373 -957l348 957h203l-527 -1409h-45l-418 1077l-422 -1077h-47z" />
    <glyph glyph-name="X" unicode="X" horiz-adv-x="1470" 
d="M-20 0l643 741l-555 658h247l433 -512l440 512h248l-566 -658l619 -741h-244l-502 598l-518 -598h-245z" />
    <glyph glyph-name="Y" unicode="Y" horiz-adv-x="1194" 
d="M485 0v700l-540 699h237l408 -531l418 531h241l-561 -709v-690h-203z" />
    <glyph glyph-name="Z" unicode="Z" horiz-adv-x="1305" 
d="M14 0l920 1223h-854v176h1200v-23l-903 -1204h903v-172h-1266z" />
    <glyph glyph-name="bracketleft" unicode="[" horiz-adv-x="641" 
d="M174 -428v1827h449v-139h-279v-1549h279v-139h-449z" />
    <glyph glyph-name="backslash" unicode="\" horiz-adv-x="578" 
d="M492 -190l-488 1611h143l482 -1611h-137z" />
    <glyph glyph-name="bracketright" unicode="]" horiz-adv-x="641" 
d="M469 1397v-1827h-449v139h281v1548h-281v140h449z" />
    <glyph glyph-name="asciicircum" unicode="^" horiz-adv-x="2048" 
d="M1116 1458l510 -557h-180l-422 420l-424 -420h-180l510 557h186z" />
    <glyph glyph-name="underscore" unicode="_" horiz-adv-x="1024" 
d="M1024 -340v-143h-1024v143h1024z" />
    <glyph glyph-name="grave" unicode="`" horiz-adv-x="1024" 
d="M649 1055h-106l-281 348h178z" />
    <glyph glyph-name="a" unicode="a" horiz-adv-x="887" 
d="M571 188v271q-186 -58 -256.5 -107t-70.5 -114q0 -57 36.5 -88t102.5 -31q49 0 96 17.5t92 51.5zM578 76q-70 -49 -132.5 -70.5t-134.5 -21.5q-124 0 -194 59.5t-70 163.5q0 98 76 172t229 125l219 73q1 8 1.5 16t0.5 23q0 83 -40.5 119.5t-133.5 36.5q-77 0 -159 -32.5
t-164 -96.5v182q71 58 159 87.5t187 29.5q178 0 259 -78.5t81 -253.5v-391q0 -49 8.5 -69.5t28.5 -20.5q17 0 35.5 9t60.5 42v-112q-50 -43 -101 -63.5t-106 -20.5q-53 0 -79.5 22t-30.5 70z" />
    <glyph glyph-name="b" unicode="b" horiz-adv-x="1059" 
d="M307 186q50 -18 96 -27t91 -9q146 0 226.5 81t80.5 230q0 145 -78 229t-211 84q-53 0 -103.5 -17t-101.5 -52v-519zM121 43v1356h186v-527q52 37 111.5 54.5t132.5 17.5q202 0 324 -131.5t122 -349.5q0 -231 -137 -357t-387 -126q-84 0 -170.5 15.5t-181.5 47.5z" />
    <glyph glyph-name="c" unicode="c" horiz-adv-x="901" 
d="M840 219v-188q-70 -25 -136 -37t-131 -12q-226 0 -371 135.5t-145 345.5q0 205 145 343t363 138q67 0 132 -14t128 -43v-197q-64 39 -126.5 57.5t-127.5 18.5q-142 0 -231.5 -85t-89.5 -218q0 -136 91 -221.5t239 -85.5q68 0 132.5 15.5t127.5 47.5z" />
    <glyph glyph-name="d" unicode="d" horiz-adv-x="1059" 
d="M754 205v520q-45 32 -92 47.5t-101 15.5q-141 0 -222 -86t-81 -237t81 -237.5t222 -86.5q54 0 101 15.5t92 48.5zM754 51q-51 -35 -109.5 -52t-130.5 -17q-200 0 -326.5 134t-126.5 347t126.5 347t326.5 134q70 0 129 -17.5t111 -54.5v527h184v-1399h-184v51z" />
    <glyph glyph-name="e" unicode="e" horiz-adv-x="999" 
d="M928 98q-92 -59 -189.5 -88.5t-201.5 -29.5q-219 0 -349.5 135.5t-130.5 361.5q0 207 125.5 336t327.5 129q200 0 317 -131t117 -354v-27h-692q8 -131 86 -204.5t209 -73.5q88 0 183.5 32.5t197.5 98.5v-185zM252 561h489q-9 101 -73 162t-160 61q-106 0 -171 -56.5
t-85 -166.5z" />
    <glyph glyph-name="f" unicode="f" horiz-adv-x="541" 
d="M350 0h-190v764h-121v160h121v84q0 120 10 174t35 94q40 65 110.5 101t157.5 36q27 0 61.5 -5t86.5 -17v-162q-39 8 -67.5 12t-49.5 4q-84 0 -119 -46.5t-35 -162.5v-112h123v-160h-123v-764z" />
    <glyph glyph-name="g" unicode="g" horiz-adv-x="915" 
d="M172 -172q0 -68 68 -102.5t200 -34.5q129 0 202 34t73 93q0 65 -82.5 98t-247.5 33q-94 0 -153.5 -34.5t-59.5 -86.5zM281 295q-104 32 -158.5 106t-54.5 183q0 168 116 254t344 86h367v-150h-156q38 -41 56 -86.5t18 -101.5q0 -116 -70.5 -198t-189.5 -103
q-26 -5 -70 -12q-149 -23 -149 -76t213 -95q52 -10 82 -16q134 -28 203 -94t69 -168q0 -141 -117.5 -215t-341.5 -74q-219 0 -334.5 71.5t-115.5 207.5q0 97 67.5 160t198.5 87q-53 24 -77.5 51.5t-24.5 61.5q0 36 30 65t95 56zM442 768q-85 0 -138.5 -49.5t-53.5 -126.5
q0 -81 51 -126.5t141 -45.5q91 0 144 46t53 126q0 77 -55.5 126.5t-141.5 49.5z" />
    <glyph glyph-name="h" unicode="h" horiz-adv-x="1026" 
d="M121 0v1399h184v-588q69 66 137.5 96.5t147.5 30.5q151 0 238 -87t87 -239v-612h-186v565q0 113 -46.5 166t-145.5 53q-73 0 -128 -28t-104 -90v-666h-184z" />
    <glyph glyph-name="i" unicode="i" horiz-adv-x="432" 
d="M111 1196q0 44 30 74t74 30t74 -30t30 -74t-30 -74t-74 -30t-74 30t-30 74zM123 0v924h184v-924h-184z" />
    <glyph glyph-name="j" unicode="j" horiz-adv-x="436" 
d="M2 -334q69 34 97 80.5t28 128.5v1049h186v-1033q0 -146 -46 -227.5t-152 -128.5zM115 1196q0 44 31 74t75 30t74.5 -30t30.5 -74t-30.5 -74t-74.5 -30t-75 30t-31 74z" />
    <glyph glyph-name="k" unicode="k" horiz-adv-x="989" 
d="M938 924l-387 -422l465 -502h-252l-451 492l398 432h227zM123 0v1399h184v-1399h-184z" />
    <glyph glyph-name="l" unicode="l" horiz-adv-x="432" 
d="M123 0v1399h184v-1399h-184z" />
    <glyph glyph-name="m" unicode="m" horiz-adv-x="1626" 
d="M117 0v924h184v-113q69 66 137.5 96.5t147.5 30.5q102 0 170.5 -37.5t115.5 -118.5q85 84 159.5 120t158.5 36q151 0 238.5 -87t87.5 -239v-612h-187v565q0 113 -46.5 166t-145.5 53q-73 0 -127 -27.5t-105 -90.5v-666h-180v565q0 112 -47.5 165.5t-147.5 53.5
q-71 0 -124.5 -27.5t-104.5 -90.5v-666h-184z" />
    <glyph glyph-name="n" unicode="n" horiz-adv-x="1022" 
d="M117 0v924h184v-113q69 66 137.5 96.5t147.5 30.5q150 0 236.5 -87t86.5 -239v-612h-184v565q0 112 -47.5 165.5t-147.5 53.5q-71 0 -124.5 -27.5t-104.5 -90.5v-666h-184z" />
    <glyph glyph-name="o" unicode="o" horiz-adv-x="1096" 
d="M250 463q0 -129 87 -220t210 -91q122 0 209.5 91.5t87.5 219.5q0 127 -87 218t-210 91t-210 -91t-87 -218zM57 463q0 201 143 341t349 140q97 0 185.5 -36.5t158.5 -104.5q71 -72 108 -158t37 -182q0 -95 -38 -185t-107 -157q-70 -69 -157.5 -104t-186.5 -35
q-206 0 -349 140t-143 341z" />
    <glyph glyph-name="p" unicode="p" horiz-adv-x="1059" 
d="M307 721v-518q45 -33 91.5 -48.5t99.5 -15.5q141 0 222 86.5t81 237.5q0 150 -81 235.5t-222 85.5q-53 0 -99.5 -15t-91.5 -48zM121 -465v1389h186v-52q52 37 110 54.5t128 17.5q200 0 326 -134t126 -347t-126 -347t-326 -134q-72 0 -129.5 16.5t-108.5 52.5v-516h-186z
" />
    <glyph glyph-name="q" unicode="q" horiz-adv-x="1059" 
d="M754 201v518q-45 32 -92 47.5t-101 15.5q-141 0 -222 -86t-81 -237q0 -150 81 -236t222 -86q54 0 101 15.5t92 48.5zM754 51q-51 -35 -109.5 -52t-130.5 -17q-200 0 -326.5 134t-126.5 347t126.5 347t326.5 134q70 0 129 -17.5t111 -54.5v52h184v-1389h-184v516z" />
    <glyph glyph-name="r" unicode="r" horiz-adv-x="768" 
d="M119 0v924h184v-201q77 121 138.5 169t133.5 48q50 0 101.5 -22t109.5 -68l-100 -164q-45 39 -86 56.5t-86 17.5q-75 0 -131 -63t-80 -175v-522h-184z" />
    <glyph glyph-name="s" unicode="s" horiz-adv-x="770" 
d="M57 63v197q83 -55 160 -84t141 -29q71 0 111.5 26.5t40.5 72.5q0 58 -151 133q-44 22 -68 35q-129 66 -177 127.5t-48 150.5q0 116 83 184t228 68q78 0 150 -18.5t141 -57.5v-180q-85 47 -155.5 69.5t-133.5 22.5q-58 0 -89.5 -20t-31.5 -58q0 -70 193 -165l17 -8
q151 -76 197 -133.5t46 -145.5q0 -122 -91.5 -195t-242.5 -73q-87 0 -165.5 20t-154.5 61z" />
    <glyph glyph-name="t" unicode="t" horiz-adv-x="659" 
d="M627 29q-43 -24 -92.5 -35.5t-106.5 -11.5q-156 0 -219.5 74t-63.5 270v438h-157v18l323 357h21v-215h289v-160h-289v-424q0 -115 28.5 -148.5t106.5 -33.5q42 0 82 11t78 34v-174z" />
    <glyph glyph-name="u" unicode="u" horiz-adv-x="1022" 
d="M721 113q-69 -66 -137.5 -96.5t-147.5 -30.5q-151 0 -238 87t-87 238v613h186v-566q0 -112 47.5 -165.5t147.5 -53.5q71 0 124.5 27.5t104.5 91.5v666h184v-924h-184v113z" />
    <glyph glyph-name="v" unicode="v" horiz-adv-x="909" 
d="M416 -18l-445 942h205l285 -613l266 613h201l-426 -942h-86z" />
    <glyph glyph-name="w" unicode="w" horiz-adv-x="1532" 
d="M397 -18l-409 942h194l264 -613l254 613h121l258 -611l264 611h195l-412 -942h-90l-274 669l-275 -669h-90z" />
    <glyph glyph-name="x" unicode="x" horiz-adv-x="975" 
d="M-8 0l373 477l-365 447h227l248 -314l244 314h227l-354 -443l389 -481h-223l-277 340l-266 -340h-223z" />
    <glyph glyph-name="y" unicode="y" horiz-adv-x="909" 
d="M360 182l-389 742h205l285 -541l266 541h201l-686 -1389h-201z" />
    <glyph glyph-name="z" unicode="z" horiz-adv-x="903" 
d="M18 0v25l517 729h-496v170h817v-21l-506 -729h514v-174h-846z" />
    <glyph glyph-name="braceleft" unicode="{" horiz-adv-x="1024" 
d="M866 1327h-41q-120 0 -161 -44.5t-41 -184.5v-242q0 -160 -44.5 -228t-156.5 -98q113 -28 157 -96t44 -229v-242q0 -141 41.5 -185t162.5 -44h39v-148h-43q-108 0 -169 11.5t-103 37.5q-55 34 -77.5 97t-22.5 211v245q0 149 -54.5 210t-185.5 61q-7 0 -21.5 -1t-21.5 -1
v149q8 0 23 -1t22 -1q130 0 184 60.5t54 207.5v246q0 148 22.5 210.5t77.5 96.5q45 28 108.5 40t169.5 12h37v-150z" />
    <glyph glyph-name="bar" unicode="|" horiz-adv-x="1024" 
d="M588 1565v-2048h-150v2048h150z" />
    <glyph glyph-name="braceright" unicode="}" horiz-adv-x="1024" 
d="M575 1118v-246q0 -147 54 -207.5t184 -60.5q7 0 22 1t23 1v-149q-7 0 -22 1t-21 1q-132 0 -186 -60.5t-54 -210.5v-245q0 -148 -22.5 -211t-77.5 -97q-42 -26 -103 -37.5t-169 -11.5h-43v148h39q120 0 162 45t42 186v240q0 160 44.5 228t156.5 97q-112 30 -156.5 98
t-44.5 228v242q0 140 -42 184.5t-162 44.5h-39v150h37q107 0 171 -12.5t107 -39.5q55 -34 77.5 -96.5t22.5 -210.5z" />
    <glyph glyph-name="asciitilde" unicode="~" horiz-adv-x="1706" 
d="M1530 614q-104 -72 -199 -106.5t-190 -34.5q-93 0 -256 58q-22 8 -34 12l-15 5q-176 60 -273 60q-84 0 -175 -37t-210 -120v155q106 72 202 108t185 36q62 0 127.5 -13.5t163.5 -48.5q16 -5 47 -17q159 -57 240 -57q88 0 179.5 37t207.5 119v-156z" />
    <glyph glyph-name="Adieresis" unicode="&#xc4;" horiz-adv-x="1276" 
d="M416 592h436l-221 504zM-45 0l606 1399h146l614 -1399h-207l-180 412h-596l-178 -412h-205zM731 1687q0 41 29.5 71t68.5 30q40 0 70.5 -30.5t30.5 -70.5q0 -42 -29 -71t-72 -29q-41 0 -69.5 29t-28.5 71zM350 1687q0 41 29.5 71t69.5 30q39 0 69.5 -30.5t30.5 -70.5
q0 -42 -29 -71t-71 -29t-70.5 29t-28.5 71z" />
    <glyph glyph-name="Aring" unicode="&#xc5;" horiz-adv-x="1276" 
d="M492 1712q0 -60 41.5 -101.5t101.5 -41.5q59 0 100 41.5t41 101.5t-41 101.5t-100 41.5q-61 0 -102 -41t-41 -102zM385 1712q0 105 71.5 176.5t176.5 71.5t177.5 -72t72.5 -176t-72.5 -176t-177.5 -72t-176.5 72t-71.5 176zM416 592h436l-221 504zM-45 0l606 1399h146
l614 -1399h-207l-180 412h-596l-178 -412h-205z" />
    <glyph glyph-name="Ccedilla" unicode="&#xc7;" horiz-adv-x="1421" 
d="M1341 332v-226q-123 -64 -250.5 -97.5t-252.5 -33.5q-120 0 -229 31.5t-206 93.5q-156 102 -242.5 260.5t-86.5 344.5q0 141 57 273.5t162 231.5q112 106 251 158.5t308 52.5q118 0 234 -27t243 -85v-217q-133 72 -250 106.5t-227 34.5q-245 0 -405 -152.5t-160 -382.5
q0 -227 157.5 -379.5t395.5 -152.5q122 0 247 41t254 125zM504 -424v88q79 -18 141.5 -27.5t106.5 -9.5q60 0 90.5 21.5t30.5 62.5q0 52 -33 75.5t-106 23.5q-21 0 -31 -0.5t-21 -1.5v192h72v-106h23q111 0 169 -45t58 -132q0 -89 -64 -135.5t-186 -46.5q-47 0 -108 10
t-142 31z" />
    <glyph glyph-name="Eacute" unicode="&#xc9;" horiz-adv-x="1114" 
d="M150 0v1399h841v-178h-643v-424h625v-181h-625v-436h664v-180h-862zM432 1534l209 348h178l-281 -348h-106z" />
    <glyph glyph-name="Ntilde" unicode="&#xd1;" horiz-adv-x="1593" 
d="M150 0v1399h174l921 -1086v1086h199v-1399h-178l-918 1087v-1087h-198zM1088 1802q-24 -93 -75.5 -143t-123.5 -50q-17 1 -32 3t-34 8l-79 26q-12 4 -25.5 6.5t-27.5 2.5q-35 0 -58.5 -15.5t-38.5 -48.5h-88q22 91 72.5 138.5t126.5 47.5q17 0 32 -2t27 -6l79 -29
q15 -4 31.5 -7t28.5 -3q36 0 60 18.5t37 53.5h88z" />
    <glyph glyph-name="Odieresis" unicode="&#xd6;" horiz-adv-x="1640" 
d="M287 698q0 -107 40 -204t115 -172q73 -75 171.5 -115.5t205.5 -40.5q110 0 206.5 39.5t172.5 116.5q75 75 115.5 172t40.5 204t-40 202.5t-118 174.5q-75 77 -172 117.5t-205 40.5q-104 0 -201.5 -41t-175.5 -117q-75 -73 -115 -171t-40 -206zM74 705q0 140 57 272
t162 233q107 103 242 157t284 54q152 0 288.5 -54.5t240.5 -156.5q109 -106 164 -236t55 -282q0 -143 -56.5 -274.5t-160.5 -231.5q-109 -104 -243.5 -157.5t-287.5 -53.5q-149 0 -285.5 55t-240.5 156q-108 105 -163.5 237t-55.5 282zM913 1687q0 41 29.5 71t68.5 30
q40 0 70.5 -30.5t30.5 -70.5q0 -42 -29 -71t-72 -29q-41 0 -69.5 29t-28.5 71zM532 1687q0 41 29.5 71t69.5 30q39 0 69.5 -30.5t30.5 -70.5q0 -42 -29 -71t-71 -29t-70.5 29t-28.5 71z" />
    <glyph glyph-name="Udieresis" unicode="&#xdc;" horiz-adv-x="1489" 
d="M141 1399h199v-803q0 -134 14.5 -190t48.5 -97q62 -73 147 -109t193 -36q182 0 293 94t111 248v893h199v-899q0 -234 -167 -379.5t-436 -145.5q-159 0 -287 56.5t-216 165.5q-54 65 -76.5 145t-22.5 246v811zM837 1687q0 41 29.5 71t68.5 30q40 0 70.5 -30.5t30.5 -70.5
q0 -42 -29 -71t-72 -29q-41 0 -69.5 29t-28.5 71zM456 1687q0 41 29.5 71t69.5 30q39 0 69.5 -30.5t30.5 -70.5q0 -42 -29 -71t-71 -29t-70.5 29t-28.5 71z" />
    <glyph glyph-name="aacute" unicode="&#xe1;" horiz-adv-x="887" 
d="M571 188v271q-186 -58 -256.5 -107t-70.5 -114q0 -57 36.5 -88t102.5 -31q49 0 96 17.5t92 51.5zM578 76q-70 -49 -132.5 -70.5t-134.5 -21.5q-124 0 -194 59.5t-70 163.5q0 98 76 172t229 125l219 73q1 8 1.5 16t0.5 23q0 83 -40.5 119.5t-133.5 36.5q-77 0 -159 -32.5
t-164 -96.5v182q71 58 159 87.5t187 29.5q178 0 259 -78.5t81 -253.5v-391q0 -49 8.5 -69.5t28.5 -20.5q17 0 35.5 9t60.5 42v-112q-50 -43 -101 -63.5t-106 -20.5q-53 0 -79.5 22t-30.5 70zM297 1055l209 348h178l-281 -348h-106z" />
    <glyph glyph-name="agrave" unicode="&#xe0;" horiz-adv-x="887" 
d="M571 188v271q-186 -58 -256.5 -107t-70.5 -114q0 -57 36.5 -88t102.5 -31q49 0 96 17.5t92 51.5zM578 76q-70 -49 -132.5 -70.5t-134.5 -21.5q-124 0 -194 59.5t-70 163.5q0 98 76 172t229 125l219 73q1 8 1.5 16t0.5 23q0 83 -40.5 119.5t-133.5 36.5q-77 0 -159 -32.5
t-164 -96.5v182q71 58 159 87.5t187 29.5q178 0 259 -78.5t81 -253.5v-391q0 -49 8.5 -69.5t28.5 -20.5q17 0 35.5 9t60.5 42v-112q-50 -43 -101 -63.5t-106 -20.5q-53 0 -79.5 22t-30.5 70zM571 1055h-106l-281 348h178z" />
    <glyph glyph-name="acircumflex" unicode="&#xe2;" horiz-adv-x="887" 
d="M571 188v271q-186 -58 -256.5 -107t-70.5 -114q0 -57 36.5 -88t102.5 -31q49 0 96 17.5t92 51.5zM578 76q-70 -49 -132.5 -70.5t-134.5 -21.5q-124 0 -194 59.5t-70 163.5q0 98 76 172t229 125l219 73q1 8 1.5 16t0.5 23q0 83 -40.5 119.5t-133.5 36.5q-77 0 -159 -32.5
t-164 -96.5v182q71 58 159 87.5t187 29.5q178 0 259 -78.5t81 -253.5v-391q0 -49 8.5 -69.5t28.5 -20.5q17 0 35.5 9t60.5 42v-112q-50 -43 -101 -63.5t-106 -20.5q-53 0 -79.5 22t-30.5 70zM147 1055l197 348h178l197 -348h-107l-178 241l-180 -241h-107z" />
    <glyph glyph-name="adieresis" unicode="&#xe4;" horiz-adv-x="887" 
d="M571 188v271q-186 -58 -256.5 -107t-70.5 -114q0 -57 36.5 -88t102.5 -31q49 0 96 17.5t92 51.5zM578 76q-70 -49 -132.5 -70.5t-134.5 -21.5q-124 0 -194 59.5t-70 163.5q0 98 76 172t229 125l219 73q1 8 1.5 16t0.5 23q0 83 -40.5 119.5t-133.5 36.5q-77 0 -159 -32.5
t-164 -96.5v182q71 58 159 87.5t187 29.5q178 0 259 -78.5t81 -253.5v-391q0 -49 8.5 -69.5t28.5 -20.5q17 0 35.5 9t60.5 42v-112q-50 -43 -101 -63.5t-106 -20.5q-53 0 -79.5 22t-30.5 70zM526 1208q0 41 29.5 71t68.5 30q40 0 70.5 -30.5t30.5 -70.5q0 -42 -29 -71
t-72 -29q-41 0 -69.5 29t-28.5 71zM145 1208q0 41 29.5 71t69.5 30q39 0 69.5 -30.5t30.5 -70.5q0 -42 -29 -71t-71 -29t-70.5 29t-28.5 71z" />
    <glyph glyph-name="atilde" unicode="&#xe3;" horiz-adv-x="887" 
d="M571 188v271q-186 -58 -256.5 -107t-70.5 -114q0 -57 36.5 -88t102.5 -31q49 0 96 17.5t92 51.5zM578 76q-70 -49 -132.5 -70.5t-134.5 -21.5q-124 0 -194 59.5t-70 163.5q0 98 76 172t229 125l219 73q1 8 1.5 16t0.5 23q0 83 -40.5 119.5t-133.5 36.5q-77 0 -159 -32.5
t-164 -96.5v182q71 58 159 87.5t187 29.5q178 0 259 -78.5t81 -253.5v-391q0 -49 8.5 -69.5t28.5 -20.5q17 0 35.5 9t60.5 42v-112q-50 -43 -101 -63.5t-106 -20.5q-53 0 -79.5 22t-30.5 70zM725 1323q-24 -93 -75.5 -143t-123.5 -50q-17 1 -32 3t-34 8l-79 26
q-12 4 -25.5 6.5t-27.5 2.5q-35 0 -58.5 -15.5t-38.5 -48.5h-88q22 91 72.5 138.5t126.5 47.5q17 0 32 -2t27 -6l79 -29q15 -4 31.5 -7t28.5 -3q36 0 60 18.5t37 53.5h88z" />
    <glyph glyph-name="aring" unicode="&#xe5;" horiz-adv-x="887" 
d="M186 1260q0 104 71.5 174.5t176.5 70.5t177.5 -71t72.5 -174q0 -105 -72.5 -176.5t-177.5 -71.5q-104 0 -176 71.5t-72 176.5zM293 1257q0 -59 41.5 -101t101.5 -42t101 41.5t41 101.5q0 61 -41 102.5t-101 41.5q-61 0 -102 -41.5t-41 -102.5zM578 76
q-70 -49 -132.5 -70.5t-134.5 -21.5q-124 0 -194 59.5t-70 163.5q0 98 76 172t229 125l219 73q1 8 1.5 16t0.5 23q0 83 -40.5 119.5t-133.5 36.5q-77 0 -159 -32.5t-164 -96.5v182q71 58 159 87.5t187 29.5q178 0 259 -78.5t81 -253.5v-391q0 -49 8.5 -69.5t28.5 -20.5
q17 0 35.5 9t60.5 42v-112q-50 -43 -101 -63.5t-106 -20.5q-53 0 -79.5 22t-30.5 70zM571 188v271q-186 -58 -256.5 -107t-70.5 -114q0 -57 36.5 -88t102.5 -31q49 0 96 17.5t92 51.5z" />
    <glyph glyph-name="ccedilla" unicode="&#xe7;" horiz-adv-x="901" 
d="M840 219v-188q-70 -25 -136 -37t-131 -12q-226 0 -371 135.5t-145 345.5q0 205 145 343t363 138q67 0 132 -14t128 -43v-197q-64 39 -126.5 57.5t-127.5 18.5q-142 0 -231.5 -85t-89.5 -218q0 -136 91 -221.5t239 -85.5q68 0 132.5 15.5t127.5 47.5zM248 -424v88
q79 -18 141.5 -27.5t106.5 -9.5q60 0 90.5 21.5t30.5 62.5q0 52 -33 75.5t-106 23.5q-21 0 -31 -0.5t-21 -1.5v192h72v-106h23q111 0 169 -45t58 -132q0 -89 -64 -135.5t-186 -46.5q-47 0 -108 10t-142 31z" />
    <glyph glyph-name="eacute" unicode="&#xe9;" horiz-adv-x="999" 
d="M928 98q-92 -59 -189.5 -88.5t-201.5 -29.5q-219 0 -349.5 135.5t-130.5 361.5q0 207 125.5 336t327.5 129q200 0 317 -131t117 -354v-27h-692q8 -131 86 -204.5t209 -73.5q88 0 183.5 32.5t197.5 98.5v-185zM252 561h489q-9 101 -73 162t-160 61q-106 0 -171 -56.5
t-85 -166.5zM363 1055l209 348h178l-281 -348h-106z" />
    <glyph glyph-name="egrave" unicode="&#xe8;" horiz-adv-x="999" 
d="M928 98q-92 -59 -189.5 -88.5t-201.5 -29.5q-219 0 -349.5 135.5t-130.5 361.5q0 207 125.5 336t327.5 129q200 0 317 -131t117 -354v-27h-692q8 -131 86 -204.5t209 -73.5q88 0 183.5 32.5t197.5 98.5v-185zM252 561h489q-9 101 -73 162t-160 61q-106 0 -171 -56.5
t-85 -166.5zM637 1055h-106l-281 348h178z" />
    <glyph glyph-name="ecircumflex" unicode="&#xea;" horiz-adv-x="999" 
d="M928 98q-92 -59 -189.5 -88.5t-201.5 -29.5q-219 0 -349.5 135.5t-130.5 361.5q0 207 125.5 336t327.5 129q200 0 317 -131t117 -354v-27h-692q8 -131 86 -204.5t209 -73.5q88 0 183.5 32.5t197.5 98.5v-185zM252 561h489q-9 101 -73 162t-160 61q-106 0 -171 -56.5
t-85 -166.5zM213 1055l197 348h178l197 -348h-107l-178 241l-180 -241h-107z" />
    <glyph glyph-name="edieresis" unicode="&#xeb;" horiz-adv-x="999" 
d="M928 98q-92 -59 -189.5 -88.5t-201.5 -29.5q-219 0 -349.5 135.5t-130.5 361.5q0 207 125.5 336t327.5 129q200 0 317 -131t117 -354v-27h-692q8 -131 86 -204.5t209 -73.5q88 0 183.5 32.5t197.5 98.5v-185zM252 561h489q-9 101 -73 162t-160 61q-106 0 -171 -56.5
t-85 -166.5zM592 1208q0 41 29.5 71t68.5 30q40 0 70.5 -30.5t30.5 -70.5q0 -42 -29 -71t-72 -29q-41 0 -69.5 29t-28.5 71zM211 1208q0 41 29.5 71t69.5 30q39 0 69.5 -30.5t30.5 -70.5q0 -42 -29 -71t-71 -29t-70.5 29t-28.5 71z" />
    <glyph glyph-name="iacute" unicode="&#xed;" horiz-adv-x="432" 
d="M123 0v924h184v-924h-184zM80 1055l209 348h178l-281 -348h-106z" />
    <glyph glyph-name="igrave" unicode="&#xec;" horiz-adv-x="432" 
d="M123 0v924h184v-924h-184zM354 1055h-106l-281 348h178z" />
    <glyph glyph-name="icircumflex" unicode="&#xee;" horiz-adv-x="432" 
d="M123 0v924h184v-924h-184zM-70 1055l197 348h178l197 -348h-107l-178 241l-180 -241h-107z" />
    <glyph glyph-name="idieresis" unicode="&#xef;" horiz-adv-x="432" 
d="M123 0v924h184v-924h-184zM309 1208q0 41 29.5 71t68.5 30q40 0 70.5 -30.5t30.5 -70.5q0 -42 -29 -71t-72 -29q-41 0 -69.5 29t-28.5 71zM-72 1208q0 41 29.5 71t69.5 30q39 0 69.5 -30.5t30.5 -70.5q0 -42 -29 -71t-71 -29t-70.5 29t-28.5 71z" />
    <glyph glyph-name="ntilde" unicode="&#xf1;" horiz-adv-x="1022" 
d="M117 0v924h184v-113q69 66 137.5 96.5t147.5 30.5q150 0 236.5 -87t86.5 -239v-612h-184v565q0 112 -47.5 165.5t-147.5 53.5q-71 0 -124.5 -27.5t-104.5 -90.5v-666h-184zM803 1323q-24 -93 -75.5 -143t-123.5 -50q-17 1 -32 3t-34 8l-79 26q-12 4 -25.5 6.5t-27.5 2.5
q-35 0 -58.5 -15.5t-38.5 -48.5h-88q22 91 72.5 138.5t126.5 47.5q17 0 32 -2t27 -6l79 -29q15 -4 31.5 -7t28.5 -3q36 0 60 18.5t37 53.5h88z" />
    <glyph glyph-name="oacute" unicode="&#xf3;" horiz-adv-x="1096" 
d="M250 463q0 -129 87 -220t210 -91q122 0 209.5 91.5t87.5 219.5q0 127 -87 218t-210 91t-210 -91t-87 -218zM57 463q0 201 143 341t349 140q97 0 185.5 -36.5t158.5 -104.5q71 -72 108 -158t37 -182q0 -95 -38 -185t-107 -157q-70 -69 -157.5 -104t-186.5 -35
q-206 0 -349 140t-143 341zM412 1055l209 348h178l-281 -348h-106z" />
    <glyph glyph-name="ograve" unicode="&#xf2;" horiz-adv-x="1096" 
d="M250 463q0 -129 87 -220t210 -91q122 0 209.5 91.5t87.5 219.5q0 127 -87 218t-210 91t-210 -91t-87 -218zM57 463q0 201 143 341t349 140q97 0 185.5 -36.5t158.5 -104.5q71 -72 108 -158t37 -182q0 -95 -38 -185t-107 -157q-70 -69 -157.5 -104t-186.5 -35
q-206 0 -349 140t-143 341zM686 1055h-106l-281 348h178z" />
    <glyph glyph-name="ocircumflex" unicode="&#xf4;" horiz-adv-x="1096" 
d="M250 463q0 -129 87 -220t210 -91q122 0 209.5 91.5t87.5 219.5q0 127 -87 218t-210 91t-210 -91t-87 -218zM57 463q0 201 143 341t349 140q97 0 185.5 -36.5t158.5 -104.5q71 -72 108 -158t37 -182q0 -95 -38 -185t-107 -157q-70 -69 -157.5 -104t-186.5 -35
q-206 0 -349 140t-143 341zM262 1055l197 348h178l197 -348h-107l-178 241l-180 -241h-107z" />
    <glyph glyph-name="odieresis" unicode="&#xf6;" horiz-adv-x="1096" 
d="M250 463q0 -129 87 -220t210 -91q122 0 209.5 91.5t87.5 219.5q0 127 -87 218t-210 91t-210 -91t-87 -218zM57 463q0 201 143 341t349 140q97 0 185.5 -36.5t158.5 -104.5q71 -72 108 -158t37 -182q0 -95 -38 -185t-107 -157q-70 -69 -157.5 -104t-186.5 -35
q-206 0 -349 140t-143 341zM641 1208q0 41 29.5 71t68.5 30q40 0 70.5 -30.5t30.5 -70.5q0 -42 -29 -71t-72 -29q-41 0 -69.5 29t-28.5 71zM260 1208q0 41 29.5 71t69.5 30q39 0 69.5 -30.5t30.5 -70.5q0 -42 -29 -71t-71 -29t-70.5 29t-28.5 71z" />
    <glyph glyph-name="otilde" unicode="&#xf5;" horiz-adv-x="1096" 
d="M250 463q0 -129 87 -220t210 -91q122 0 209.5 91.5t87.5 219.5q0 127 -87 218t-210 91t-210 -91t-87 -218zM57 463q0 201 143 341t349 140q97 0 185.5 -36.5t158.5 -104.5q71 -72 108 -158t37 -182q0 -95 -38 -185t-107 -157q-70 -69 -157.5 -104t-186.5 -35
q-206 0 -349 140t-143 341zM840 1323q-24 -93 -75.5 -143t-123.5 -50q-17 1 -32 3t-34 8l-79 26q-12 4 -25.5 6.5t-27.5 2.5q-35 0 -58.5 -15.5t-38.5 -48.5h-88q22 91 72.5 138.5t126.5 47.5q17 0 32 -2t27 -6l79 -29q15 -4 31.5 -7t28.5 -3q36 0 60 18.5t37 53.5h88z" />
    <glyph glyph-name="uacute" unicode="&#xfa;" horiz-adv-x="1022" 
d="M721 113q-69 -66 -137.5 -96.5t-147.5 -30.5q-151 0 -238 87t-87 238v613h186v-566q0 -112 47.5 -165.5t147.5 -53.5q71 0 124.5 27.5t104.5 91.5v666h184v-924h-184v113zM375 1055l209 348h178l-281 -348h-106z" />
    <glyph glyph-name="ugrave" unicode="&#xf9;" horiz-adv-x="1022" 
d="M721 113q-69 -66 -137.5 -96.5t-147.5 -30.5q-151 0 -238 87t-87 238v613h186v-566q0 -112 47.5 -165.5t147.5 -53.5q71 0 124.5 27.5t104.5 91.5v666h184v-924h-184v113zM649 1055h-106l-281 348h178z" />
    <glyph glyph-name="ucircumflex" unicode="&#xfb;" horiz-adv-x="1022" 
d="M721 113q-69 -66 -137.5 -96.5t-147.5 -30.5q-151 0 -238 87t-87 238v613h186v-566q0 -112 47.5 -165.5t147.5 -53.5q71 0 124.5 27.5t104.5 91.5v666h184v-924h-184v113zM225 1055l197 348h178l197 -348h-107l-178 241l-180 -241h-107z" />
    <glyph glyph-name="udieresis" unicode="&#xfc;" horiz-adv-x="1022" 
d="M721 113q-69 -66 -137.5 -96.5t-147.5 -30.5q-151 0 -238 87t-87 238v613h186v-566q0 -112 47.5 -165.5t147.5 -53.5q71 0 124.5 27.5t104.5 91.5v666h184v-924h-184v113zM604 1208q0 41 29.5 71t68.5 30q40 0 70.5 -30.5t30.5 -70.5q0 -42 -29 -71t-72 -29
q-41 0 -69.5 29t-28.5 71zM223 1208q0 41 29.5 71t69.5 30q39 0 69.5 -30.5t30.5 -70.5q0 -42 -29 -71t-71 -29t-70.5 29t-28.5 71z" />
    <glyph glyph-name="dagger" unicode="&#x2020;" horiz-adv-x="1034" 
d="M455 809l-383 -39v203l383 -39l-39 465h205l-43 -465l387 39v-203l-387 39l43 -993h-205z" />
    <glyph glyph-name="degree" unicode="&#xb0;" horiz-adv-x="674" 
d="M530 1169q0 81 -55.5 137t-136.5 56t-138 -56t-57 -137t57 -138.5t138 -57.5t136.5 57.5t55.5 138.5zM338 1456q118 0 202.5 -84.5t84.5 -204.5q0 -119 -84 -202.5t-205 -83.5t-204 83t-83 203t84.5 204.5t204.5 84.5z" />
    <glyph glyph-name="cent" unicode="&#xa2;" horiz-adv-x="1034" 
d="M643 792q-8 2 -16.5 2.5t-26.5 0.5q-130 0 -214.5 -92t-84.5 -232q0 -78 32 -139.5t97 -110.5zM213 -360l152 409q-124 66 -191.5 176.5t-67.5 249.5q0 215 145.5 354.5t373.5 139.5q33 0 49.5 -1t32.5 -3l120 319h111l-131 -346q20 -4 36 -11t31 -18v-198
q-30 18 -62.5 33.5t-66.5 27.5l-217 -584q30 -6 56 -9t49 -3q64 0 128.5 16t127.5 48v-187q-57 -25 -126 -37t-153 -12q-31 0 -67.5 5.5t-75.5 15.5l-145 -385h-109z" />
    <glyph glyph-name="sterling" unicode="&#xa3;" horiz-adv-x="1034" 
d="M68 -12l161 612h-135v180h197q91 319 219 482t287 163q24 0 49 -3t51 -9l96 -188q-33 8 -62 12t-54 4q-140 0 -231.5 -109.5t-151.5 -351.5h149v-180h-211l-102 -391q29 2 56 3t54 1q61 0 173 -19.5t165 -19.5q35 0 81 9.5t110 29.5v-199q-64 -16 -115.5 -24t-95.5 -8
q-42 0 -170 18t-213 18q-54 0 -131 -7.5t-176 -22.5z" />
    <glyph glyph-name="section" unicode="&#xa7;" horiz-adv-x="1034" 
d="M612 379q80 35 115 77t35 101q0 56 -31.5 95.5t-105.5 76.5l-203 107q-81 -36 -116.5 -78t-35.5 -101q0 -55 32.5 -95.5t107.5 -78.5zM178 59q90 -56 171.5 -84t156.5 -28q76 0 120 31.5t44 87.5q0 49 -43 91t-162 101l-35 18q-348 174 -348 361q0 93 53 160.5t162 113.5
q-62 42 -93.5 99t-31.5 127q0 132 95 209t259 77q88 0 163 -18t142 -55v-181q-85 49 -158.5 73t-135.5 24q-82 0 -126 -32.5t-44 -90.5q0 -85 243 -209l33 -16q183 -92 245 -165.5t62 -177.5q0 -93 -53 -160t-164 -112q64 -45 95.5 -102t31.5 -125q0 -134 -94.5 -210.5
t-259.5 -76.5q-88 0 -169 21.5t-159 64.5v184z" />
    <glyph glyph-name="bullet" unicode="&#x2022;" horiz-adv-x="1208" 
d="M307 762q0 123 87 209t210 86q122 0 208.5 -86.5t86.5 -208.5t-87.5 -209.5t-209.5 -87.5q-123 0 -209 87t-86 210z" />
    <glyph glyph-name="paragraph" unicode="&#xb6;" horiz-adv-x="1024" 
d="M958 1393h-120v-1393h-111v1393h-176v-1393h-113v782q-170 8 -271 102.5t-101 245.5q0 157 107.5 253t285.5 96h499v-86z" />
    <glyph glyph-name="germandbls" unicode="&#xdf;" horiz-adv-x="1028" 
d="M303 0h-188v1040q0 183 103 282t292 99q172 0 276.5 -90.5t104.5 -238.5q0 -113 -46.5 -192t-137.5 -122q128 -52 188.5 -139.5t60.5 -218.5q0 -207 -104 -323.5t-289 -116.5q-24 0 -51 2.5t-59 7.5v184q31 -9 58.5 -13.5t47.5 -4.5q92 0 147.5 68t55.5 182
q0 141 -71 209.5t-224 74.5v158h6q112 0 173 54.5t61 154.5q0 99 -58 160t-151 61q-86 0 -140.5 -56t-54.5 -145v-1077z" />
    <glyph glyph-name="registered" unicode="&#xae;" horiz-adv-x="1706" 
d="M844 1057h-129v-277h133q113 0 162 31.5t49 101.5q0 76 -51 110t-164 34zM872 1159q174 0 261.5 -57.5t87.5 -171.5q0 -89 -50 -148t-141 -77l187 -381h-177l-170 356h-155v-356h-158v835h315zM1493 721q0 134 -46.5 251t-135.5 206q-92 93 -208.5 141.5t-248.5 48.5
q-130 0 -245 -47t-201 -135q-94 -95 -144.5 -214t-50.5 -245q0 -125 48.5 -240.5t139.5 -207.5q90 -92 206.5 -141.5t240.5 -49.5q130 0 246.5 48t212.5 140q90 88 138 202.5t48 242.5zM852 1464q151 0 286 -56t240 -163q103 -104 158 -238t55 -280q0 -151 -55 -283.5
t-160 -234.5q-109 -106 -244.5 -162.5t-279.5 -56.5q-147 0 -280.5 56.5t-239.5 164.5q-105 106 -160 238.5t-55 277.5q0 146 57.5 282.5t165.5 245.5q101 103 231.5 156t280.5 53z" />
    <glyph glyph-name="copyright" unicode="&#xa9;" horiz-adv-x="1706" 
d="M1053 907q-13 77 -66 118.5t-139 41.5q-105 0 -165 -90.5t-60 -249.5q0 -157 62 -244.5t173 -87.5q82 0 136.5 47t68.5 129h145q-9 -130 -107.5 -211t-248.5 -81q-182 0 -285.5 120t-103.5 334q0 200 109 322.5t286 122.5q142 0 236.5 -75t105.5 -196h-147zM1493 727
q0 130 -47.5 246.5t-136.5 206.5q-93 92 -209 140t-246 48q-129 0 -243.5 -47t-204.5 -137q-93 -93 -143 -211.5t-50 -245.5q0 -126 49 -242t141 -209q92 -91 207.5 -139.5t243.5 -48.5q125 0 242 49t213 142q90 88 137 202.5t47 245.5zM852 1464q152 0 285.5 -54.5
t238.5 -160.5q104 -103 159.5 -238.5t55.5 -283.5q0 -149 -54.5 -281.5t-158.5 -234.5q-110 -107 -245.5 -164t-280.5 -57t-278.5 56t-239.5 163q-106 105 -161.5 238.5t-55.5 279.5q0 147 56 281.5t163 242.5q104 104 236 158.5t280 54.5z" />
    <glyph glyph-name="trademark" unicode="&#x2122;" horiz-adv-x="1706" 
d="M963 1458l151 -385l141 385h150v-538h-98v444l-166 -444h-56l-174 444v-444h-98v538h150zM694 1458v-80h-172v-458h-108v458h-172v80h452z" />
    <glyph glyph-name="acute" unicode="&#xb4;" horiz-adv-x="1024" 
d="M375 1055l209 348h178l-281 -348h-106z" />
    <glyph glyph-name="dieresis" unicode="&#xa8;" horiz-adv-x="1024" 
d="M604 1208q0 41 29.5 71t68.5 30q40 0 70.5 -30.5t30.5 -70.5q0 -42 -29 -71t-72 -29q-41 0 -69.5 29t-28.5 71zM223 1208q0 41 29.5 71t69.5 30q39 0 69.5 -30.5t30.5 -70.5q0 -42 -29 -71t-71 -29t-70.5 29t-28.5 71z" />
    <glyph glyph-name="notequal" unicode="&#x2260;" horiz-adv-x="1706" 
d="M1313 1112l-187 -235h326v-136h-416l-205 -262h621v-135h-709l-249 -317l-105 84l184 233h-319v135h408l204 262h-612v136h702l252 317z" />
    <glyph glyph-name="AE" unicode="&#xc6;" horiz-adv-x="1880" 
d="M905 0v403h-553l-268 -403h-217l928 1399h964v-180h-649v-422h629v-181h-629v-436h668v-180h-873zM905 1219h-10l-414 -627h424v627z" />
    <glyph glyph-name="Oslash" unicode="&#xd8;" horiz-adv-x="1640" 
d="M383 395l762 719q-68 58 -151 88.5t-175 30.5q-104 0 -201.5 -41t-175.5 -117q-74 -73 -114.5 -171.5t-40.5 -205.5q0 -89 23 -162t73 -141zM1247 1012l-762 -725q71 -61 153.5 -91t180.5 -30q227 0 381 156.5t154 390.5q0 87 -26 160.5t-81 138.5zM39 63l197 193
q-82 87 -122 196t-40 240q0 149 55.5 281.5t163.5 236.5q106 104 239.5 158.5t278.5 54.5q138 0 262 -43t221 -123l181 173l106 -105l-182 -174q86 -95 128 -204t42 -236q0 -153 -55.5 -285.5t-163.5 -239.5q-106 -104 -238 -157.5t-285 -53.5q-136 0 -257.5 42.5
t-231.5 127.5l-195 -186z" />
    <glyph glyph-name="infinity" unicode="&#x221e;" horiz-adv-x="1706" 
d="M915 559q49 -88 116 -133t151 -45q101 0 165 67.5t64 172.5q0 101 -59 168t-148 67q-82 0 -148.5 -67.5t-140.5 -229.5zM793 666q-49 88 -115.5 132t-151.5 44q-102 0 -165.5 -66t-63.5 -172q0 -101 59 -168t148 -67q82 0 149 68t140 229zM864 483
q-70 -135 -148.5 -198.5t-172.5 -63.5q-136 0 -229 111.5t-93 277.5q0 175 83.5 283t217.5 108q95 0 171.5 -63t148.5 -201q68 138 147 203.5t176 65.5q134 0 228 -112.5t94 -279.5q0 -175 -83.5 -282t-217.5 -107q-94 0 -168.5 59.5t-153.5 198.5z" />
    <glyph glyph-name="plusminus" unicode="&#xb1;" horiz-adv-x="1706" 
d="M1452 170v-141h-1198v141h1198zM924 1192v-340h528v-139h-528v-340h-142v340h-528v139h528v340h142z" />
    <glyph glyph-name="lessequal" unicode="&#x2264;" horiz-adv-x="1706" 
d="M1446 162v-139h-1184v139h1184zM1444 1059l-936 -309l936 -306v-149l-1182 395v121l1182 395v-147z" />
    <glyph glyph-name="greaterequal" unicode="&#x2265;" horiz-adv-x="1706" 
d="M1446 162v-139h-1184v139h1184zM1446 811v-121l-1184 -395v149l938 306l-938 309v147z" />
    <glyph glyph-name="yen" unicode="&#xa5;" horiz-adv-x="1159" 
d="M481 0v614h-434v109h418l-123 166h-295v108h215l-301 402h219l404 -547l407 547h226l-304 -400h199v-110h-283l-124 -166h407v-109h-436v-614h-195z" />
    <glyph glyph-name="mu" unicode="&#xb5;" horiz-adv-x="1151" 
d="M385 1071l-129 -600q-7 -32 -10.5 -64.5t-3.5 -68.5q0 -99 52 -153t148 -54q132 0 208.5 92.5t123.5 311.5l115 536h178l-156 -732q-1 -6 -4 -20q-18 -87 -18 -112q0 -37 16.5 -52.5t55.5 -15.5q12 0 18.5 0.5t13.5 1.5l-31 -143q-24 -5 -50 -7.5t-58 -2.5q-63 0 -97 29
t-52 100q-45 -66 -112.5 -98.5t-158.5 -32.5q-82 0 -143 27.5t-113 88.5l-110 -530h-181l318 1499h180z" />
    <glyph glyph-name="partialdiff" unicode="&#x2202;" horiz-adv-x="1059" 
d="M756 621q15 87 22.5 168.5t7.5 156.5q0 129 -36.5 194.5t-108.5 65.5q-55 0 -127 -58t-108 -58t-60 22t-24 53q0 62 72 111t173 49q180 0 287 -155t107 -418q0 -335 -144.5 -556t-357.5 -221q-152 0 -253.5 108t-101.5 271q0 198 110.5 326.5t272.5 128.5
q101 0 166 -45.5t103 -142.5zM707 494q0 116 -43.5 178.5t-122.5 62.5q-109 0 -179.5 -129t-70.5 -336q0 -116 43 -177.5t123 -61.5q109 0 179.5 130t70.5 333z" />
    <glyph glyph-name="summation" unicode="&#x2211;" horiz-adv-x="1380" 
d="M55 1473h1258v-193h-959l672 -717l-694 -764h1007v-192h-1314v149l725 801l-695 739v177z" />
    <glyph glyph-name="product" unicode="&#x220f;" horiz-adv-x="1550" 
d="M156 1473h1237v-1866h-240v1661h-758v-1661h-239v1866z" />
    <glyph glyph-name="integral" unicode="&#x222b;" horiz-adv-x="1067" 
d="M311 -262q106 0 120 688q2 108 3 165q12 515 107 737t297 222q80 0 130 -42t50 -107q0 -54 -32 -85.5t-87 -31.5q-42 0 -70 19t-40 54q-6 15 -10.5 51t-20.5 36q-107 0 -121 -619q-4 -193 -8 -303q-17 -479 -111.5 -686t-290.5 -207q-79 0 -129.5 41.5t-50.5 106.5
q0 56 34 87.5t95 31.5q33 0 57 -14.5t39 -42.5q10 -18 15 -59.5t24 -41.5z" />
    <glyph glyph-name="ordfeminine" unicode="&#xaa;" horiz-adv-x="666" 
d="M428 883v190q-140 -40 -193 -74.5t-53 -80.5q0 -40 27.5 -61t77.5 -21q38 0 73.5 11.5t67.5 35.5zM434 805q-52 -35 -99.5 -50.5t-101.5 -15.5q-92 0 -145 42.5t-53 115.5q0 68 57 119.5t172 87.5l164 51q1 5 1.5 11.5t0.5 17.5q0 57 -30.5 82.5t-100.5 25.5
q-57 0 -119 -23t-123 -67v127q53 41 119 61.5t141 20.5q133 0 193.5 -55t60.5 -176v-275q0 -34 7 -48.5t22 -14.5q14 0 28.5 7t43.5 30v-80q-40 -30 -78.5 -45t-77.5 -15t-59 16.5t-23 49.5z" />
    <glyph glyph-name="ordmasculine" unicode="&#xba;" horiz-adv-x="821" 
d="M188 1075q0 -90 64.5 -153.5t157.5 -63.5q92 0 157.5 64t65.5 153t-65.5 153t-157.5 64t-157 -63.5t-65 -153.5zM43 1075q0 141 107 239.5t262 98.5q72 0 138 -25.5t120 -74.5q53 -49 80.5 -109.5t27.5 -128.5q0 -67 -28.5 -129.5t-79.5 -109.5q-52 -47 -118 -72
t-140 -25q-154 0 -261.5 98t-107.5 238z" />
    <glyph glyph-name="ae" unicode="&#xe6;" horiz-adv-x="1528" 
d="M688 137q-109 -83 -199 -121.5t-176 -38.5q-119 0 -191.5 64t-72.5 168q0 136 127 222.5t395 131.5q1 8 1.5 18t0.5 27q0 86 -38.5 125t-124.5 39q-85 0 -168 -32t-166 -97v182q72 58 166 89.5t196 31.5q92 0 161 -31t120 -94q66 67 140.5 96t176.5 29q200 0 317 -131
t117 -356v-27h-692q8 -131 87 -205.5t210 -74.5q85 0 175.5 31t203.5 102v-187q-94 -61 -191.5 -91t-203.5 -30q-116 0 -205 38.5t-166 121.5zM571 188v254q-166 -28 -246.5 -78.5t-80.5 -125.5q0 -57 36.5 -88t102.5 -31q49 0 96 17.5t92 51.5zM778 565h491q-9 101 -74 162
t-161 61q-105 0 -170.5 -56.5t-85.5 -166.5z" />
    <glyph glyph-name="oslash" unicode="&#xf8;" horiz-adv-x="1096" 
d="M160 166q-51 65 -77 139.5t-26 157.5q0 203 142 341t352 138q89 0 167 -26.5t132 -73.5l115 110l90 -94l-115 -113q51 -64 74.5 -130t23.5 -142q0 -211 -144 -351t-362 -140q-80 0 -147 22.5t-129 71.5l-123 -119l-92 98zM297 297l426 410q-35 33 -78.5 49t-97.5 16
q-122 0 -210.5 -93t-88.5 -218q0 -49 12 -88.5t37 -75.5zM801 614l-420 -403q38 -30 77 -44.5t83 -14.5q128 0 218.5 95.5t90.5 227.5q0 38 -12 72.5t-37 66.5z" />
    <glyph glyph-name="questiondown" unicode="&#xbf;" horiz-adv-x="641" 
d="M553 35q-51 -28 -104.5 -41.5t-110.5 -13.5q-132 0 -217.5 87t-85.5 222q0 81 29.5 154t105.5 169q22 28 64 78q124 148 124 225q0 16 -3 31.5t-9 32.5l47 20q41 -42 61.5 -88.5t20.5 -97.5q0 -49 -17.5 -98.5t-60.5 -118.5q-13 -22 -40 -62q-99 -149 -99 -225
q0 -59 36 -95t95 -36q40 0 89 18t114 56zM231 1298q0 52 36.5 87.5t88.5 35.5q53 0 89 -35.5t36 -87.5t-36 -88t-89 -36q-52 0 -88.5 36t-36.5 88z" />
    <glyph glyph-name="exclamdown" unicode="&#xa1;" horiz-adv-x="516" 
d="M131 1294q0 54 36 90.5t89 36.5q54 0 90.5 -36.5t36.5 -90.5q0 -52 -37 -88.5t-90 -36.5q-54 0 -89.5 36t-35.5 89zM242 969h26q49 -165 76 -359.5t27 -390.5q0 -123 -28.5 -180t-88.5 -57t-87.5 59.5t-27.5 189.5q0 221 30 426.5t73 311.5z" />
    <glyph glyph-name="logicalnot" unicode="&#xac;" horiz-adv-x="1706" 
d="M1452 860v-502h-137v363h-1061v139h1198z" />
    <glyph glyph-name="radical" unicode="&#x221a;" horiz-adv-x="1305" 
d="M1116 1661h189v-96h-115l-594 -1606h-66l-319 883l-125 -45l-25 80l283 98l256 -709z" />
    <glyph glyph-name="florin" unicode="&#x192;" horiz-adv-x="1034" 
d="M-2 -393l33 186q29 -9 46.5 -12.5t31.5 -3.5q77 0 116.5 59t65.5 230l100 669h-170l27 170h168l24 158q29 182 110.5 269t223.5 87q26 0 57.5 -6t75.5 -20l-28 -193q-22 10 -43.5 15.5t-42.5 5.5q-71 0 -105.5 -43t-54.5 -168l-17 -105h183l-27 -178h-182l-109 -735
q-34 -237 -111.5 -324.5t-236.5 -87.5q-36 0 -69.5 6.5t-65.5 20.5z" />
    <glyph glyph-name="approxequal" unicode="&#x2248;" horiz-adv-x="1706" 
d="M1530 430q-105 -73 -199.5 -107t-189.5 -34t-285 67.5t-293 67.5q-82 0 -171.5 -36t-213.5 -122v156q108 73 204 109t183 36q115 0 305 -68.5t273 -68.5q88 0 177 35.5t210 120.5v-156zM1530 799q-105 -73 -199.5 -107.5t-189.5 -34.5t-285 68t-293 68q-83 0 -171.5 -36
t-213.5 -122v156q106 72 202 107.5t185 35.5q116 0 305.5 -67.5t272.5 -67.5q87 0 175 34.5t212 120.5v-155z" />
    <glyph glyph-name="Delta" unicode="&#x2206;" horiz-adv-x="1370" 
d="M684 1262l-418 -1084h836zM573 1473h224l579 -1473h-1382z" />
    <glyph glyph-name="guillemotleft" unicode="&#xab;" horiz-adv-x="870" 
d="M649 780h158l-236 -317l236 -301h-158l-241 301zM303 780h158l-236 -317l236 -301h-158l-240 301z" />
    <glyph glyph-name="guillemotright" unicode="&#xbb;" horiz-adv-x="870" 
d="M219 780l242 -317l-242 -301h-156l234 301l-234 317h156zM565 780l240 -317l-240 -301h-157l235 301l-235 317h157z" />
    <glyph glyph-name="ellipsis" unicode="&#x2026;" horiz-adv-x="2048" 
d="M221 104q0 51 35 86t86 35t86 -35t35 -86q0 -50 -35 -85t-86 -35t-86 35t-35 85zM903 104q0 51 35 86t86 35t86 -35t35 -86q0 -50 -35 -85t-86 -35t-86 35t-35 85zM1587 104q0 51 35 86t86 35t86 -35t35 -86q0 -50 -35 -85t-86 -35t-86 35t-35 85z" />
    <glyph glyph-name="nonbreakingspace" unicode="&#xa0;" horiz-adv-x="1034" 
 />
    <glyph glyph-name="Agrave" unicode="&#xc0;" horiz-adv-x="1276" 
d="M416 592h436l-221 504zM-45 0l606 1399h146l614 -1399h-207l-180 412h-596l-178 -412h-205zM776 1534h-106l-281 348h178z" />
    <glyph glyph-name="Atilde" unicode="&#xc3;" horiz-adv-x="1276" 
d="M416 592h436l-221 504zM-45 0l606 1399h146l614 -1399h-207l-180 412h-596l-178 -412h-205zM930 1802q-24 -93 -75.5 -143t-123.5 -50q-17 1 -32 3t-34 8l-79 26q-12 4 -25.5 6.5t-27.5 2.5q-35 0 -58.5 -15.5t-38.5 -48.5h-88q22 91 72.5 138.5t126.5 47.5q17 0 32 -2
t27 -6l79 -29q15 -4 31.5 -7t28.5 -3q36 0 60 18.5t37 53.5h88z" />
    <glyph glyph-name="Otilde" unicode="&#xd5;" horiz-adv-x="1640" 
d="M287 698q0 -107 40 -204t115 -172q73 -75 171.5 -115.5t205.5 -40.5q110 0 206.5 39.5t172.5 116.5q75 75 115.5 172t40.5 204t-40 202.5t-118 174.5q-75 77 -172 117.5t-205 40.5q-104 0 -201.5 -41t-175.5 -117q-75 -73 -115 -171t-40 -206zM74 705q0 140 57 272
t162 233q107 103 242 157t284 54q152 0 288.5 -54.5t240.5 -156.5q109 -106 164 -236t55 -282q0 -143 -56.5 -274.5t-160.5 -231.5q-109 -104 -243.5 -157.5t-287.5 -53.5q-149 0 -285.5 55t-240.5 156q-108 105 -163.5 237t-55.5 282zM1112 1802q-24 -93 -75.5 -143
t-123.5 -50q-17 1 -32 3t-34 8l-79 26q-12 4 -25.5 6.5t-27.5 2.5q-35 0 -58.5 -15.5t-38.5 -48.5h-88q22 91 72.5 138.5t126.5 47.5q17 0 32 -2t27 -6l79 -29q15 -4 31.5 -7t28.5 -3q36 0 60 18.5t37 53.5h88z" />
    <glyph glyph-name="OE" unicode="&#x152;" horiz-adv-x="2017" 
d="M1053 180v1043h-88q-166 0 -262 -16.5t-162 -53.5q-111 -63 -172.5 -180.5t-61.5 -270.5q0 -152 61.5 -271t172.5 -181q66 -37 162 -53.5t262 -16.5h88zM1004 0h-72q-220 0 -327.5 22.5t-194.5 73.5q-150 89 -231 245t-81 357q0 202 81 358.5t231 246.5q86 51 193 73.5
t327 22.5h74h890v-178h-645v-424h627v-181h-627v-436h666v-180h-911z" />
    <glyph glyph-name="oe" unicode="&#x153;" horiz-adv-x="1788" 
d="M250 463q0 -129 86.5 -219t210.5 -90q123 0 210 90.5t87 218.5q0 127 -87 216t-210 89q-124 0 -210.5 -89t-86.5 -216zM1714 98q-88 -58 -186.5 -87t-208.5 -29q-129 0 -220 44t-165 142q-85 -96 -178.5 -141t-204.5 -45q-208 0 -351 139.5t-143 341.5q0 201 144 341
t352 140q119 0 214.5 -46t162.5 -136q65 94 153.5 138t212.5 44q203 0 319 -129.5t116 -359.5v-23h-693q8 -131 87 -204.5t210 -73.5q87 0 180.5 32t198.5 99v-187zM1038 565l492 1q-9 99 -74 160.5t-162 61.5q-105 0 -170.5 -56.5t-85.5 -166.5z" />
    <glyph glyph-name="endash" unicode="&#x2013;" horiz-adv-x="1024" 
d="M1024 524v-123h-1024v123h1024z" />
    <glyph glyph-name="emdash" unicode="&#x2014;" horiz-adv-x="2048" 
d="M0 401v123h2048v-123h-2048z" />
    <glyph glyph-name="quotedblleft" unicode="&#x201c;" horiz-adv-x="881" 
d="M674 1171q45 -23 66.5 -53t21.5 -69q0 -51 -32.5 -85t-80.5 -34q-61 0 -99 51.5t-38 136.5q0 108 62 186.5t178 116.5l2 -37q-40 -33 -60 -79.5t-20 -106.5v-27zM279 1171q45 -23 66.5 -53t21.5 -69q0 -51 -32.5 -85t-80.5 -34q-61 0 -99 51.5t-38 136.5q0 108 62 186.5
t177 116.5l2 -37q-40 -33 -59.5 -79.5t-19.5 -106.5v-27z" />
    <glyph glyph-name="quotedblright" unicode="&#x201d;" horiz-adv-x="881" 
d="M600 1178q-44 23 -66 53.5t-22 71.5q0 50 33.5 84t81.5 34q60 0 97.5 -52t37.5 -138q0 -107 -62 -185t-178 -116l-2 37q41 34 60.5 79.5t19.5 104.5v27zM205 1178q-45 23 -66.5 53.5t-21.5 71.5q0 50 32.5 84t79.5 34q61 0 99.5 -52.5t38.5 -137.5q0 -107 -62 -185
t-178 -116l-2 37q40 34 60 79.5t20 104.5v27z" />
    <glyph glyph-name="quoteleft" unicode="&#x2018;" horiz-adv-x="483" 
d="M279 1174q44 -23 66 -54t22 -71q0 -51 -32.5 -85t-80.5 -34q-61 0 -99 52.5t-38 137.5q0 107 62 185t177 116l2 -37q-40 -34 -59.5 -79.5t-19.5 -104.5v-26z" />
    <glyph glyph-name="quoteright" unicode="&#x2019;" horiz-adv-x="483" 
d="M205 1180q-45 23 -66.5 54t-21.5 71q0 50 32.5 84t79.5 34q61 0 99.5 -52t38.5 -138q0 -108 -62.5 -186.5t-177.5 -116.5l-2 37q40 34 60 80t20 106v27z" />
    <glyph glyph-name="divide" unicode="&#xf7;" horiz-adv-x="1706" 
d="M854 367q51 0 88 -37t37 -88q0 -52 -36.5 -88.5t-88.5 -36.5q-53 0 -89 36t-36 89q0 51 37 88t88 37zM1452 680v-139h-1198v139h1198zM854 1106q51 0 88 -37.5t37 -89.5q0 -51 -36.5 -88t-88.5 -37t-88.5 36.5t-36.5 88.5t37 89.5t88 37.5z" />
    <glyph glyph-name="lozenge" unicode="&#x25ca;" horiz-adv-x="1012" 
d="M506 1409l-385 -817l385 -825l385 825zM506 1653l500 -1061l-500 -1069l-500 1069z" />
    <glyph glyph-name="ydieresis" unicode="&#xff;" horiz-adv-x="909" 
d="M360 182l-389 742h205l285 -541l266 541h201l-686 -1389h-201zM547 1208q0 41 29.5 71t68.5 30q40 0 70.5 -30.5t30.5 -70.5q0 -42 -29 -71t-72 -29q-41 0 -69.5 29t-28.5 71zM166 1208q0 41 29.5 71t69.5 30q39 0 69.5 -30.5t30.5 -70.5q0 -42 -29 -71t-71 -29t-70.5 29
t-28.5 71z" />
    <glyph glyph-name="Ydieresis" unicode="&#x178;" horiz-adv-x="1194" 
d="M485 0v700l-540 699h237l408 -531l418 531h241l-561 -709v-690h-203zM690 1687q0 41 29.5 71t68.5 30q40 0 70.5 -30.5t30.5 -70.5q0 -42 -29 -71t-72 -29q-41 0 -69.5 29t-28.5 71zM309 1687q0 41 29.5 71t69.5 30q39 0 69.5 -30.5t30.5 -70.5q0 -42 -29 -71t-71 -29
t-70.5 29t-28.5 71z" />
    <glyph glyph-name="fraction" unicode="&#x2215;" horiz-adv-x="350" 
d="M-190 -25h-152l872 1446h152z" />
    <glyph glyph-name="currency" unicode="&#xa4;" horiz-adv-x="1034" 
d="M987 74q-59 -46 -151.5 -72.5t-184.5 -26.5q-182 0 -311 145.5t-164 391.5h-166l37 111h117q-1 12 -1.5 27.5t-0.5 47.5q0 16 1 45t1 43h-154l37 111h131q38 240 175 382t331 142q86 0 164 -20t131 -55v-218q-54 49 -135 79t-162 30q-119 0 -198 -88t-107 -252h538
l-36 -111h-514q-2 -15 -2.5 -33t-0.5 -55q0 -32 0.5 -47t2.5 -28h460l-37 -111h-413q27 -172 102 -259t197 -87q91 0 166.5 32.5t146.5 100.5v-225z" />
    <glyph glyph-name="guilsinglleft" unicode="&#x2039;" horiz-adv-x="526" 
d="M303 162l-240 317l240 301h158l-234 -301l234 -317h-158z" />
    <glyph glyph-name="guilsinglright" unicode="&#x203a;" horiz-adv-x="526" 
d="M221 162h-158l234 317l-234 301h158l240 -301z" />
    <glyph glyph-name="fi" unicode="&#xf001;" horiz-adv-x="975" 
d="M344 0h-190v764h-121v160h121v110q0 184 93 281.5t269 97.5q158 0 249.5 -87.5t92.5 -239.5l-186 -1q-6 78 -47 120t-109 42q-90 0 -131 -56.5t-41 -182.5v-84h123v-160h-123v-764zM674 0v924h184v-924h-184z" />
    <glyph glyph-name="fi" unicode="&#xfb01;" horiz-adv-x="975" 
d="M344 0h-190v764h-121v160h121v110q0 184 93 281.5t269 97.5q158 0 249.5 -87.5t92.5 -239.5l-186 -1q-6 78 -47 120t-109 42q-90 0 -131 -56.5t-41 -182.5v-84h123v-160h-123v-764zM674 0v924h184v-924h-184z" />
    <glyph glyph-name="fl" unicode="&#xf002;" horiz-adv-x="975" 
d="M674 0v1399h184v-1399h-184zM346 0h-190v764h-121v160h121v84q0 120 10 174t35 94q40 65 109.5 101t156.5 36q28 0 64 -5.5t85 -16.5v-162q-38 8 -66.5 12t-49.5 4q-84 0 -119 -46.5t-35 -162.5v-112h123v-160h-123v-764z" />
    <glyph glyph-name="fl" unicode="&#xfb02;" horiz-adv-x="975" 
d="M674 0v1399h184v-1399h-184zM346 0h-190v764h-121v160h121v84q0 120 10 174t35 94q40 65 109.5 101t156.5 36q28 0 64 -5.5t85 -16.5v-162q-38 8 -66.5 12t-49.5 4q-84 0 -119 -46.5t-35 -162.5v-112h123v-160h-123v-764z" />
    <glyph glyph-name="daggerdbl" unicode="&#x2021;" horiz-adv-x="1034" 
d="M455 858l-385 -41v203l385 -39l-41 418h204l-40 -418l385 39v-203l-385 41l40 -252l-40 -250l385 41v-204l-385 40l40 -417h-204l41 417l-385 -40v204l385 -41l-41 250z" />
    <glyph glyph-name="periodcentered" unicode="&#xb7;" horiz-adv-x="516" 
d="M139 707q0 50 35 85t86 35t86 -35t35 -85q0 -51 -35 -86t-86 -35t-86 35t-35 86z" />
    <glyph glyph-name="quotesinglbase" unicode="&#x201a;" horiz-adv-x="483" 
d="M205 -20q-45 22 -66.5 53t-21.5 71q0 51 32.5 85t79.5 34q61 0 99.5 -52.5t38.5 -137.5q0 -108 -62.5 -186.5t-177.5 -116.5l-2 37q40 33 60 79.5t20 106.5v27z" />
    <glyph glyph-name="quotedblbase" unicode="&#x201e;" horiz-adv-x="881" 
d="M600 -20q-44 22 -66 53t-22 71q0 51 33.5 85t81.5 34q60 0 97.5 -52t37.5 -138q0 -108 -62.5 -186.5t-177.5 -116.5l-2 37q40 33 60 79.5t20 106.5v27zM205 -20q-45 22 -66.5 53t-21.5 71q0 51 32.5 85t79.5 34q61 0 99.5 -52.5t38.5 -137.5q0 -108 -62.5 -186.5
t-177.5 -116.5l-2 37q40 33 60 79.5t20 106.5v27z" />
    <glyph glyph-name="perthousand" unicode="&#x2030;" horiz-adv-x="2896" 
d="M2189 391q0 -98 67.5 -165.5t166.5 -67.5q97 0 165 67.5t68 165.5t-68 167t-165 69q-98 0 -166 -68.5t-68 -167.5zM2005 391q0 175 121.5 296.5t296.5 121.5q174 0 296 -121.5t122 -296.5q0 -173 -122 -294.5t-296 -121.5q-175 0 -296.5 121t-121.5 295zM1253 391
q0 -98 68.5 -165.5t167.5 -67.5q97 0 165 67.5t68 165.5t-68 167t-165 69q-98 0 -167 -69t-69 -167zM1071 391q0 175 121.5 296.5t296.5 121.5q174 0 295 -121.5t121 -296.5q0 -173 -121.5 -294.5t-294.5 -121.5q-175 0 -296.5 121t-121.5 295zM426 -25l944 1448h168
l-948 -1448h-164zM240 1006q0 -99 67.5 -167.5t165.5 -68.5q97 0 165.5 68.5t68.5 167.5q0 97 -68.5 165t-165.5 68q-98 0 -165.5 -67.5t-67.5 -165.5zM57 1004q0 175 120.5 296t295.5 121q174 0 296 -121.5t122 -295.5t-122 -295t-296 -121t-295 120.5t-121 295.5z" />
    <glyph glyph-name="Acircumflex" unicode="&#xc2;" horiz-adv-x="1276" 
d="M416 592h436l-221 504zM-45 0l606 1399h146l614 -1399h-207l-180 412h-596l-178 -412h-205zM352 1534l197 348h178l197 -348h-107l-178 241l-180 -241h-107z" />
    <glyph glyph-name="Ecircumflex" unicode="&#xca;" horiz-adv-x="1114" 
d="M150 0v1399h841v-178h-643v-424h625v-181h-625v-436h664v-180h-862zM282 1534l197 348h178l197 -348h-107l-178 241l-180 -241h-107z" />
    <glyph glyph-name="Aacute" unicode="&#xc1;" horiz-adv-x="1276" 
d="M416 592h436l-221 504zM-45 0l606 1399h146l614 -1399h-207l-180 412h-596l-178 -412h-205zM502 1534l209 348h178l-281 -348h-106z" />
    <glyph glyph-name="Edieresis" unicode="&#xcb;" horiz-adv-x="1114" 
d="M150 0v1399h841v-178h-643v-424h625v-181h-625v-436h664v-180h-862zM661 1687q0 41 29.5 71t68.5 30q40 0 70.5 -30.5t30.5 -70.5q0 -42 -29 -71t-72 -29q-41 0 -69.5 29t-28.5 71zM280 1687q0 41 29.5 71t69.5 30q39 0 69.5 -30.5t30.5 -70.5q0 -42 -29 -71t-71 -29
t-70.5 29t-28.5 71z" />
    <glyph glyph-name="Egrave" unicode="&#xc8;" horiz-adv-x="1114" 
d="M150 0v1399h841v-178h-643v-424h625v-181h-625v-436h664v-180h-862zM706 1534h-106l-281 348h178z" />
    <glyph glyph-name="Iacute" unicode="&#xcd;" horiz-adv-x="512" 
d="M156 0v1399h200v-1399h-200zM119 1534l209 348h178l-281 -348h-106z" />
    <glyph glyph-name="Icircumflex" unicode="&#xce;" horiz-adv-x="512" 
d="M156 0v1399h200v-1399h-200zM-31 1534l197 348h178l197 -348h-107l-178 241l-180 -241h-107z" />
    <glyph glyph-name="Idieresis" unicode="&#xcf;" horiz-adv-x="512" 
d="M156 0v1399h200v-1399h-200zM348 1687q0 41 29.5 71t68.5 30q40 0 70.5 -30.5t30.5 -70.5q0 -42 -29 -71t-72 -29q-41 0 -69.5 29t-28.5 71zM-33 1687q0 41 29.5 71t69.5 30q39 0 69.5 -30.5t30.5 -70.5q0 -42 -29 -71t-71 -29t-70.5 29t-28.5 71z" />
    <glyph glyph-name="Igrave" unicode="&#xcc;" horiz-adv-x="512" 
d="M156 0v1399h200v-1399h-200zM393 1534h-106l-281 348h178z" />
    <glyph glyph-name="Oacute" unicode="&#xd3;" horiz-adv-x="1640" 
d="M287 698q0 -107 40 -204t115 -172q73 -75 171.5 -115.5t205.5 -40.5q110 0 206.5 39.5t172.5 116.5q75 75 115.5 172t40.5 204t-40 202.5t-118 174.5q-75 77 -172 117.5t-205 40.5q-104 0 -201.5 -41t-175.5 -117q-75 -73 -115 -171t-40 -206zM74 705q0 140 57 272
t162 233q107 103 242 157t284 54q152 0 288.5 -54.5t240.5 -156.5q109 -106 164 -236t55 -282q0 -143 -56.5 -274.5t-160.5 -231.5q-109 -104 -243.5 -157.5t-287.5 -53.5q-149 0 -285.5 55t-240.5 156q-108 105 -163.5 237t-55.5 282zM684 1534l209 348h178l-281 -348h-106
z" />
    <glyph glyph-name="Ocircumflex" unicode="&#xd4;" horiz-adv-x="1640" 
d="M287 698q0 -107 40 -204t115 -172q73 -75 171.5 -115.5t205.5 -40.5q110 0 206.5 39.5t172.5 116.5q75 75 115.5 172t40.5 204t-40 202.5t-118 174.5q-75 77 -172 117.5t-205 40.5q-104 0 -201.5 -41t-175.5 -117q-75 -73 -115 -171t-40 -206zM74 705q0 140 57 272
t162 233q107 103 242 157t284 54q152 0 288.5 -54.5t240.5 -156.5q109 -106 164 -236t55 -282q0 -143 -56.5 -274.5t-160.5 -231.5q-109 -104 -243.5 -157.5t-287.5 -53.5q-149 0 -285.5 55t-240.5 156q-108 105 -163.5 237t-55.5 282zM534 1534l197 348h178l197 -348h-107
l-178 241l-180 -241h-107z" />
    <glyph glyph-name="apple" unicode="&#xf000;" horiz-adv-x="1618" 
d="M836 1216q-1 6 -1.5 14t-0.5 23q0 124 95 229.5t236 131.5q1 -10 1.5 -23t0.5 -39q0 -131 -103.5 -234.5t-203.5 -103.5h-8q-3 0 -7.5 1t-8.5 1zM1505 403q-114 -247 -205 -342.5t-204 -95.5q-50 0 -131.5 33t-122.5 33q-45 0 -131 -33t-127 -33q-64 0 -128.5 44
t-129.5 132q-102 140 -157.5 295.5t-55.5 300.5q0 219 125 356.5t323 137.5q68 0 155 -34t124 -34q34 0 121.5 35t152.5 35q110 0 198 -40t161 -124q-102 -65 -151.5 -145.5t-49.5 -182.5q0 -113 60 -200t173 -138z" />
    <glyph glyph-name="Ograve" unicode="&#xd2;" horiz-adv-x="1640" 
d="M287 698q0 -107 40 -204t115 -172q73 -75 171.5 -115.5t205.5 -40.5q110 0 206.5 39.5t172.5 116.5q75 75 115.5 172t40.5 204t-40 202.5t-118 174.5q-75 77 -172 117.5t-205 40.5q-104 0 -201.5 -41t-175.5 -117q-75 -73 -115 -171t-40 -206zM74 705q0 140 57 272
t162 233q107 103 242 157t284 54q152 0 288.5 -54.5t240.5 -156.5q109 -106 164 -236t55 -282q0 -143 -56.5 -274.5t-160.5 -231.5q-109 -104 -243.5 -157.5t-287.5 -53.5q-149 0 -285.5 55t-240.5 156q-108 105 -163.5 237t-55.5 282zM958 1534h-106l-281 348h178z" />
    <glyph glyph-name="Uacute" unicode="&#xda;" horiz-adv-x="1489" 
d="M141 1399h199v-803q0 -134 14.5 -190t48.5 -97q62 -73 147 -109t193 -36q182 0 293 94t111 248v893h199v-899q0 -234 -167 -379.5t-436 -145.5q-159 0 -287 56.5t-216 165.5q-54 65 -76.5 145t-22.5 246v811zM608 1534l209 348h178l-281 -348h-106z" />
    <glyph glyph-name="Ucircumflex" unicode="&#xdb;" horiz-adv-x="1489" 
d="M141 1399h199v-803q0 -134 14.5 -190t48.5 -97q62 -73 147 -109t193 -36q182 0 293 94t111 248v893h199v-899q0 -234 -167 -379.5t-436 -145.5q-159 0 -287 56.5t-216 165.5q-54 65 -76.5 145t-22.5 246v811zM458 1534l197 348h178l197 -348h-107l-178 241l-180 -241
h-107z" />
    <glyph glyph-name="Ugrave" unicode="&#xd9;" horiz-adv-x="1489" 
d="M141 1399h199v-803q0 -134 14.5 -190t48.5 -97q62 -73 147 -109t193 -36q182 0 293 94t111 248v893h199v-899q0 -234 -167 -379.5t-436 -145.5q-159 0 -287 56.5t-216 165.5q-54 65 -76.5 145t-22.5 246v811zM882 1534h-106l-281 348h178z" />
    <glyph glyph-name="dotlessi" unicode="&#x131;" horiz-adv-x="432" 
d="M123 0v924h184v-924h-184z" />
    <glyph glyph-name="circumflex" unicode="&#x2c6;" horiz-adv-x="1024" 
d="M225 1055l197 348h178l197 -348h-107l-178 241l-180 -241h-107z" />
    <glyph glyph-name="tilde" unicode="&#x2dc;" horiz-adv-x="1024" 
d="M803 1323q-24 -93 -75.5 -143t-123.5 -50q-17 1 -32 3t-34 8l-79 26q-12 4 -25.5 6.5t-27.5 2.5q-35 0 -58.5 -15.5t-38.5 -48.5h-88q22 91 72.5 138.5t126.5 47.5q17 0 32 -2t27 -6l79 -29q15 -4 31.5 -7t28.5 -3q36 0 60 18.5t37 53.5h88z" />
    <glyph glyph-name="macron" unicode="&#xaf;" horiz-adv-x="1024" 
d="M254 1149v125h516v-125h-516z" />
    <glyph glyph-name="breve" unicode="&#x2d8;" horiz-adv-x="1024" 
d="M230 1364h89q7 -76 52.5 -110.5t140.5 -34.5t140.5 34.5t52.5 110.5h90q-11 -141 -79 -206.5t-204 -65.5t-204.5 66t-77.5 206z" />
    <glyph glyph-name="dotaccent" unicode="&#x2d9;" horiz-adv-x="1024" 
d="M403 1208q0 45 33 78t76 33q45 0 78 -33t33 -78t-32.5 -76.5t-78.5 -31.5t-77.5 31t-31.5 77z" />
    <glyph glyph-name="ring" unicode="&#x2da;" horiz-adv-x="1024" 
d="M371 1282q0 -60 40.5 -101.5t100.5 -41.5t101.5 41.5t41.5 101.5t-41.5 101.5t-101.5 41.5q-61 0 -101 -41t-40 -102zM264 1284q0 104 71.5 175t176.5 71t176.5 -71t71.5 -175t-72 -176t-176 -72t-176 72t-72 176z" />
    <glyph glyph-name="cedilla" unicode="&#xb8;" horiz-adv-x="1024" 
d="M262 -424v88q79 -18 141.5 -27.5t106.5 -9.5q60 0 90.5 21.5t30.5 62.5q0 52 -33 75.5t-106 23.5q-21 0 -31 -0.5t-21 -1.5v192h72v-106h23q111 0 169 -45t58 -132q0 -89 -64 -135.5t-186 -46.5q-47 0 -108 10t-142 31z" />
    <glyph glyph-name="hungarumlaut" unicode="&#x2dd;" horiz-adv-x="1024" 
d="M580 1055l168 348h155l-239 -348h-84zM322 1055l147 348h158l-221 -348h-84z" />
    <glyph glyph-name="ogonek" unicode="&#x2db;" horiz-adv-x="1024" 
d="M602 0q-70 -64 -103.5 -118.5t-33.5 -104.5q0 -44 22.5 -63t75.5 -19h80v-129h-80q-113 0 -167 40t-54 124q0 65 41 125t147 145h72z" />
    <glyph glyph-name="caron" unicode="&#x2c7;" horiz-adv-x="1024" 
d="M225 1403h107l180 -244l178 244h107l-197 -348h-178z" />
    <glyph glyph-name="Lslash" unicode="&#x141;" horiz-adv-x="1049" 
d="M170 0v535l-170 -117v184l170 117v680h199v-576l327 221v-184l-327 -221v-459h665v-180h-864z" />
    <glyph glyph-name="lslash" unicode="&#x142;" horiz-adv-x="461" 
d="M137 0v592l-139 -98v145l139 98v662h185v-572l141 99v-146l-141 -98v-682h-185z" />
    <glyph glyph-name="Scaron" unicode="&#x160;" horiz-adv-x="944" 
d="M78 109v264q95 -109 181.5 -157t184.5 -48q104 0 164 48.5t60 131.5q0 68 -40.5 119.5t-193.5 148.5q-237 153 -297.5 237t-60.5 200q0 163 115.5 267.5t297.5 104.5q81 0 159.5 -23.5t158.5 -72.5v-227q-92 74 -170 107.5t-156 33.5q-94 0 -153.5 -46.5t-59.5 -119.5
q0 -104 247 -258l30 -18q201 -125 263 -220.5t62 -236.5q0 -160 -116 -264.5t-297 -104.5q-113 0 -204 32t-175 102zM186 1882h107l180 -244l178 244h107l-197 -348h-178z" />
    <glyph glyph-name="scaron" unicode="&#x161;" horiz-adv-x="770" 
d="M57 63v197q83 -55 160 -84t141 -29q71 0 111.5 26.5t40.5 72.5q0 58 -151 133q-44 22 -68 35q-129 66 -177 127.5t-48 150.5q0 116 83 184t228 68q78 0 150 -18.5t141 -57.5v-180q-85 47 -155.5 69.5t-133.5 22.5q-58 0 -89.5 -20t-31.5 -58q0 -70 193 -165l17 -8
q151 -76 197 -133.5t46 -145.5q0 -122 -91.5 -195t-242.5 -73q-87 0 -165.5 20t-154.5 61zM98 1403h107l180 -244l178 244h107l-197 -348h-178z" />
    <glyph glyph-name="Zcaron" unicode="&#x17d;" horiz-adv-x="1305" 
d="M14 0l920 1223h-854v176h1200v-23l-903 -1204h903v-172h-1266zM366 1882h107l180 -244l178 244h107l-197 -348h-178z" />
    <glyph glyph-name="zcaron" unicode="&#x17e;" horiz-adv-x="903" 
d="M18 0v25l517 729h-496v170h817v-21l-506 -729h514v-174h-846zM166 1403h107l180 -244l178 244h107l-197 -348h-178z" />
    <glyph glyph-name="brokenbar" unicode="&#xa6;" horiz-adv-x="1024" 
d="M588 408v-758h-150v758h150zM588 1432v-758h-150v758h150z" />
    <glyph glyph-name="Eth" unicode="&#xd0;" horiz-adv-x="1532" 
d="M678 1208h-316v-426h365v-159h-365v-433h316q259 0 407 136t148 372q0 237 -148 373.5t-407 136.5zM678 1399q155 0 267 -29t204 -92q142 -96 219.5 -246.5t77.5 -331.5q0 -179 -78.5 -331t-220.5 -248q-91 -63 -203 -92t-266 -29h-514v623h-164v159h164v617h514z" />
    <glyph glyph-name="eth" unicode="&#xf0;" horiz-adv-x="1096" 
d="M250 440q0 -118 86.5 -201t210.5 -83t210.5 83t86.5 201t-87 201.5t-210 83.5t-210 -84t-87 -201zM854 764q-14 95 -48.5 179t-88.5 157l-316 -92l-39 112l267 78q-39 37 -79 70.5t-81 62.5l111 90q61 -31 118 -73.5t111 -96.5l231 64l45 -111l-194 -55
q82 -123 122 -263.5t40 -305.5q0 -279 -134.5 -436.5t-369.5 -157.5q-207 0 -349.5 132.5t-142.5 323.5t143 324t349 133q87 0 164.5 -34.5t140.5 -100.5z" />
    <glyph glyph-name="Yacute" unicode="&#xdd;" horiz-adv-x="1194" 
d="M485 0v700l-540 699h237l408 -531l418 531h241l-561 -709v-690h-203zM461 1534l209 348h178l-281 -348h-106z" />
    <glyph glyph-name="yacute" unicode="&#xfd;" horiz-adv-x="909" 
d="M360 182l-389 742h205l285 -541l266 541h201l-686 -1389h-201zM318 1055l209 348h178l-281 -348h-106z" />
    <glyph glyph-name="Thorn" unicode="&#xde;" horiz-adv-x="1110" 
d="M348 489h217q146 0 211.5 52.5t65.5 167.5q0 114 -66 166.5t-211 52.5h-217v-439zM150 0v1399h198v-291h238q219 0 342 -106t123 -293q0 -188 -123 -293t-342 -105h-238v-311h-198z" />
    <glyph glyph-name="thorn" unicode="&#xfe;" horiz-adv-x="1059" 
d="M307 721v-518q45 -33 91.5 -48.5t99.5 -15.5q141 0 222 86.5t81 237.5q0 150 -81 235.5t-222 85.5q-53 0 -99.5 -15t-91.5 -48zM121 -465v1864h186v-527q52 37 110 54.5t128 17.5q200 0 326 -134t126 -347t-126 -347t-326 -134q-72 0 -129.5 16.5t-108.5 52.5v-516h-186z
" />
    <glyph glyph-name="minus" unicode="&#x2212;" horiz-adv-x="1706" 
d="M1452 682v-141h-1198v141h1198z" />
    <glyph glyph-name="multiply" unicode="&#xd7;" horiz-adv-x="1706" 
d="M860 709l469 469l98 -99l-469 -469l469 -469l-98 -96l-469 467l-469 -467l-98 96l469 469l-469 469l98 99z" />
    <glyph glyph-name="onesuperior" unicode="&#xb9;" horiz-adv-x="682" 
d="M274 559v840h132v-840h-132z" />
    <glyph glyph-name="twosuperior" unicode="&#xb2;" horiz-adv-x="682" 
d="M45 559q67 89 157 193t105 124q66 86 97.5 151.5t31.5 117.5q0 69 -43.5 111t-116.5 42q-48 0 -99 -25.5t-107 -78.5v143q56 39 112 57.5t113 18.5q121 0 196.5 -70t75.5 -184q0 -94 -61.5 -200t-220.5 -279h348v-121h-588z" />
    <glyph glyph-name="threesuperior" unicode="&#xb3;" horiz-adv-x="682" 
d="M90 594v127q52 -25 102.5 -38t96.5 -13q69 0 110 36t41 97q0 65 -49 99.5t-147 39.5v107q88 0 138 35.5t50 97.5q0 54 -47 88.5t-123 34.5q-28 0 -61 -8t-95 -31v108q51 20 94 29.5t85 9.5q125 0 200.5 -60.5t75.5 -160.5q0 -58 -28 -105t-82 -79q63 -28 97 -80t34 -121
q0 -116 -82.5 -189t-214.5 -73q-50 0 -97 12t-98 37z" />
    <glyph glyph-name="onequarter" unicode="&#xbc;" horiz-adv-x="1653" 
d="M1386 0v262h-376v47l444 488h53v-443h99v-92h-99v-262h-121zM1386 354l5 236l-213 -236h208zM461 -25h-152l873 1446h151zM262 614v783h125v-783h-125z" />
    <glyph glyph-name="onehalf" unicode="&#xbd;" horiz-adv-x="1653" 
d="M1044 0q69 90 157 188t95 107q61 78 91 140.5t30 111.5q0 65 -41.5 104t-109.5 39q-46 0 -95 -24t-102 -72v133q54 35 106.5 52.5t106.5 17.5q118 0 190 -65.5t72 -172.5q0 -87 -59 -185.5t-213 -260.5h334v-113h-562zM461 -25h-152l873 1446h151zM262 614v783h125v-783
h-125z" />
    <glyph glyph-name="threequarters" unicode="&#xbe;" horiz-adv-x="1653" 
d="M1386 0v262h-376v47l444 488h53v-443h99v-92h-99v-262h-121zM1386 354l5 236l-213 -236h208zM461 -25h-152l873 1446h151zM86 647v119q53 -25 99.5 -37t88.5 -12q68 0 107 33.5t39 91.5q0 60 -46.5 92.5t-140.5 38.5v98q82 0 130.5 33.5t48.5 89.5q0 51 -44.5 83
t-117.5 32q-28 0 -62 -8t-86 -27v100q44 19 86 28t84 9q120 0 191.5 -56.5t71.5 -150.5q0 -54 -26.5 -98t-78.5 -74q60 -24 92.5 -73t32.5 -113q0 -109 -78.5 -177.5t-206.5 -68.5q-46 0 -91 11.5t-93 35.5z" />
    <glyph glyph-name="franc" unicode="&#x20a3;" horiz-adv-x="1798" 
d="M150 0v1399h796v-178h-598v-414h580v-180h-580v-627h-198zM1149 0v924h184v-201q77 121 138.5 169t133.5 48q50 0 101.5 -22t109.5 -68l-100 -164q-45 39 -86 56.5t-86 17.5q-75 0 -131 -63t-80 -175v-522h-184z" />
    <glyph glyph-name="Gbreve" unicode="&#x11e;" horiz-adv-x="1450" 
d="M1341 686v-592q-138 -60 -261.5 -89.5t-235.5 -29.5q-126 0 -237 31t-204 92q-156 102 -242.5 260.5t-86.5 346.5q0 141 57 273.5t162 231.5q111 107 250 159t311 52q117 0 234.5 -28t240.5 -84v-217q-133 72 -250 106.5t-227 34.5q-245 0 -405 -152.5t-160 -382.5
q0 -227 158 -379.5t397 -152.5q72 0 144 15.5t149 47.5v271h-263v186h469zM444 1843h89q7 -76 52.5 -110.5t140.5 -34.5t140.5 34.5t52.5 110.5h90q-11 -141 -79 -206.5t-204 -65.5t-204.5 66t-77.5 206z" />
    <glyph glyph-name="gbreve" unicode="&#x11f;" horiz-adv-x="915" 
d="M172 -172q0 -68 68 -102.5t200 -34.5q129 0 202 34t73 93q0 65 -82.5 98t-247.5 33q-94 0 -153.5 -34.5t-59.5 -86.5zM281 295q-104 32 -158.5 106t-54.5 183q0 168 116 254t344 86h367v-150h-156q38 -41 56 -86.5t18 -101.5q0 -116 -70.5 -198t-189.5 -103
q-26 -5 -70 -12q-149 -23 -149 -76t213 -95q52 -10 82 -16q134 -28 203 -94t69 -168q0 -141 -117.5 -215t-341.5 -74q-219 0 -334.5 71.5t-115.5 207.5q0 97 67.5 160t198.5 87q-53 24 -77.5 51.5t-24.5 61.5q0 36 30 65t95 56zM442 768q-85 0 -138.5 -49.5t-53.5 -126.5
q0 -81 51 -126.5t141 -45.5q91 0 144 46t53 126q0 77 -55.5 126.5t-141.5 49.5zM178 1364h89q7 -76 52.5 -110.5t140.5 -34.5t140.5 34.5t52.5 110.5h90q-11 -141 -79 -206.5t-204 -65.5t-204.5 66t-77.5 206z" />
    <glyph glyph-name="Idotaccent" unicode="&#x130;" horiz-adv-x="512" 
d="M156 0v1399h200v-1399h-200zM147 1687q0 45 33 78t76 33q45 0 78 -33t33 -78t-32.5 -76.5t-78.5 -31.5t-77.5 31t-31.5 77z" />
    <glyph glyph-name="Scedilla" unicode="&#x15e;" horiz-adv-x="944" 
d="M78 109v264q95 -109 181.5 -157t184.5 -48q104 0 164 48.5t60 131.5q0 68 -40.5 119.5t-193.5 148.5q-237 153 -297.5 237t-60.5 200q0 163 115.5 267.5t297.5 104.5q81 0 159.5 -23.5t158.5 -72.5v-227q-92 74 -170 107.5t-156 33.5q-94 0 -153.5 -46.5t-59.5 -119.5
q0 -104 247 -258l30 -18q201 -125 263 -220.5t62 -236.5q0 -160 -116 -264.5t-297 -104.5q-113 0 -204 32t-175 102zM223 -424v88q79 -18 141.5 -27.5t106.5 -9.5q60 0 90.5 21.5t30.5 62.5q0 52 -33 75.5t-106 23.5q-21 0 -31 -0.5t-21 -1.5v192h72v-106h23q111 0 169 -45
t58 -132q0 -89 -64 -135.5t-186 -46.5q-47 0 -108 10t-142 31z" />
    <glyph glyph-name="scedilla" unicode="&#x15f;" horiz-adv-x="770" 
d="M57 63v197q83 -55 160 -84t141 -29q71 0 111.5 26.5t40.5 72.5q0 58 -151 133q-44 22 -68 35q-129 66 -177 127.5t-48 150.5q0 116 83 184t228 68q78 0 150 -18.5t141 -57.5v-180q-85 47 -155.5 69.5t-133.5 22.5q-58 0 -89.5 -20t-31.5 -58q0 -70 193 -165l17 -8
q151 -76 197 -133.5t46 -145.5q0 -122 -91.5 -195t-242.5 -73q-87 0 -165.5 20t-154.5 61zM135 -424v88q79 -18 141.5 -27.5t106.5 -9.5q60 0 90.5 21.5t30.5 62.5q0 52 -33 75.5t-106 23.5q-21 0 -31 -0.5t-21 -1.5v192h72v-106h23q111 0 169 -45t58 -132q0 -89 -64 -135.5
t-186 -46.5q-47 0 -108 10t-142 31z" />
    <glyph glyph-name="Cacute" unicode="&#x106;" horiz-adv-x="1421" 
d="M1341 332v-226q-123 -64 -250.5 -97.5t-252.5 -33.5q-120 0 -229 31.5t-206 93.5q-156 102 -242.5 260.5t-86.5 344.5q0 141 57 273.5t162 231.5q112 106 251 158.5t308 52.5q118 0 234 -27t243 -85v-217q-133 72 -250 106.5t-227 34.5q-245 0 -405 -152.5t-160 -382.5
q0 -227 157.5 -379.5t395.5 -152.5q122 0 247 41t254 125zM676 1534l209 348h178l-281 -348h-106z" />
    <glyph glyph-name="cacute" unicode="&#x107;" horiz-adv-x="901" 
d="M840 219v-188q-70 -25 -136 -37t-131 -12q-226 0 -371 135.5t-145 345.5q0 205 145 343t363 138q67 0 132 -14t128 -43v-197q-64 39 -126.5 57.5t-127.5 18.5q-142 0 -231.5 -85t-89.5 -218q0 -136 91 -221.5t239 -85.5q68 0 132.5 15.5t127.5 47.5zM357 1055l209 348
h178l-281 -348h-106z" />
    <glyph glyph-name="Ccaron" unicode="&#x10c;" horiz-adv-x="1421" 
d="M1341 332v-226q-123 -64 -250.5 -97.5t-252.5 -33.5q-120 0 -229 31.5t-206 93.5q-156 102 -242.5 260.5t-86.5 344.5q0 141 57 273.5t162 231.5q112 106 251 158.5t308 52.5q118 0 234 -27t243 -85v-217q-133 72 -250 106.5t-227 34.5q-245 0 -405 -152.5t-160 -382.5
q0 -227 157.5 -379.5t395.5 -152.5q122 0 247 41t254 125zM526 1882h107l180 -244l178 244h107l-197 -348h-178z" />
    <glyph glyph-name="ccaron" unicode="&#x10d;" horiz-adv-x="901" 
d="M840 219v-188q-70 -25 -136 -37t-131 -12q-226 0 -371 135.5t-145 345.5q0 205 145 343t363 138q67 0 132 -14t128 -43v-197q-64 39 -126.5 57.5t-127.5 18.5q-142 0 -231.5 -85t-89.5 -218q0 -136 91 -221.5t239 -85.5q68 0 132.5 15.5t127.5 47.5zM207 1403h107
l180 -244l178 244h107l-197 -348h-178z" />
    <glyph glyph-name="dcroat" unicode="&#x111;" horiz-adv-x="1065" 
d="M754 205v520q-47 33 -92.5 48t-100.5 15q-141 0 -222 -86t-81 -237q0 -150 81.5 -237t221.5 -87q55 0 100.5 15t92.5 49zM754 51q-54 -36 -112 -52.5t-128 -16.5q-199 0 -326 134t-127 347t127 347t326 134q68 0 126.5 -17.5t113.5 -54.5v234h-297v129h297v164h184v-164
h152v-129h-152v-1106h-184v51z" />
    <glyph glyph-name="sfthyphen" unicode="&#xad;" horiz-adv-x="692" 
d="M84 379v166h524v-166h-524z" />
    <glyph glyph-name="periodcentered" unicode="&#x2219;" horiz-adv-x="516" 
d="M139 707q0 50 35 85t86 35t86 -35t35 -85q0 -51 -35 -86t-86 -35t-86 35t-35 86z" />
    <glyph glyph-name="Euro" horiz-adv-x="1034" 
d="M987 74q-59 -46 -151.5 -72.5t-184.5 -26.5q-182 0 -311 145.5t-164 391.5h-166l37 111h117q-1 12 -1.5 27.5t-0.5 47.5q0 16 1 45t1 43h-154l37 111h131q38 240 175 382t331 142q86 0 164 -20t131 -55v-218q-54 49 -135 79t-162 30q-119 0 -198 -88t-107 -252h538
l-36 -111h-514q-2 -15 -2.5 -33t-0.5 -55q0 -32 0.5 -47t2.5 -28h460l-37 -111h-413q27 -172 102 -259t197 -87q91 0 166.5 32.5t146.5 100.5v-225z" />
    <glyph glyph-name="Euro" unicode="&#x20ac;" horiz-adv-x="1034" 
d="M987 74q-59 -46 -151.5 -72.5t-184.5 -26.5q-182 0 -311 145.5t-164 391.5h-166l37 111h117q-1 12 -1.5 27.5t-0.5 47.5q0 16 1 45t1 43h-154l37 111h131q38 240 175 382t331 142q86 0 164 -20t131 -55v-218q-54 49 -135 79t-162 30q-119 0 -198 -88t-107 -252h538
l-36 -111h-514q-2 -15 -2.5 -33t-0.5 -55q0 -32 0.5 -47t2.5 -28h460l-37 -111h-413q27 -172 102 -259t197 -87q91 0 166.5 32.5t146.5 100.5v-225z" />
    <glyph glyph-name="afii10028" unicode="&#x41a;" horiz-adv-x="1270" 
d="M348 1399v-602h96q47 0 93.5 13.5t78.5 51.5q17 19 42 58t57 108l63 135q21 44 45.5 89.5t58.5 83t81 61.5t114 24q26 0 59 -6.5t62 -15.5v-172q-25 8 -48 11t-48 3q-39 0 -64.5 -12.5t-43 -32t-29.5 -44t-23 -48.5l-68 -150q-25 -56 -48.5 -95.5t-48 -67t-50.5 -45
t-57 -29.5q17 -4 42 -13t54 -27t59.5 -47.5t59.5 -74.5l354 -555h-233l-289 463q-23 37 -48 64t-57 48q-34 23 -77 32t-91 9h-96v-616h-198v1399h198z" />
    <glyph glyph-name="afii10080" unicode="&#x43e;" horiz-adv-x="1096" 
d="M57 463q0 100 38 187.5t104 152.5t156 103t194 38q99 0 187 -36.5t157 -104.5q71 -71 108 -157t37 -183q0 -96 -38 -186t-107 -158q-71 -69 -158 -104t-186 -35q-103 0 -193 37.5t-156.5 102.5t-104.5 153.5t-38 189.5zM250 463q0 -65 23.5 -121.5t63.5 -97.5t94 -64.5
t116 -23.5q61 0 115.5 24t94.5 65t63.5 97t23.5 121q0 64 -23.5 119.5t-63.5 96.5t-94.5 65t-115.5 24q-62 0 -116 -24t-94 -65t-63.5 -96.5t-23.5 -119.5z" />
    <glyph glyph-name="afii10068" unicode="&#x433;" horiz-adv-x="778" 
d="M754 924v-172h-447v-752h-184v924h631z" />
    <glyph glyph-name="afii10069" unicode="&#x434;" horiz-adv-x="1081" 
d="M926 924v-752h127v-438h-164v266h-725v-266h-164v438h82q43 60 78.5 126.5t60.5 135.5q37 103 47.5 192.5t10.5 157.5v140h647zM442 752q-5 -81 -16.5 -169t-40.5 -173q-23 -69 -51.5 -128t-59.5 -110h467v580h-299z" />
    <glyph glyph-name="afii10065" unicode="&#x430;" horiz-adv-x="887" 
d="M578 76q-68 -48 -130.5 -70t-136.5 -22q-64 0 -113 16t-82.5 45t-51 70t-17.5 92q0 194 305 297l219 74q2 11 2 20v18q0 84 -40.5 120t-133.5 36q-77 0 -158.5 -32t-164.5 -97v182q72 59 160.5 88t185.5 29q91 0 156 -20t105.5 -60.5t59.5 -103.5t19 -148v-391
q0 -45 7.5 -67.5t29.5 -22.5q23 0 45 14t51 37v-112q-51 -44 -102 -64t-105 -20q-53 0 -79 21t-31 71zM571 459q-82 -26 -143.5 -49.5t-102 -49.5t-61 -55.5t-20.5 -66.5q0 -57 36.5 -88t102.5 -31q48 0 95 17t93 52v271z" />
    <glyph glyph-name="afii10034" unicode="&#x420;" horiz-adv-x="1110" 
d="M150 1399h436q111 0 197.5 -27.5t146 -79.5t90.5 -126t31 -167t-31 -167t-90.5 -125.5t-146 -79t-197.5 -27.5h-238v-600h-198v1399zM565 780q142 0 209.5 50.5t67.5 168.5t-67.5 169t-209.5 51h-217v-439h217z" />
    <glyph glyph-name="afii10085" unicode="&#x443;" horiz-adv-x="909" 
d="M-29 924h205l285 -541l266 541h201l-686 -1389h-201l319 647z" />
    <glyph glyph-name="afii10083" unicode="&#x441;" horiz-adv-x="901" 
d="M840 31q-137 -49 -267 -49q-114 0 -209 36t-163.5 100.5t-106 152.5t-37.5 192q0 100 37.5 188t105 153t161 102.5t204.5 37.5q66 0 130.5 -14t129.5 -43v-197q-65 38 -127 57t-127 19q-73 0 -132 -23t-101 -63.5t-65 -96t-23 -120.5q0 -66 23 -122t66 -97.5t104 -64.5
t137 -23q68 0 132.5 15.5t127.5 47.5v-188z" />
    <glyph glyph-name="afii10093" unicode="&#x44b;" horiz-adv-x="1253" 
d="M307 924v-342h117q32 0 66 -1t68.5 -6t68 -15t65.5 -28q22 -13 46 -33t44 -49.5t32.5 -69.5t12.5 -91q0 -68 -24 -123t-68 -92q-31 -27 -65.5 -42t-68 -22t-64.5 -8.5t-54 -1.5h-360v924h184zM307 152h148q17 0 36 1.5t38 5.5t36.5 11t32.5 18q29 25 37 54t8 51
q0 18 -7.5 45.5t-35.5 52.5q-17 14 -37 22t-40 11.5t-39 4.5t-33 1h-144v-278zM946 924h184v-924h-184v924z" />
    <glyph glyph-name="afii10073" unicode="&#x437;" horiz-adv-x="827" 
d="M238 553h133q10 0 26.5 1t35.5 4.5t38 11t33 20.5q14 12 23.5 33t9.5 47q0 32 -11 53t-32 37q-26 18 -58.5 23t-60.5 5q-26 0 -56 -3.5t-65 -14t-75 -30.5t-85 -52v180q43 24 82.5 39t76 23t70.5 11t66 3q30 0 62 -2t64 -9t63 -20t59 -34q28 -23 46 -48.5t28.5 -51
t14 -50t3.5 -45.5q0 -34 -10 -68t-27 -59q-15 -23 -40 -41t-50 -29q29 -12 59 -30.5t50 -38.5q34 -34 46.5 -74.5t12.5 -83.5q0 -72 -30.5 -125t-86.5 -90q-32 -21 -66 -34t-67.5 -20t-66.5 -9t-64 -2t-67.5 2.5t-78 11t-87.5 25t-95 44.5v197q55 -42 104.5 -67t90.5 -38
t74 -16.5t57 -3.5q14 0 32 1t37 5.5t38 13t34 23.5q17 17 29 41t12 55q0 39 -15 61.5t-32 35.5q-26 18 -64.5 24t-86.5 6h-133v152z" />
    <glyph glyph-name="afii10067" unicode="&#x432;" horiz-adv-x="942" 
d="M483 924q32 0 67.5 -1.5t70 -8t66.5 -19.5t58 -35q28 -21 45 -44.5t26 -47.5t12 -47t3 -41q0 -28 -8.5 -62t-36.5 -71q-6 -6 -24 -24.5t-53 -35.5q31 -11 62.5 -27.5t55.5 -41.5q31 -32 44.5 -68t13.5 -86q0 -22 -3.5 -48t-14 -52.5t-29.5 -52.5t-50 -48
q-31 -23 -66.5 -35.5t-70 -18.5t-66.5 -7.5t-57 -1.5h-405v924h360zM307 545h193q26 0 58 5.5t56 20.5q17 13 29 35t12 53q0 26 -10 49t-35 40q-26 18 -55 21t-55 3h-193v-227zM307 152h205q15 0 34 0.5t38.5 3.5t38.5 10t34 20q17 13 30 35.5t13 61.5q0 18 -8.5 44.5
t-34.5 49.5q-32 26 -69.5 31.5t-79.5 5.5h-201v-262z" />
    <glyph glyph-name="afii10070" unicode="&#x435;" horiz-adv-x="999" 
d="M741 561q-5 51 -24 92t-49.5 70t-71 45t-88.5 16q-106 0 -171 -56.5t-85 -166.5h489zM928 98q-93 -60 -189.5 -89t-201.5 -29q-111 0 -199.5 36t-151 101t-96 157t-33.5 203q0 103 33 188.5t92.5 147t143 95.5t184.5 34q98 0 178 -33t137 -95.5t88 -152.5t31 -204v-27
h-692q4 -66 26 -117.5t60 -87.5t91 -54.5t118 -18.5q177 0 381 131v-185z" />
    <glyph glyph-name="afii10077" unicode="&#x43b;" horiz-adv-x="1024" 
d="M901 924v-924h-184v752h-299q0 -48 -3 -113t-9 -132t-15 -129t-22 -104q-13 -41 -27.5 -72.5t-33.5 -58t-44 -50t-59 -46.5q-35 -25 -64.5 -38.5t-66.5 -24.5l-94 163q12 2 41.5 7t64.5 22q54 26 81 67t44 95q10 31 17 73t11.5 89t7.5 96.5t4.5 94.5t2 84t0.5 65v84h647z
" />
    <glyph glyph-name="afii10074" unicode="&#x438;" horiz-adv-x="1077" 
d="M307 924v-645l484 645h163v-924h-184v645l-483 -645h-164v924h184z" />
    <glyph glyph-name="afii10079" unicode="&#x43d;" horiz-adv-x="1049" 
d="M123 924h184v-371h434v371h185v-924h-185v381h-434v-381h-184v924z" />
    <glyph glyph-name="afii10084" unicode="&#x442;" horiz-adv-x="819" 
d="M502 0h-185v752h-292v172h770v-172h-293v-752z" />
    <glyph glyph-name="afii10082" unicode="&#x440;" horiz-adv-x="1059" 
d="M121 924h186v-52q53 38 111 55t127 17q99 0 182 -35t143 -98t93.5 -151.5t33.5 -196.5t-33.5 -196.5t-93.5 -151.5t-143 -98t-182 -35q-69 0 -127 16t-111 53v-516h-186v1389zM307 203q45 -31 91 -46.5t100 -15.5q70 0 126 22t95.5 63.5t60.5 101.5t21 135
q0 76 -21 135.5t-60.5 101t-95.5 63t-126 21.5q-54 0 -100 -15.5t-91 -47.5v-518z" />
    <glyph glyph-name="afii10095" unicode="&#x44d;" horiz-adv-x="901" 
d="M61 219q65 -38 135.5 -57t133.5 -19q81 0 140.5 24.5t94.5 61.5q23 24 37.5 50t22 48.5t10.5 40t4 25.5h-422v152h422q-4 30 -13 55.5t-22 46.5t-27.5 37.5t-29.5 28.5q-53 43 -107.5 55t-105.5 12q-57 0 -118.5 -14.5t-137.5 -58.5v180q37 17 70 28t64.5 17.5t62.5 9
t63 2.5q36 0 77.5 -3.5t84.5 -13.5t86 -28.5t82 -48.5q37 -29 69 -68.5t56 -88.5t37.5 -107.5t13.5 -124.5q0 -56 -11 -109t-32 -100.5t-50 -88t-65 -71.5q-22 -19 -54 -39t-75.5 -36t-99 -26.5t-125.5 -10.5q-101 0 -168 17.5t-103 33.5v188z" />
    <glyph glyph-name="afii10072" unicode="&#x436;" horiz-adv-x="1352" 
d="M768 924v-375h45q17 0 38 3.5t40 18.5q8 7 17.5 20t17.5 27t15 27.5t11 22.5l41 86q11 23 20.5 43.5t20.5 39t25.5 35.5t34.5 33q27 22 56 30.5t71 8.5q26 0 48 -5.5t42 -14.5v-160q-14 9 -31 14.5t-37 5.5q-27 0 -46 -7.5t-32.5 -21t-24 -32t-20.5 -39.5l-30 -66
q-23 -49 -47.5 -84.5t-71.5 -58.5q17 -5 34.5 -12.5t32.5 -18.5q14 -10 29 -25.5t29 -33.5t26 -35.5t21 -30.5l200 -319h-213l-141 236q-34 56 -55.5 84.5t-40.5 44.5q-12 11 -36 21.5t-58 10.5h-31v-397h-184v397h-31q-34 0 -58 -10.5t-36 -21.5q-9 -8 -19 -18.5
t-21.5 -25.5t-25.5 -36t-31 -49l-141 -236h-213l201 319q8 13 20 30.5t26 35.5t29 33.5t29 25.5q16 11 33.5 18.5t34.5 12.5q-24 12 -41 26.5t-30.5 32.5t-24.5 39t-23 45l-31 66q-10 21 -20 39.5t-24 32t-32.5 21t-45.5 7.5q-20 0 -37 -5.5t-31 -14.5v160q20 9 42 14.5
t48 5.5q42 0 70.5 -8.5t56.5 -30.5q20 -16 34 -33t25.5 -35.5t20.5 -39t20 -43.5l41 -86q4 -9 11 -22.5t15.5 -27.5t17.5 -27t18 -20q18 -15 39.5 -18.5t38.5 -3.5h45v375h184z" />
    <glyph glyph-name="afii10066" unicode="&#x431;" horiz-adv-x="1106" 
d="M987 1249l-383 -92q-24 -6 -55.5 -15.5t-64.5 -25t-66.5 -37.5t-61.5 -53q-51 -59 -75 -128.5t-35 -143.5q25 35 55.5 63.5t75.5 52.5q57 31 105 42.5t102 11.5q103 0 190.5 -30.5t155.5 -102.5q20 -20 41 -50t38.5 -70.5t28.5 -90.5t11 -111q0 -100 -38 -190t-104 -156
q-60 -60 -149.5 -100.5t-200.5 -40.5q-56 0 -106.5 10.5t-94 29.5t-80.5 43.5t-65 53.5q-48 51 -76 111t-42.5 119.5t-18.5 115t-4 98.5q0 66 5 140.5t23 152.5q6 27 16.5 61.5t26 72t37 75t51.5 70.5q40 43 84.5 74t91 53t93.5 36.5t92 24.5l397 90v-164zM559 760
q-54 0 -105.5 -17.5t-93.5 -52.5q-49 -42 -73.5 -99.5t-24.5 -135.5q0 -57 18.5 -110.5t61.5 -98.5q45 -48 102.5 -68t114.5 -20q68 0 124 25.5t93 62.5q35 35 57.5 89t22.5 120q0 68 -22 123t-54 92q-37 42 -93 66t-128 24z" />
    <glyph glyph-name="afii10076" unicode="&#x43a;" horiz-adv-x="942" 
d="M307 924v-375h68q25 0 45.5 7t34.5 19q12 11 25.5 31.5t33.5 61.5l41 86q11 23 20.5 43.5t20.5 39t25 35.5t34 33q28 22 56.5 30.5t70.5 8.5q19 0 45.5 -4t57.5 -16v-160q-10 5 -30.5 12.5t-49.5 7.5q-28 0 -47 -7.5t-32.5 -21t-23.5 -32t-20 -39.5l-31 -66
q-11 -24 -22 -45t-24.5 -39t-31 -32.5t-41.5 -26.5q19 -5 38 -12.5t34 -18.5q16 -11 32 -26.5t31 -32.5t28 -34.5t22 -31.5l201 -319h-213l-146 236q-34 54 -57 82t-43 42q-26 19 -49.5 24t-49.5 5h-53v-389h-184v924h184z" />
    <glyph glyph-name="afii10097" unicode="&#x44f;" horiz-adv-x="958" 
d="M651 0v356h-90q-29 0 -59 -4.5t-56 -19.5q-29 -17 -48.5 -45.5t-35.5 -57.5l-124 -229h-213l174 291q18 31 47 64t82 55q-29 4 -53 12.5t-41.5 18t-28.5 18t-15 12.5q-12 11 -24.5 27t-23 37.5t-17 49t-6.5 62.5q0 68 28 122.5t70 86.5q31 25 66.5 39t70.5 20.5t68.5 7.5
t60.5 1h353v-924h-185zM651 772h-184q-29 0 -60 -3.5t-59 -25.5q-15 -12 -24 -27t-13.5 -30t-6 -28t-1.5 -21q0 -19 6 -45t29 -47q22 -20 57 -28.5t72 -8.5h184v264z" />
    <glyph glyph-name="afii10078" unicode="&#x43c;" horiz-adv-x="1155" 
d="M123 924h147l308 -371l307 371h147v-924h-184v641l-270 -322l-271 322v-641h-184v924z" />
    <glyph glyph-name="afii10075" unicode="&#x439;" horiz-adv-x="1077" 
d="M307 924v-645l484 645h163v-924h-184v645l-483 -645h-164v924h184zM408 1364q0 -23 7.5 -49.5t24.5 -46.5q23 -26 51 -33.5t48 -7.5t47.5 7.5t50.5 33.5q17 20 25 46.5t8 49.5h151q-3 -65 -28 -117t-60 -84q-37 -35 -88 -53t-106 -18q-56 0 -107 18t-88 53q-35 32 -60 84
t-28 117h152z" />
    <glyph glyph-name="afii10049" unicode="&#x42f;" horiz-adv-x="1188" 
d="M1038 0h-198v594h-86q-42 0 -80 -12t-80 -47q-26 -23 -46.5 -48t-38.5 -52.5t-34.5 -57t-34.5 -60.5l-188 -317h-242l293 459q21 33 39 59t36.5 47t40 38t48.5 32q-54 6 -105 26.5t-90 51.5q-51 40 -82.5 104t-31.5 158t31.5 176t93.5 139q38 36 80 57.5t85 33t85.5 15
t82.5 3.5h422v-1399zM840 1227h-224q-23 0 -47 -1.5t-48 -7.5t-47 -17.5t-44 -31.5t-33 -44t-19 -48.5t-9 -48t-2 -41.5q0 -15 1.5 -34.5t6 -40t14 -40.5t25.5 -38q26 -28 71.5 -48t104.5 -20h250v461z" />
    <glyph glyph-name="afii10026" unicode="&#x418;" horiz-adv-x="1524" 
d="M348 1399v-1088l852 1088h174v-1399h-198v1079l-852 -1079h-174v1399h198z" />
    <glyph glyph-name="afii10091" unicode="&#x449;" horiz-adv-x="1548" 
d="M307 924v-752h359v752h184v-752h358v752h185v-752h127v-438h-164v266h-1233v924h184z" />
    <glyph glyph-name="afii10081" unicode="&#x43f;" horiz-adv-x="1040" 
d="M123 924h795v-924h-185v752h-426v-752h-184v924z" />
    <glyph glyph-name="afii10033" unicode="&#x41f;" horiz-adv-x="1487" 
d="M1337 1399v-1399h-198v1219h-791v-1219h-198v1399h1187z" />
    <glyph glyph-name="afii10025" unicode="&#x417;" horiz-adv-x="1036" 
d="M295 799h141q48 0 94.5 13.5t77.5 39.5q18 15 32 35t23.5 43t15 48.5t5.5 49.5q0 54 -18.5 90.5t-44.5 59.5q-28 24 -72.5 39.5t-104.5 15.5q-64 0 -116 -16t-92 -38t-66.5 -43.5t-38.5 -33.5v219q81 54 166.5 77t163.5 23q44 0 90.5 -6.5t90.5 -20t84 -34.5t71 -51
q41 -41 70.5 -104.5t29.5 -141.5q0 -65 -18.5 -117t-49.5 -92q-23 -31 -60.5 -61t-88.5 -50q59 -12 106.5 -39t79.5 -61q17 -18 33.5 -41.5t29.5 -54.5t21 -69t8 -85q0 -97 -37.5 -172.5t-93.5 -126.5q-25 -23 -59.5 -44.5t-79 -38t-98 -26.5t-117.5 -10q-31 0 -75.5 4
t-97 18t-109.5 40.5t-113 71.5v229q41 -42 88.5 -74t97 -54.5t99 -34t94.5 -11.5q29 0 59.5 3t60 12t56.5 25t49 42q14 16 25 35.5t18.5 40.5t11.5 42t4 39q0 53 -22 97.5t-57 70.5q-23 17 -49.5 26.5t-54 14t-54.5 5.5t-51 1h-158v181z" />
    <glyph glyph-name="afii10018" unicode="&#x411;" horiz-adv-x="1184" 
d="M150 1399h806v-180h-608v-400h248q50 0 99.5 -6t96 -18.5t88 -31t76.5 -42.5q33 -24 61 -54.5t48 -69.5t31.5 -86.5t11.5 -104.5q0 -53 -10 -97t-26 -79.5t-36.5 -63t-42.5 -47.5q-57 -53 -150 -86t-208 -33h-485v1399zM348 182h266q25 0 53.5 1.5t57 7t55 16t47.5 29.5
q28 24 48 66t20 104q0 61 -22.5 106t-65.5 74q-27 19 -57 29.5t-59.5 15t-57.5 5.5t-51 1h-234v-455z" />
    <glyph glyph-name="afii10021" unicode="&#x414;" horiz-adv-x="1507" 
d="M1296 1399v-1219h185v-508h-174v328h-1133v-328h-174v508h90q79 90 137.5 203.5t94.5 234.5q17 58 28.5 121t18 135.5t9.5 157.5t3 187v180h915zM1098 180v1039h-533v-41q0 -42 -2 -107.5t-8.5 -143t-19 -162t-33.5 -165.5q-15 -54 -37 -112.5t-48 -115t-54.5 -106.5
t-55.5 -86h791z" />
    <glyph glyph-name="afii10087" unicode="&#x445;" horiz-adv-x="973" 
d="M365 477l-365 447h227l248 -314l244 314h227l-354 -443l389 -481h-223l-277 340l-266 -340h-223z" />
    <glyph glyph-name="afii10035" unicode="&#x421;" horiz-adv-x="1421" 
d="M1341 106q-123 -65 -249.5 -98t-253.5 -33q-122 0 -230.5 31.5t-204.5 93.5q-78 51 -139 117t-103.5 143.5t-64.5 164.5t-22 180q0 70 14.5 139.5t42.5 134t69 123t93 108.5q112 107 250.5 159t308.5 52q72 0 137.5 -9t124.5 -24.5t113 -36t102 -42.5v-217
q-128 69 -244.5 105t-232.5 36q-125 0 -229 -41.5t-178.5 -114t-116 -170t-41.5 -209.5t41 -209t114.5 -169t175 -113t222.5 -41q244 0 501 166v-226z" />
    <glyph glyph-name="afii10036" unicode="&#x422;" horiz-adv-x="1255" 
d="M528 1219h-514v180h1227v-180h-514v-1219h-199v1219z" />
    <glyph glyph-name="afii10019" unicode="&#x412;" horiz-adv-x="1186" 
d="M483 799q153 0 227 54t74 169q0 106 -60 151.5t-185 45.5h-191v-420h135zM150 1399h409q106 0 187.5 -24.5t136.5 -71.5t83.5 -115t28.5 -154q0 -109 -50.5 -180.5t-156.5 -110.5q155 -37 237.5 -131.5t82.5 -230.5q0 -85 -32 -155t-93 -120.5t-149 -78t-199 -27.5h-485
v1399zM348 182h266q142 0 211.5 50t69.5 163q0 117 -77.5 169t-235.5 52h-234v-434z" />
    <glyph glyph-name="afii10089" unicode="&#x447;" horiz-adv-x="942" 
d="M635 377q-71 -20 -122 -24.5t-93 -4.5q-32 0 -67.5 2.5t-70.5 11.5t-68.5 26t-61.5 46q-27 27 -42.5 57t-23.5 61.5t-10 63.5t-2 62v246h184v-246q0 -14 1.5 -31.5t6.5 -36t14.5 -36.5t26.5 -33q15 -13 35 -20.5t40 -11t38.5 -4.5t30.5 -1q40 0 89.5 7t94.5 21v392h184
v-924h-184v377z" />
    <glyph glyph-name="afii10094" unicode="&#x44c;" horiz-adv-x="922" 
d="M307 924v-342h154q31 0 66 -1t70.5 -6t70.5 -15t67 -28q23 -13 47.5 -33t44.5 -49.5t32.5 -69.5t12.5 -91q0 -45 -10 -80t-24 -61.5t-30.5 -45t-29.5 -28.5q-29 -24 -61 -38.5t-65 -22.5t-67 -10.5t-65 -2.5h-397v924h184zM307 152h185q17 0 36 1.5t38 5.5t36.5 11
t32.5 18q29 25 37 54t8 51q0 18 -7.5 45.5t-35.5 52.5q-17 14 -37 22t-40.5 11.5t-39 4.5t-33.5 1h-180v-278z" />
    <glyph glyph-name="afii10090" unicode="&#x448;" horiz-adv-x="1516" 
d="M307 924v-752h359v752h184v-752h358v752h185v-924h-1270v924h184z" />
    <glyph glyph-name="afii10017" unicode="&#x410;" horiz-adv-x="1276" 
d="M561 1399h146l614 -1399h-207l-180 412h-596l-178 -412h-205zM852 592l-221 504l-215 -504h436z" />
    <glyph glyph-name="afii10096" unicode="&#x44e;" horiz-adv-x="1456" 
d="M307 924v-375h158q14 80 46.5 144.5t76.5 111.5q24 25 56 50t73.5 44.5t93 32t113.5 12.5q59 0 109.5 -11.5t93 -31t77 -44.5t60.5 -52q31 -32 56 -71.5t42.5 -84t27 -92t9.5 -94.5q0 -48 -10 -96t-28 -92.5t-42.5 -84.5t-54.5 -71q-28 -29 -63 -54.5t-77.5 -44.5
t-92.5 -29.5t-107 -10.5q-64 0 -116 12.5t-93.5 33t-73 45t-53.5 48.5q-44 46 -78 114t-45 156h-158v-389h-184v924h184zM924 768q-22 0 -47.5 -3.5t-52.5 -13.5t-54 -27.5t-51 -45.5q-34 -38 -56 -91t-22 -124q0 -40 7 -73t18 -60t25 -48t28 -36q24 -28 50.5 -45.5
t53 -27.5t52.5 -13.5t49 -3.5q63 0 115 24t89 66q36 38 57 93t21 124q0 60 -18 114t-62 101q-24 26 -50.5 43.5t-53 28t-51.5 14.5t-47 4z" />
    <glyph glyph-name="afii10088" unicode="&#x446;" horiz-adv-x="1065" 
d="M307 924v-752h418v752h184v-752h127v-438h-164v266h-749v924h184z" />
    <glyph glyph-name="afii10086" unicode="&#x444;" horiz-adv-x="1368" 
d="M776 1399v-467q23 8 44.5 10t45.5 2q87 0 164 -27.5t144 -95.5q23 -23 47 -56t44 -77.5t33 -101t13 -125.5t-13 -125t-33 -100.5t-44 -77.5t-47 -56q-69 -68 -145 -95t-163 -27q-24 0 -45.5 2t-44.5 10v-457h-184v457q-23 -8 -44 -10t-46 -2q-87 0 -163 27t-144 95
q-23 23 -47.5 56t-44.5 77.5t-33 100.5t-13 125t13 125.5t33 101t44.5 77.5t47.5 56q66 68 143 95.5t164 27.5q25 0 46 -2t44 -10v467h184zM592 776q-14 3 -29.5 5.5t-32.5 2.5q-38 0 -69 -7t-56 -18.5t-43.5 -25.5t-31.5 -28q-26 -28 -42 -59t-24.5 -62.5t-11 -63
t-2.5 -59.5q0 -81 20.5 -142.5t55.5 -99.5q34 -37 87.5 -58.5t116.5 -21.5q16 0 32 2.5t30 5.5v629zM776 147q14 -3 30 -5.5t32 -2.5q63 0 116.5 21.5t87.5 58.5q36 38 56 99.5t20 142.5q0 28 -2.5 59.5t-11 63t-24.5 62.5t-42 59q-13 14 -31.5 28t-43 25.5t-56 18.5
t-69.5 7q-17 0 -32.5 -2.5t-29.5 -5.5v-629z" />
    <glyph glyph-name="afii10051" unicode="&#x402;" horiz-adv-x="1516" 
d="M1155 1399v-180h-532v-433q77 31 155 47.5t172 16.5q77 0 135.5 -9t102 -22.5t72 -29t45.5 -27.5q43 -31 72.5 -67.5t46.5 -77.5t24.5 -84.5t7.5 -88.5q0 -73 -14.5 -130.5t-38.5 -101.5t-55.5 -76.5t-65.5 -55.5q-65 -45 -145 -64t-154 -16l-45 180q30 -2 61.5 1
t61 10.5t55.5 18.5t45 26q13 10 27.5 25.5t26.5 38t20 53t8 69.5q0 23 -3.5 49t-13.5 52t-28.5 50.5t-48.5 44.5q-9 6 -26.5 15t-44.5 17.5t-65 14t-89 5.5q-81 0 -154 -15t-147 -49v-606h-199v1219h-410v180h1141z" />
    <glyph glyph-name="afii10052" unicode="&#x403;" horiz-adv-x="963" 
d="M946 1399v-180h-598v-1219h-198v1399h796zM707 1882h178l-281 -348h-106z" />
    <glyph glyph-name="afii10100" unicode="&#x453;" horiz-adv-x="778" 
d="M754 924v-172h-447v-752h-184v924h631zM584 1403h178l-281 -348h-106z" />
    <glyph glyph-name="afii10058" unicode="&#x409;" horiz-adv-x="1925" 
d="M1163 1399v-580h201q42 0 87.5 -4t90.5 -15t89 -30t85 -49q31 -23 58.5 -54t48 -70.5t32 -88.5t11.5 -109q0 -74 -24 -142.5t-70 -119.5q-22 -24 -54 -48t-78 -44t-107 -32.5t-140 -12.5h-428v1219h-453v-41q0 -36 -1 -87t-3.5 -112.5t-7 -129.5t-10.5 -136.5t-14 -134.5
t-19 -123q-14 -74 -32 -132t-38.5 -102.5t-44 -77.5t-47.5 -57q-30 -29 -60 -46t-60 -26t-59 -11.5t-57 -2.5h-34l-45 184h30q19 0 39.5 0.5t41 4.5t41 13t40.5 27q35 32 61 94.5t43 165.5q12 73 21 153.5t14.5 159.5t9 152t5 132t2 99.5t0.5 53.5v160h835zM1163 180h213
q25 0 53.5 1.5t57 6.5t55 16t47.5 29q11 9 23 23.5t22 35.5t16.5 49.5t6.5 64.5q0 63 -22.5 108t-65.5 74q-27 19 -57 29.5t-60 15t-58 5.5t-51 1h-180v-459z" />
    <glyph glyph-name="afii10059" unicode="&#x40a;" horiz-adv-x="2007" 
d="M348 1399v-580h699v580h198v-580h201q42 0 87.5 -4t90.5 -15t89 -30t85 -49q31 -23 58.5 -54t48 -70.5t32 -88.5t11.5 -109q0 -74 -24 -142.5t-71 -119.5q-21 -24 -53.5 -48t-78 -44t-106.5 -32.5t-140 -12.5h-428v639h-699v-639h-198v1399h198zM1245 180h213
q25 0 53.5 1.5t57 6.5t55 16t47.5 29q11 9 23 23.5t22 35.5t16.5 49.5t6.5 64.5q0 63 -22.5 108t-65.5 74q-27 19 -57 29.5t-60 15t-58 5.5t-51 1h-180v-459z" />
    <glyph glyph-name="afii10061" unicode="&#x40c;" horiz-adv-x="1270" 
d="M348 1399v-602h96q47 0 93.5 13.5t78.5 51.5q17 19 42 58t57 108l63 135q21 44 45.5 89.5t58.5 83t81 61.5t114 24q26 0 59 -6.5t62 -15.5v-172q-25 8 -48 11t-48 3q-39 0 -64.5 -12.5t-43 -32t-29.5 -44t-23 -48.5l-68 -150q-25 -56 -48.5 -95.5t-48 -67t-50.5 -45
t-57 -29.5q17 -4 42 -13t54 -27t59.5 -47.5t59.5 -74.5l354 -555h-233l-289 463q-23 37 -48 64t-57 48q-34 23 -77 32t-91 9h-96v-616h-198v1399h198zM748 1882h178l-281 -348h-106z" />
    <glyph glyph-name="afii10060" unicode="&#x40b;" horiz-adv-x="1516" 
d="M1155 1399v-180h-532v-433q27 9 64 20.5t83.5 21t103 16t121.5 6.5q33 0 75 -3t87 -14.5t89.5 -34.5t82.5 -63q34 -36 54.5 -76t31.5 -82t14 -86t3 -88v-403h-199v403q0 22 -1.5 48t-8 52.5t-20 52.5t-36.5 48q-24 23 -53 36.5t-58.5 20t-57 8t-48.5 1.5
q-85 0 -163.5 -14.5t-163.5 -49.5v-606h-199v1219h-410v180h1141z" />
    <glyph glyph-name="afii10145" unicode="&#x40f;" horiz-adv-x="1475" 
d="M348 1399v-1219h778v1219h199v-1399h-504v-369h-176v369h-495v1399h198z" />
    <glyph glyph-name="afii10099" unicode="&#x452;" horiz-adv-x="1026" 
d="M121 1065h-123v123h123v211h184v-211h369v-123h-369v-336q18 18 39 35t44.5 32t47.5 27t47 19q26 8 52.5 11t54.5 3q32 0 64 -2.5t63 -11.5q32 -11 61.5 -30.5t52.5 -45.5q31 -35 50.5 -83t30.5 -105.5t15.5 -124.5t4.5 -140q0 -163 -16 -290.5t-60 -231.5
q-23 -55 -50 -96t-55.5 -71.5t-58 -52t-57.5 -36.5l-115 131q24 12 48 28t46 38.5t41.5 53t34.5 71.5q20 52 28 108t13 113t6.5 114.5t1.5 114.5t-2.5 113.5t-13.5 111.5q-5 26 -13 52t-24 49q-15 24 -32.5 37.5t-35.5 20.5t-36.5 9t-36.5 2q-26 0 -55 -4.5t-60.5 -17
t-63 -36t-61.5 -60.5v-584h-184v1065z" />
    <glyph glyph-name="afii10106" unicode="&#x459;" horiz-adv-x="1470" 
d="M901 582h117q32 0 66 -1t68.5 -6t68 -15t65.5 -28q22 -13 46 -33t44 -49.5t32.5 -69.5t12.5 -91q0 -68 -24.5 -123t-67.5 -92q-31 -27 -65.5 -42t-68 -22t-64.5 -8.5t-54 -1.5h-360v752h-299q0 -48 -3 -113t-9 -132t-15 -129t-22 -104q-13 -41 -27.5 -72.5t-33.5 -58
t-44 -50t-59 -46.5q-35 -25 -64.5 -38.5t-66.5 -24.5l-94 163q12 2 41.5 7t64.5 22q27 13 46.5 30t33.5 37t25 44t20 51q10 29 17.5 70.5t12 88.5t7.5 96.5t4 95.5t1.5 85.5t0.5 65.5v84h647v-342zM901 152h148q17 0 36 1.5t38 5.5t36.5 11t32.5 18q29 25 37 54t8 51
q0 18 -7.5 45.5t-35.5 52.5q-17 14 -37 22t-40.5 11.5t-39 4.5t-33.5 1h-143v-278z" />
    <glyph glyph-name="afii10107" unicode="&#x45a;" horiz-adv-x="1475" 
d="M307 924v-342h414v342h184v-342h117q32 0 66 -1t68.5 -6t68 -15t65.5 -28q22 -13 46 -33t44 -49.5t32.5 -69.5t12.5 -91q0 -68 -24 -123t-68 -92q-31 -27 -65.5 -42t-68 -22t-64.5 -8.5t-54 -1.5h-360v430h-414v-430h-184v924h184zM905 152h148q17 0 36 1.5t38 5.5
t36.5 11t32.5 18q29 25 37 54t8 51q0 18 -7.5 45.5t-35.5 52.5q-17 14 -37 22t-40 11.5t-39 4.5t-33 1h-144v-278z" />
    <glyph glyph-name="afii10109" unicode="&#x45c;" horiz-adv-x="942" 
d="M307 924v-375h68q25 0 45.5 7t34.5 19q12 11 25.5 31.5t33.5 61.5l41 86q11 23 20.5 43.5t20.5 39t25 35.5t34 33q28 22 56.5 30.5t70.5 8.5q19 0 45.5 -4t57.5 -16v-160q-10 5 -30.5 12.5t-49.5 7.5q-28 0 -47 -7.5t-32.5 -21t-23.5 -32t-20 -39.5l-31 -66
q-11 -24 -22 -45t-24.5 -39t-31 -32.5t-41.5 -26.5q19 -5 38 -12.5t34 -18.5q16 -11 32 -26.5t31 -32.5t28 -34.5t22 -31.5l201 -319h-213l-146 236q-34 54 -57 82t-43 42q-26 19 -49.5 24t-49.5 5h-53v-389h-184v924h184zM604 1403h178l-280 -348h-107z" />
    <glyph glyph-name="afii10108" unicode="&#x45b;" horiz-adv-x="1026" 
d="M121 1065h-123v123h123v211h184v-211h369v-123h-369v-336q68 65 136 96t149 31q75 0 135.5 -22.5t102.5 -64.5t64.5 -102.5t22.5 -136.5v-530h-186v483q0 113 -46 166t-146 53q-73 0 -127.5 -27.5t-104.5 -90.5v-584h-184v1065z" />
    <glyph glyph-name="afii10193" unicode="&#x45f;" horiz-adv-x="1032" 
d="M307 924v-764h418v764h184v-924h-311v-287h-164v287h-311v924h184z" />
    <glyph glyph-name="afii10062" unicode="&#x40e;" horiz-adv-x="1229" 
d="M201 1399l454 -752l408 752h207l-768 -1399h-207l250 451l-586 948h242zM451 1802q5 -42 23 -69.5t38 -42.5q32 -25 69 -32t66 -7t66 7t69 32q20 15 38.5 42.5t23.5 69.5h160q-7 -59 -31.5 -112.5t-63.5 -92.5q-30 -30 -63.5 -48t-68 -28.5t-68 -14t-62.5 -3.5t-62.5 3.5
t-68 14t-68 28.5t-63.5 48q-38 39 -63 92.5t-31 112.5h160z" />
    <glyph glyph-name="afii10110" unicode="&#x45e;" horiz-adv-x="909" 
d="M-29 924h205l285 -541l266 541h201l-686 -1389h-201l319 647zM332 1364q0 -23 8 -49.5t25 -46.5q23 -26 50.5 -33.5t47.5 -7.5t47.5 7.5t50.5 33.5q17 20 25 46.5t8 49.5h151q-3 -65 -27.5 -117t-60.5 -84q-37 -35 -87.5 -53t-106.5 -18t-107 18t-88 53q-35 32 -60 84
t-28 117h152z" />
    <glyph glyph-name="afii10057" unicode="&#x408;" horiz-adv-x="516" 
d="M-94 -287q78 0 127.5 13.5t78 45.5t39.5 84t11 130v1413h198v-1362q0 -74 -3 -136.5t-16 -116t-39.5 -98t-74.5 -81.5q-46 -37 -115.5 -56.5t-156.5 -19.5h-35l-45 184h31z" />
    <glyph glyph-name="afii10050" unicode="&#x490;" horiz-adv-x="973" 
d="M772 1399v280h174v-460h-598v-1219h-198v1399h622z" />
    <glyph glyph-name="afii10023" unicode="&#x401;" horiz-adv-x="1114" 
d="M150 1399h841v-180h-643v-422h625v-181h-625v-436h664v-180h-862v1399zM297 1688q0 21 8 39.5t22 32.5t32.5 22t39.5 8t39.5 -8t33 -22t22.5 -32.5t8 -39.5t-8 -39.5t-22.5 -33t-33 -22.5t-39.5 -8t-39.5 8t-32.5 22.5t-22 33t-8 39.5zM674 1688q0 21 8 39.5t22 32.5
t32.5 22t39.5 8t39.5 -8t32.5 -22t22.5 -32.5t8.5 -39.5t-8.5 -39.5t-22.5 -33t-32.5 -22.5t-39.5 -8t-39.5 8t-32.5 22.5t-22 33t-8 39.5z" />
    <glyph glyph-name="afii10053" unicode="&#x404;" horiz-adv-x="1421" 
d="M295 614q2 -21 8 -50.5t19 -64.5t35 -73.5t57 -77.5q40 -45 89.5 -79.5t105 -58t115.5 -35t122 -11.5q15 0 61 3t113 19.5t149.5 50t171.5 95.5v-226q-69 -37 -138.5 -62t-135.5 -40.5t-126 -22t-110 -6.5q-110 0 -196 20t-151 50t-111 64t-76 63q-62 60 -105 127
t-69 136.5t-37.5 138t-11.5 131.5q0 79 16.5 153.5t47 141.5t73.5 125.5t96 105.5q37 33 88.5 67t118.5 61t149.5 44.5t182.5 17.5q121 0 240 -27.5t235 -84.5v-217q-57 34 -118 60.5t-122 44.5t-121 27t-114 9q-43 0 -91 -7t-96 -21t-94 -36t-86 -53q-46 -35 -82 -81
t-61 -99q-16 -34 -26 -68.5t-15 -72.5h858v-181h-858z" />
    <glyph glyph-name="afii10056" unicode="&#x407;" horiz-adv-x="512" 
d="M156 1399h200v-1399h-200v1399zM12 1688q0 14 4 26t11 25q14 23 37 37t51 14q14 0 26.5 -4t24.5 -10q23 -14 37 -37.5t14 -50.5q0 -14 -4 -26.5t-10 -25.5q-6 -11 -16 -20.5t-21 -16.5q-12 -6 -24.5 -10t-26.5 -4q-28 0 -51 14t-37 37q-7 13 -11 25.5t-4 26.5zM295 1688
q0 14 4 26t10 25q14 23 37 37t51 14q21 0 39.5 -8t33 -22t22.5 -32.5t8 -39.5q0 -14 -4 -26.5t-11 -25.5q-14 -23 -37 -37t-51 -14t-51 14t-37 37q-6 13 -10 25.5t-4 26.5z" />
    <glyph glyph-name="afii10055" unicode="&#x406;" horiz-adv-x="512" 
d="M156 1399h200v-1399h-200v1399z" />
    <glyph glyph-name="afii10103" unicode="&#x456;" horiz-adv-x="430" 
d="M123 924h184v-924h-184v924zM109 1196q0 22 8.5 41.5t22.5 34t33.5 23t41.5 8.5t41.5 -8.5t34 -23t23 -34t8.5 -41.5t-8.5 -41.5t-23 -33.5t-34 -22.5t-41.5 -8.5q-45 0 -75.5 30.5t-30.5 75.5z" />
    <glyph glyph-name="afii10098" unicode="&#x491;" horiz-adv-x="778" 
d="M590 924v254h164v-426h-447v-752h-184v924h467z" />
    <glyph glyph-name="afii10071" unicode="&#x451;" horiz-adv-x="999" 
d="M741 561q-5 51 -24 92t-49.5 70t-71 45t-88.5 16q-106 0 -171 -56.5t-85 -166.5h489zM928 98q-93 -60 -189.5 -89t-201.5 -29q-111 0 -199.5 36t-151 101t-96 157t-33.5 203q0 103 33 188.5t92.5 147t143 95.5t184.5 34q98 0 178 -33t137 -95.5t88 -152.5t31 -204v-27
h-692q4 -66 26 -117.5t60 -87.5t91 -54.5t118 -18.5q177 0 381 131v-185zM225 1208q0 21 8 39.5t22.5 33t33 22.5t39.5 8t39.5 -8t32.5 -22.5t22 -33t8 -39.5t-8 -39.5t-22 -32.5t-32.5 -22t-39.5 -8t-39.5 8t-33 22t-22.5 32.5t-8 39.5zM602 1208q0 21 8 39.5t22.5 33
t33 22.5t39.5 8t39.5 -8t32.5 -22.5t22 -33t8 -39.5t-8 -39.5t-22 -32.5t-32.5 -22t-39.5 -8t-39.5 8t-33 22t-22.5 32.5t-8 39.5z" />
    <glyph glyph-name="afii61352" unicode="&#x2116;" horiz-adv-x="2130" 
d="M348 1399l770 -1051v1051h199v-1399h-199l-770 1051v-1051h-198v1399h198zM1475 1112q0 59 22.5 111.5t61.5 91.5t91 61.5t111 22.5t111.5 -22.5t91.5 -61.5t61.5 -91.5t22.5 -111.5t-22.5 -111.5t-61.5 -91.5t-91.5 -61.5t-111.5 -22.5t-111 22.5t-91 61.5t-61.5 91.5
t-22.5 111.5zM1597 1112q0 -34 13 -63.5t35.5 -52t52 -35.5t63.5 -13t63.5 13t52 35.5t35.5 52t13 63.5t-13 63.5t-35.5 52t-52 35.5t-63.5 13t-63.5 -13t-52 -35.5t-35.5 -52t-13 -63.5zM1475 680h573v-148h-573v148z" />
    <glyph glyph-name="afii10101" unicode="&#x454;" horiz-adv-x="901" 
d="M840 31q-33 -12 -68.5 -21t-71 -16t-70 -10.5t-65.5 -3.5q-116 0 -210 37.5t-160 103t-102 153t-36 187.5q0 78 23 151t67 134.5t108 107.5t146 70q42 12 83.5 16t84.5 4q44 0 93.5 -8t103.5 -27l57 -22v-180q-15 9 -30.5 16.5t-30.5 13.5q-45 20 -89 31.5t-98 11.5
q-44 0 -79.5 -7.5t-62.5 -18t-45.5 -22t-29.5 -19.5q-29 -25 -57.5 -66.5t-40.5 -101.5h440v-152h-442q3 -14 6 -27.5t8 -25.5q11 -31 29 -59.5t41 -51.5q22 -21 51 -37.5t60.5 -27t63.5 -16t61 -5.5q27 0 59.5 5t67 14.5t69 24t66.5 32.5v-188z" />
    <glyph glyph-name="afii10105" unicode="&#x458;" horiz-adv-x="430" 
d="M-4 -334q28 11 48.5 26.5t37.5 37.5q29 37 35 72t6 73v1049h184v-1033q0 -51 -3.5 -97t-20.5 -89q-9 -21 -22.5 -44.5t-34.5 -46t-49.5 -43t-65.5 -36.5zM109 1196q0 22 8.5 41.5t22.5 34t33.5 23t41.5 8.5q29 0 53 -15q25 -14 39.5 -38.5t14.5 -53.5q0 -22 -8.5 -41.5
t-23 -33.5t-34 -22.5t-41.5 -8.5q-45 0 -75.5 30.5t-30.5 75.5z" />
    <glyph glyph-name="afii10054" unicode="&#x405;" horiz-adv-x="944" 
d="M78 373q45 -51 89 -89.5t88 -64t91 -38.5t98 -13q106 0 165 48.5t59 131.5q0 44 -15 78t-45 64t-73.5 60t-100.5 66q-88 57 -155 104t-112 96t-68 105.5t-23 131.5q0 80 30 148t84 118t130 78t169 28q82 0 160.5 -24t157.5 -72v-227q-87 69 -164.5 105t-161.5 36
q-48 0 -87.5 -12.5t-67.5 -35t-43 -53t-15 -65.5q0 -41 19.5 -74.5t55.5 -65t87 -64t115 -72.5q77 -48 137.5 -92t102 -95.5t63.5 -116.5t22 -153q0 -78 -29.5 -145.5t-84 -117t-130.5 -78t-169 -28.5q-111 0 -202 31.5t-177 102.5v264z" />
    <glyph glyph-name="afii10102" unicode="&#x455;" horiz-adv-x="770" 
d="M57 260q88 -59 164.5 -86t136.5 -27q73 0 112.5 27t39.5 72q0 27 -15.5 46.5t-44 38t-69 38t-90.5 45.5q-56 28 -98 56t-70 60.5t-42.5 71.5t-14.5 90q0 57 21 103.5t60.5 79.5t97.5 51t132 18q78 0 149.5 -18.5t141.5 -57.5v-180q-81 45 -152 68.5t-137 23.5
q-59 0 -90 -20t-31 -58q0 -27 13.5 -48t40.5 -40.5t66.5 -40t90.5 -45.5q58 -29 103.5 -55.5t76 -58t46.5 -71t16 -93.5q0 -60 -23.5 -109.5t-67 -84.5t-105 -54.5t-138.5 -19.5q-88 0 -166 19.5t-154 61.5v197z" />
    <glyph glyph-name="afii10104" unicode="&#x457;" horiz-adv-x="430" 
d="M123 924h184v-924h-184v924zM-29 1208q0 21 8 39.5t22.5 33t33 22.5t39.5 8t39.5 -8t32.5 -22.5t22 -33t8 -39.5t-8 -39.5t-22 -32.5t-32.5 -22t-39.5 -8t-39.5 8t-33 22t-22.5 32.5t-8 39.5zM254 1208q0 21 8 39.5t22 33t32.5 22.5t39.5 8t39.5 -8t33 -22.5t22.5 -33
t8 -39.5t-8 -39.5t-22.5 -32.5t-33 -22t-39.5 -8t-39.5 8t-32.5 22t-22 32.5t-8 39.5z" />
    <glyph glyph-name="afii10020" unicode="&#x413;" horiz-adv-x="963" 
d="M946 1399v-180h-598v-1219h-198v1399h796z" />
    <glyph glyph-name="afii10022" unicode="&#x415;" horiz-adv-x="1114" 
d="M150 1399h841v-180h-643v-422h625v-181h-625v-436h664v-180h-862v1399z" />
    <glyph glyph-name="afii10024" unicode="&#x416;" horiz-adv-x="1841" 
d="M821 1399h199v-602h35q27 0 49.5 2.5t42 10t38 21.5t38.5 37q31 35 53 78.5t41 81.5l63 135q21 44 45.5 89.5t58.5 83t81 61.5t114 24q29 0 59.5 -6.5t61.5 -15.5v-172q-25 8 -48 11t-48 3q-38 0 -64 -12.5t-43.5 -32t-29.5 -44t-23 -48.5l-67 -150q-26 -56 -49.5 -95.5
t-48 -67t-50.5 -45t-57 -29.5q24 -6 49.5 -17.5t51.5 -31t52.5 -48.5t53.5 -69l362 -551h-233l-281 451q-20 34 -50 68.5t-60 55.5q-29 20 -63.5 30.5t-78.5 10.5h-55v-616h-199v616h-55q-43 0 -77.5 -10.5t-63.5 -30.5q-31 -21 -61 -55.5t-50 -68.5l-281 -451h-233l362 551
q27 40 53.5 69t52.5 48.5t51.5 31t49.5 17.5q-31 12 -57 29.5t-50.5 45t-48 67t-48.5 95.5l-68 150q-11 24 -23 48.5t-29.5 44t-43 32t-64.5 12.5q-25 0 -48 -3t-48 -11v172q31 9 61.5 15.5t59.5 6.5q67 0 114 -24t81.5 -61.5t58.5 -83t45 -89.5l63 -135q19 -38 41.5 -81.5
t52.5 -78.5q20 -23 38.5 -37t38 -21.5t42 -10t49.5 -2.5h35v602z" />
    <glyph glyph-name="afii10027" unicode="&#x419;" horiz-adv-x="1524" 
d="M348 1399v-1088l852 1088h174v-1399h-198v1079l-852 -1079h-174v1399h198zM565 1802q5 -42 23.5 -69.5t38.5 -42.5q32 -25 69 -32t66 -7t66 7t69 32q20 15 38 42.5t23 69.5h160q-6 -59 -31 -112.5t-63 -92.5q-30 -30 -63.5 -48t-68 -28.5t-68 -14t-62.5 -3.5t-62.5 3.5
t-68 14t-68 28.5t-63.5 48q-38 39 -63 92.5t-31 112.5h159z" />
    <glyph glyph-name="afii10029" unicode="&#x41b;" horiz-adv-x="1393" 
d="M1243 1399v-1399h-199v1219h-532v-41q0 -36 -1 -87t-3.5 -112.5t-7 -129.5t-10.5 -136.5t-14 -134.5t-19 -123q-14 -74 -32 -132t-38.5 -102.5t-44 -77.5t-47.5 -57q-30 -29 -60 -46t-60 -26t-59 -11.5t-57 -2.5h-34l-45 184h30q19 0 39.5 0.5t41 4.5t41 13t40.5 27
q35 32 61 94.5t43 165.5q12 73 21 153.5t14.5 159.5t9 152t5 132t2 99.5t0.5 53.5v160h915z" />
    <glyph glyph-name="afii10030" unicode="&#x41c;" horiz-adv-x="1655" 
d="M150 1399h174l503 -588l504 588h174v-1399h-194v1092l-484 -564l-483 564v-1092h-194v1399z" />
    <glyph glyph-name="afii10031" unicode="&#x41d;" horiz-adv-x="1503" 
d="M150 1399h198v-602h807v602h199v-1399h-199v608h-807v-608h-198v1399z" />
    <glyph glyph-name="afii10032" unicode="&#x41e;" horiz-adv-x="1640" 
d="M74 705q0 142 57 272.5t162 232.5q108 104 242.5 157.5t283.5 53.5q152 0 287.5 -53.5t241.5 -157.5q219 -213 219 -518q0 -142 -55.5 -272.5t-161.5 -233.5q-110 -105 -244 -158t-287 -53q-149 0 -285 54.5t-241 156.5q-108 106 -163.5 237.5t-55.5 281.5zM287 698
q0 -108 40 -204.5t115 -171.5q75 -76 173 -117t204 -41q110 0 206 40t173 118q75 75 115.5 171.5t40.5 204.5q0 109 -40.5 204t-117.5 173q-75 78 -171.5 118t-205.5 40q-106 0 -202.5 -41t-174.5 -117q-75 -74 -115 -171t-40 -206z" />
    <glyph glyph-name="afii10037" unicode="&#x423;" horiz-adv-x="1229" 
d="M201 1399l454 -752l408 752h207l-768 -1399h-207l250 451l-586 948h242z" />
    <glyph glyph-name="afii10038" unicode="&#x424;" horiz-adv-x="1681" 
d="M940 1442v-156h12q47 0 104 -4.5t117.5 -19t121 -41t114.5 -70.5q44 -35 80.5 -81t63 -100.5t41 -117.5t14.5 -133q0 -73 -14 -135t-40 -113.5t-62 -94.5t-81 -77q-58 -45 -117.5 -71.5t-118 -40.5t-115 -18.5t-108.5 -4.5h-12v-164h-199v164h-12q-51 0 -107.5 4.5
t-115.5 18.5t-119 40.5t-117 71.5q-44 34 -80.5 77t-62 95t-39.5 114t-14 134q0 69 14.5 132t40.5 118.5t62.5 101t80.5 80.5q56 44 116 70.5t119 41t114.5 19t103.5 4.5h16v156h199zM741 1106h-16q-29 0 -64.5 -2t-72 -9t-73.5 -20.5t-69 -36.5q-20 -15 -47.5 -40
t-52 -63.5t-42 -91t-17.5 -122.5q0 -62 13 -111t35 -87t52 -66t64 -49q33 -21 68 -33.5t70.5 -19.5t69.5 -9t66 -2h16v762zM956 344q39 -1 87 4t97 20t95 41.5t81.5 69t57 102t21.5 140.5q0 70 -16.5 123t-41 91.5t-52.5 63t-50 39.5q-33 22 -69 35.5t-72.5 21t-71.5 9.5
t-66 2h-16v-762h16z" />
    <glyph glyph-name="afii10039" unicode="&#x425;" horiz-adv-x="1468" 
d="M623 741l-555 658h249l431 -518l442 518h246l-566 -658l619 -741h-250l-496 598l-518 -598h-245z" />
    <glyph glyph-name="afii10040" unicode="&#x426;" horiz-adv-x="1536" 
d="M348 1399v-1219h778v1219h199v-1219h184v-508h-174v328h-1185v1399h198z" />
    <glyph glyph-name="afii10041" unicode="&#x427;" horiz-adv-x="1278" 
d="M283 1399v-404q0 -22 1.5 -47t8.5 -51t21 -51t38 -47q26 -24 58 -37.5t64 -19.5t61.5 -7.5t50.5 -1.5q88 0 172 14.5t172 49.5v602h198v-1399h-198v612q-78 -26 -173 -44.5t-212 -18.5q-35 0 -80 3t-93 14.5t-95.5 34.5t-86.5 63q-35 35 -56 75t-32 83t-14.5 86.5
t-3.5 86.5v404h199z" />
    <glyph glyph-name="afii10042" unicode="&#x428;" horiz-adv-x="1935" 
d="M348 1399v-1219h520v1219h199v-1219h520v1219h199v-1399h-1636v1399h198z" />
    <glyph glyph-name="afii10043" unicode="&#x429;" horiz-adv-x="1997" 
d="M348 1399v-1219h520v1219h199v-1219h520v1219h199v-1219h184v-508h-174v328h-1646v1399h198z" />
    <glyph glyph-name="afii10044" unicode="&#x42a;" horiz-adv-x="1343" 
d="M582 1399v-580h200q42 0 87.5 -4t90.5 -15t89.5 -30t85.5 -49q31 -23 58.5 -54t47.5 -70.5t31.5 -88.5t11.5 -109q0 -74 -24 -142.5t-70 -119.5q-21 -24 -53.5 -48t-78.5 -44t-107 -32.5t-140 -12.5h-428v1219h-369v180h568zM582 180h213q25 0 53.5 1.5t56.5 6.5t54.5 16
t48.5 29q10 9 22 23.5t22 35.5t16.5 49.5t6.5 64.5q0 63 -22.5 108t-65.5 74q-27 19 -57 29.5t-59.5 15t-57.5 5.5t-51 1h-180v-459z" />
    <glyph glyph-name="afii10045" unicode="&#x42b;" horiz-adv-x="1556" 
d="M348 1399v-580h201q29 0 70 -2.5t87.5 -12.5t95 -29.5t93.5 -53.5q30 -23 56.5 -54t47 -70.5t32 -88.5t11.5 -109q0 -72 -24 -142t-68 -120q-21 -23 -52.5 -47t-76.5 -44t-105 -33t-138 -13h-428v1399h198zM348 180h209q25 0 53.5 1.5t57 6.5t55 16t47.5 29q11 9 23 23.5
t22 35.5t16.5 49.5t6.5 64.5q0 63 -22.5 108t-65.5 74q-27 19 -57 29.5t-60 15t-58 5.5t-51 1h-176v-459zM1407 1399v-1399h-199v1399h199z" />
    <glyph glyph-name="afii10046" unicode="&#x42c;" horiz-adv-x="1110" 
d="M348 1399v-580h201q42 0 87.5 -4t90.5 -15t89 -30t85 -49q31 -23 58.5 -54t48 -70.5t32 -88.5t11.5 -109q0 -74 -24 -142.5t-71 -119.5q-21 -24 -53.5 -48t-78 -44t-106.5 -32.5t-140 -12.5h-428v1399h198zM348 180h213q25 0 53.5 1.5t57 6.5t55 16t47.5 29q11 9 23 23.5
t22 35.5t16.5 49.5t6.5 64.5q0 63 -22.5 108t-65.5 74q-27 19 -57 29.5t-60 15t-58 5.5t-51 1h-180v-459z" />
    <glyph glyph-name="afii10047" unicode="&#x42d;" horiz-adv-x="1419" 
d="M283 795h841q-7 60 -25.5 109t-44 88.5t-55.5 70.5t-61 55q-69 53 -161 84t-204 31q-27 0 -71 -4t-104.5 -18t-136 -42.5t-163.5 -76.5v217q84 40 162.5 63t142 33.5t108.5 13t62 2.5q52 0 119 -7.5t139.5 -28.5t146 -58t138.5 -96q61 -56 104.5 -120.5t71.5 -133
t41 -138t13 -134.5q0 -74 -15.5 -148t-44 -143t-69 -129.5t-89.5 -108.5q-54 -51 -118.5 -89t-135 -63t-143.5 -37t-143 -12q-51 0 -110.5 6.5t-125 21.5t-135 40t-139.5 63v226q89 -61 171.5 -94.5t150 -50t116 -20t70.5 -3.5q80 0 145.5 15t118.5 40.5t94.5 60t73.5 74.5
q57 69 80 134.5t26 125.5h-841v181z" />
    <glyph glyph-name="afii10048" unicode="&#x42e;" horiz-adv-x="2032" 
d="M348 1399v-604h205q19 131 72 236t125 179q35 38 83 75.5t110 67.5t138.5 49t169.5 19q157 0 281 -55.5t221 -155.5t151 -226t54 -286t-54 -286t-151 -226t-221 -155.5t-281 -55.5q-93 0 -169.5 19t-138.5 49t-110 67.5t-83 75.5q-34 36 -66 81t-58.5 98.5t-45.5 115.5
t-27 133h-205v-614h-198v1399h198zM760 698q0 -66 11 -122t30 -103t44 -85t54 -69q34 -36 75 -64.5t86.5 -49t94 -31t96.5 -10.5t96.5 10.5t94 31t87 49t75.5 64.5q28 31 53.5 69t44.5 85t30 103t11 122t-11 122t-30 103t-44.5 85t-53.5 69q-34 36 -75.5 65t-87 49.5t-94 31
t-96.5 10.5t-96.5 -10.5t-94 -31t-86.5 -49.5t-75 -65q-29 -31 -54 -69t-44 -85t-30 -103t-11 -122z" />
    <glyph glyph-name="afii10092" unicode="&#x44a;" horiz-adv-x="1077" 
d="M463 924v-342h153q31 0 66 -1t70.5 -6t71 -15t67.5 -28q23 -13 47 -33t44 -49.5t33 -69.5t13 -91q0 -45 -10 -80t-24 -61.5t-30.5 -45t-29.5 -28.5q-29 -24 -61 -38.5t-65 -22.5t-67 -10.5t-65 -2.5h-397v752h-254v172h438zM463 160h184q66 0 98.5 12.5t45.5 22.5
q29 23 37 49.5t8 48.5q0 20 -8 45t-35 47q-17 13 -37.5 20.5t-40.5 11t-39 4.5t-33 1h-180v-262z" />
    <glyph glyph-name="Amacron" unicode="&#x100;" horiz-adv-x="1276" 
d="M561 1399h146l614 -1399h-207l-180 412h-596l-178 -412h-205zM852 592l-221 504l-215 -504h436zM379 1712h516v-125h-516v125z" />
    <glyph glyph-name="amacron" unicode="&#x101;" horiz-adv-x="887" 
d="M578 76q-68 -48 -130.5 -70t-136.5 -22q-64 0 -113 16t-82.5 45t-51 70t-17.5 92q0 194 305 297l219 74q2 11 2 20v18q0 84 -40.5 120t-133.5 36q-77 0 -158.5 -32t-164.5 -97v182q72 59 160.5 88t185.5 29q91 0 156 -20t105.5 -60.5t59.5 -103.5t19 -148v-391
q0 -45 7.5 -67.5t29.5 -22.5q23 0 45 14t51 37v-112q-51 -44 -102 -64t-105 -20q-53 0 -79 21t-31 71zM571 459q-82 -26 -143.5 -49.5t-102 -49.5t-61 -55.5t-20.5 -66.5q0 -57 36.5 -88t102.5 -31q48 0 95 17t93 52v271zM168 1274h516v-125h-516v125z" />
    <glyph glyph-name="Abreve" unicode="&#x102;" horiz-adv-x="1276" 
d="M561 1399h146l614 -1399h-207l-180 412h-596l-178 -412h-205zM852 592l-221 504l-215 -504h436zM444 1802q7 -77 53 -111t140 -34t140 34t52 111h91q-11 -140 -78.5 -206t-204.5 -66q-136 0 -204.5 66t-78.5 206h90z" />
    <glyph glyph-name="abreve" unicode="&#x103;" horiz-adv-x="887" 
d="M578 76q-68 -48 -130.5 -70t-136.5 -22q-64 0 -113 16t-82.5 45t-51 70t-17.5 92q0 194 305 297l219 74q2 11 2 20v18q0 84 -40.5 120t-133.5 36q-77 0 -158.5 -32t-164.5 -97v182q72 59 160.5 88t185.5 29q91 0 156 -20t105.5 -60.5t59.5 -103.5t19 -148v-391
q0 -45 7.5 -67.5t29.5 -22.5q23 0 45 14t51 37v-112q-51 -44 -102 -64t-105 -20q-53 0 -79 21t-31 71zM571 459q-82 -26 -143.5 -49.5t-102 -49.5t-61 -55.5t-20.5 -66.5q0 -57 36.5 -88t102.5 -31q48 0 95 17t93 52v271zM242 1364q6 -77 52 -111t140 -34t140 34t53 111h90
q-11 -140 -78.5 -206t-204.5 -66q-136 0 -204.5 66t-77.5 206h90z" />
    <glyph glyph-name="Aogonek" unicode="&#x104;" horiz-adv-x="1276" 
d="M561 1399h146l614 -1399h-135q-68 -62 -102.5 -116.5t-34.5 -106.5q0 -45 22.5 -63.5t75.5 -18.5h80l-41 -129h-39q-113 0 -167 39.5t-54 124.5q0 37 12 70t36 65t59 65t81 70l-180 412h-596l-178 -412h-205zM852 592l-221 504l-215 -504h436z" />
    <glyph glyph-name="aogonek" unicode="&#x105;" horiz-adv-x="887" 
d="M578 76q-68 -48 -130.5 -70t-136.5 -22q-64 0 -113 16t-82.5 45t-51 70t-17.5 92q0 194 305 297l219 74q2 11 2 20v18q0 84 -40.5 120t-133.5 36q-77 0 -158.5 -32t-164.5 -97v182q72 59 160.5 88t185.5 29q91 0 156 -20t105.5 -60.5t59.5 -103.5t19 -148v-391
q0 -45 7.5 -67.5t29.5 -22.5q23 0 45 14t51 37v-112q-12 -11 -24.5 -20t-24.5 -17q-29 -28 -53.5 -56.5t-47.5 -66.5q-21 -35 -35 -66t-14 -65q0 -45 23 -63.5t76 -18.5h79l-40 -129h-39q-113 0 -167.5 39.5t-54.5 124.5q0 42 17.5 80t46.5 75q48 57 113 107
q-16 -3 -31 -5.5t-31 -2.5q-53 0 -79 21t-31 71zM571 459q-82 -26 -143.5 -49.5t-102 -49.5t-61 -55.5t-20.5 -66.5q0 -57 36.5 -88t102.5 -31q48 0 95 17t93 52v271z" />
    <glyph glyph-name="Ccircumflex" unicode="&#x108;" horiz-adv-x="1421" 
d="M1341 106q-123 -65 -249.5 -98t-253.5 -33q-122 0 -230.5 31.5t-204.5 93.5q-78 51 -139 117t-103.5 143.5t-64.5 164.5t-22 180q0 70 14.5 139.5t42.5 134t69 123t93 108.5q112 107 250.5 159t308.5 52q72 0 137.5 -9t124.5 -24.5t113 -36t102 -42.5v-217
q-128 69 -244.5 105t-232.5 36q-125 0 -229 -41.5t-178.5 -114t-116 -170t-41.5 -209.5t41 -209t114.5 -169t175 -113t222.5 -41q244 0 501 166v-226zM743 1882h179l196 -348h-106l-178 242l-181 -242h-106z" />
    <glyph glyph-name="ccircumflex" unicode="&#x109;" horiz-adv-x="901" 
d="M840 31q-137 -49 -267 -49q-114 0 -209 36t-163.5 100.5t-106 152.5t-37.5 192q0 100 37.5 188t105 153t161 102.5t204.5 37.5q66 0 130.5 -14t129.5 -43v-197q-65 38 -127 57t-127 19q-73 0 -132 -23t-101 -63.5t-65 -96t-23 -120.5q0 -66 23 -122t66 -97.5t104 -64.5
t137 -23q68 0 132.5 15.5t127.5 47.5v-188zM453 1403h178l196 -348h-106l-178 241l-181 -241h-106z" />
    <glyph glyph-name="Cdotaccent" unicode="&#x10a;" horiz-adv-x="1421" 
d="M1341 106q-123 -65 -249.5 -98t-253.5 -33q-122 0 -230.5 31.5t-204.5 93.5q-78 51 -139 117t-103.5 143.5t-64.5 164.5t-22 180q0 70 14.5 139.5t42.5 134t69 123t93 108.5q112 107 250.5 159t308.5 52q72 0 137.5 -9t124.5 -24.5t113 -36t102 -42.5v-217
q-128 69 -244.5 105t-232.5 36q-125 0 -229 -41.5t-178.5 -114t-116 -170t-41.5 -209.5t41 -209t114.5 -169t175 -113t222.5 -41q244 0 501 166v-226zM735 1688q0 23 8.5 43t23.5 35t35.5 23.5t43.5 8.5t43 -8.5t35 -23.5t23.5 -35t8.5 -43t-8.5 -43.5t-23.5 -35.5
t-35 -23.5t-43 -8.5t-43.5 8.5t-35.5 23.5t-23.5 35.5t-8.5 43.5z" />
    <glyph glyph-name="cdotaccent" unicode="&#x10b;" horiz-adv-x="901" 
d="M840 31q-137 -49 -267 -49q-114 0 -209 36t-163.5 100.5t-106 152.5t-37.5 192q0 100 37.5 188t105 153t161 102.5t204.5 37.5q66 0 130.5 -14t129.5 -43v-197q-65 38 -127 57t-127 19q-73 0 -132 -23t-101 -63.5t-65 -96t-23 -120.5q0 -66 23 -122t66 -97.5t104 -64.5
t137 -23q68 0 132.5 15.5t127.5 47.5v-188zM444 1208q0 23 9 43.5t24 35.5t35 23.5t43 8.5t43 -8.5t35 -23.5t24 -35.5t9 -43.5t-9 -43t-24 -35t-35 -23.5t-43 -8.5t-43 8.5t-35 23.5t-24 35t-9 43z" />
    <glyph glyph-name="Dcaron" unicode="&#x10e;" horiz-adv-x="1518" 
d="M664 1399q139 0 254 -26t217 -95q142 -96 219.5 -245.5t77.5 -332.5q0 -90 -20 -174t-58 -158t-93.5 -136.5t-125.5 -110.5q-98 -68 -214 -94.5t-257 -26.5h-514v1399h514zM348 1210v-1022h316q133 0 236.5 36.5t174.5 103.5t107.5 161t36.5 209t-36.5 209.5t-107.5 162
t-174.5 104t-236.5 36.5h-316zM465 1882l180 -244l178 244h107l-197 -348h-178l-197 348h107z" />
    <glyph glyph-name="dcaron" unicode="&#x10f;" horiz-adv-x="1225" 
d="M754 51q-53 -37 -112 -53t-128 -16q-99 0 -182 35t-143.5 98t-94 151.5t-33.5 196.5t33.5 196.5t94 151.5t143.5 98t182 35q69 0 128 -17t112 -55v527h184v-1399h-184v51zM754 725q-45 32 -92 47.5t-101 15.5q-70 0 -126 -22t-95.5 -63.5t-60.5 -101.5t-21 -136t21 -136
t60.5 -102t95.5 -64t126 -22q54 0 101 16t92 48v520zM1116 1202q-40 16 -64 43.5t-24 67.5q0 25 9 45.5t24.5 34.5t36.5 22t45 8t46.5 -8.5t39.5 -27.5t27 -50t10 -75q0 -54 -18.5 -100t-50 -82.5t-73 -63.5t-86.5 -43l-2 37q20 17 35 33.5t25 36t15 43t5 53.5v26z" />
    <glyph glyph-name="Dcroat" unicode="&#x110;" horiz-adv-x="1532" 
d="M678 1399q139 0 254.5 -26t216.5 -95q142 -96 219.5 -245.5t77.5 -332.5q0 -90 -20.5 -174t-58.5 -158t-94 -136.5t-126 -110.5q-98 -68 -213 -94.5t-256 -26.5h-514v623h-164v159h164v617h514zM362 1208v-426h365v-159h-365v-433h316q133 0 236.5 36.5t174.5 103
t107.5 160.5t36.5 208q0 115 -36.5 209t-107.5 161t-174.5 103.5t-236.5 36.5h-316z" />
    <glyph glyph-name="Emacron" unicode="&#x112;" horiz-adv-x="1114" 
d="M150 1399h841v-180h-643v-422h625v-181h-625v-436h664v-180h-862v1399zM324 1712h516v-125h-516v125z" />
    <glyph glyph-name="emacron" unicode="&#x113;" horiz-adv-x="999" 
d="M741 561q-5 51 -24 92t-49.5 70t-71 45t-88.5 16q-106 0 -171 -56.5t-85 -166.5h489zM928 98q-93 -60 -189.5 -89t-201.5 -29q-111 0 -199.5 36t-151 101t-96 157t-33.5 203q0 103 33 188.5t92.5 147t143 95.5t184.5 34q98 0 178 -33t137 -95.5t88 -152.5t31 -204v-27
h-692q4 -66 26 -117.5t60 -87.5t91 -54.5t118 -18.5q177 0 381 131v-185zM246 1274h516v-125h-516v125z" />
    <glyph glyph-name="Edotaccent" unicode="&#x116;" horiz-adv-x="1114" 
d="M150 1399h841v-180h-643v-422h625v-181h-625v-436h664v-180h-862v1399zM467 1688q0 23 8.5 43t23.5 35t35.5 23.5t43.5 8.5t43 -8.5t35 -23.5t23.5 -35t8.5 -43t-8.5 -43.5t-23.5 -35.5t-35 -23.5t-43 -8.5t-43.5 8.5t-35.5 23.5t-23.5 35.5t-8.5 43.5z" />
    <glyph glyph-name="edotaccent" unicode="&#x117;" horiz-adv-x="999" 
d="M741 561q-5 51 -24 92t-49.5 70t-71 45t-88.5 16q-106 0 -171 -56.5t-85 -166.5h489zM928 98q-93 -60 -189.5 -89t-201.5 -29q-111 0 -199.5 36t-151 101t-96 157t-33.5 203q0 103 33 188.5t92.5 147t143 95.5t184.5 34q98 0 178 -33t137 -95.5t88 -152.5t31 -204v-27
h-692q4 -66 26 -117.5t60 -87.5t91 -54.5t118 -18.5q177 0 381 131v-185zM410 1208q0 23 8.5 43.5t23.5 35.5t35 23.5t43 8.5t43.5 -8.5t35.5 -23.5t23.5 -35.5t8.5 -43.5t-8.5 -43t-23.5 -35t-35.5 -23.5t-43.5 -8.5t-43 8.5t-35 23.5t-23.5 35t-8.5 43z" />
    <glyph glyph-name="Eogonek" unicode="&#x118;" horiz-adv-x="1114" 
d="M150 1399h841v-180h-643v-422h625v-181h-625v-436h664v-180h-123q-68 -62 -102.5 -116.5t-34.5 -106.5q0 -45 22.5 -63.5t75.5 -18.5h80l-41 -129h-39q-113 0 -167 39.5t-54 124.5q0 37 12 70t36 65t59 65t81 70h-667v1399z" />
    <glyph glyph-name="eogonek" unicode="&#x119;" horiz-adv-x="999" 
d="M838 43q-16 -15 -40 -47.5t-44 -67.5q-23 -40 -36 -79.5t-13 -71.5q0 -45 22.5 -63.5t75.5 -18.5h80l-41 -129h-39q-113 0 -167 39.5t-54 124.5q0 46 21.5 91t49.5 83q25 34 49.5 60t42.5 44q-48 -14 -102 -21t-106 -7q-111 0 -199.5 36t-151 101t-96 157t-33.5 203
q0 103 33 188.5t92.5 147t143 95.5t184.5 34q98 0 178 -33t137 -95.5t88 -152.5t31 -204v-27h-692q4 -66 26 -117.5t60 -87.5t91 -54.5t118 -18.5q177 0 381 131v-185zM741 561q-5 51 -24 92t-49.5 70t-71 45t-88.5 16q-106 0 -171 -56.5t-85 -166.5h489z" />
    <glyph glyph-name="Ecaron" unicode="&#x11a;" horiz-adv-x="1114" 
d="M150 1399h841v-180h-643v-422h625v-181h-625v-436h664v-180h-862v1399zM401 1882l181 -244l178 244h106l-196 -348h-178l-197 348h106z" />
    <glyph glyph-name="ecaron" unicode="&#x11b;" horiz-adv-x="999" 
d="M741 561q-5 51 -24 92t-49.5 70t-71 45t-88.5 16q-106 0 -171 -56.5t-85 -166.5h489zM928 98q-93 -60 -189.5 -89t-201.5 -29q-111 0 -199.5 36t-151 101t-96 157t-33.5 203q0 103 33 188.5t92.5 147t143 95.5t184.5 34q98 0 178 -33t137 -95.5t88 -152.5t31 -204v-27
h-692q4 -66 26 -117.5t60 -87.5t91 -54.5t118 -18.5q177 0 381 131v-185zM330 1403l180 -244l178 244h107l-197 -348h-178l-197 348h107z" />
    <glyph glyph-name="Gcircumflex" unicode="&#x11c;" horiz-adv-x="1450" 
d="M1341 94q-136 -59 -259 -89t-238 -30q-125 0 -236 30.5t-205 92.5q-78 51 -139 117t-103.5 143.5t-64.5 165t-22 181.5q0 70 14.5 139.5t42.5 134t69 123t93 108.5q112 109 251 160t310 51q118 0 234.5 -27.5t240.5 -84.5v-217q-128 69 -244.5 105t-232.5 36
q-125 0 -229 -41.5t-178.5 -114t-116 -170t-41.5 -209.5t41 -209t115 -169t175.5 -113t223.5 -41q72 0 143.5 15.5t149.5 47.5v273h-263v184h469v-592zM791 1882h178l196 -348h-106l-178 242l-181 -242h-106z" />
    <glyph glyph-name="gcircumflex" unicode="&#x11d;" horiz-adv-x="915" 
d="M442 768q-44 0 -79 -13.5t-60.5 -37t-39 -56t-13.5 -69.5q0 -82 50.5 -127t141.5 -45t144 45.5t53 126.5q0 37 -14.5 69.5t-40.5 56t-62 37t-80 13.5zM281 295q-106 32 -159.5 106t-53.5 183q0 167 115 253.5t345 86.5h367v-150h-156q39 -42 56.5 -87.5t17.5 -100.5
q0 -59 -18.5 -109t-52.5 -89.5t-82 -66t-107 -36.5q-52 -9 -93 -15t-69 -14t-42.5 -21.5t-14.5 -37.5q0 -23 18 -37.5t55 -26t92 -22t130 -25.5q136 -28 204 -94t68 -168q0 -140 -116 -214.5t-343 -74.5q-224 0 -337 72t-113 207q0 97 66.5 160t199.5 87q-51 23 -76.5 50.5
t-25.5 62.5q0 37 31 66t94 55zM172 -172q0 -137 268 -137q134 0 204.5 35t70.5 92q0 131 -330 131q-49 0 -88.5 -9.5t-67 -26t-42.5 -38.5t-15 -47zM410 1403h178l196 -348h-106l-178 241l-181 -241h-106z" />
    <glyph glyph-name="Gdotaccent" unicode="&#x120;" horiz-adv-x="1450" 
d="M1341 94q-136 -59 -259 -89t-238 -30q-125 0 -236 30.5t-205 92.5q-78 51 -139 117t-103.5 143.5t-64.5 165t-22 181.5q0 70 14.5 139.5t42.5 134t69 123t93 108.5q112 109 251 160t310 51q118 0 234.5 -27.5t240.5 -84.5v-217q-128 69 -244.5 105t-232.5 36
q-125 0 -229 -41.5t-178.5 -114t-116 -170t-41.5 -209.5t41 -209t115 -169t175.5 -113t223.5 -41q72 0 143.5 15.5t149.5 47.5v273h-263v184h469v-592zM735 1688q0 23 8.5 43t23.5 35t35.5 23.5t43.5 8.5t43 -8.5t35 -23.5t23.5 -35t8.5 -43t-8.5 -43.5t-23.5 -35.5
t-35 -23.5t-43 -8.5t-43.5 8.5t-35.5 23.5t-23.5 35.5t-8.5 43.5z" />
    <glyph glyph-name="gdotaccent" unicode="&#x121;" horiz-adv-x="915" 
d="M442 768q-44 0 -79 -13.5t-60.5 -37t-39 -56t-13.5 -69.5q0 -82 50.5 -127t141.5 -45t144 45.5t53 126.5q0 37 -14.5 69.5t-40.5 56t-62 37t-80 13.5zM281 295q-106 32 -159.5 106t-53.5 183q0 167 115 253.5t345 86.5h367v-150h-156q39 -42 56.5 -87.5t17.5 -100.5
q0 -59 -18.5 -109t-52.5 -89.5t-82 -66t-107 -36.5q-52 -9 -93 -15t-69 -14t-42.5 -21.5t-14.5 -37.5q0 -23 18 -37.5t55 -26t92 -22t130 -25.5q136 -28 204 -94t68 -168q0 -140 -116 -214.5t-343 -74.5q-224 0 -337 72t-113 207q0 97 66.5 160t199.5 87q-51 23 -76.5 50.5
t-25.5 62.5q0 37 31 66t94 55zM172 -172q0 -137 268 -137q134 0 204.5 35t70.5 92q0 131 -330 131q-49 0 -88.5 -9.5t-67 -26t-42.5 -38.5t-15 -47zM369 1208q0 23 8.5 43.5t23.5 35.5t35 23.5t43 8.5t43.5 -8.5t35.5 -23.5t23.5 -35.5t8.5 -43.5t-8.5 -43t-23.5 -35
t-35.5 -23.5t-43.5 -8.5t-43 8.5t-35 23.5t-23.5 35t-8.5 43z" />
    <glyph glyph-name="Gcommaaccent" unicode="&#x122;" horiz-adv-x="1450" 
d="M1341 94q-136 -59 -259 -89t-238 -30q-125 0 -236 30.5t-205 92.5q-78 51 -139 117t-103.5 143.5t-64.5 165t-22 181.5q0 70 14.5 139.5t42.5 134t69 123t93 108.5q112 109 251 160t310 51q118 0 234.5 -27.5t240.5 -84.5v-217q-128 69 -244.5 105t-232.5 36
q-125 0 -229 -41.5t-178.5 -114t-116 -170t-41.5 -209.5t41 -209t115 -169t175.5 -113t223.5 -41q72 0 143.5 15.5t149.5 47.5v273h-263v184h469v-592zM811 -332q-40 16 -64 43.5t-24 67.5q0 25 9 47t24.5 38t36.5 25t45 9q26 0 49 -10.5t40.5 -32t27.5 -54.5t10 -77
q0 -54 -19 -101t-51.5 -85.5t-74.5 -66.5t-87 -44l-2 36q40 34 60 76.5t20 102.5v26z" />
    <glyph glyph-name="gcommaaccent" unicode="&#x123;" horiz-adv-x="915" 
d="M514 1294q50 -12 73 -41t23 -69q0 -26 -9 -47.5t-24.5 -37.5t-36 -25t-44.5 -9q-26 0 -49.5 9.5t-40.5 29t-27 50.5t-10 73q0 54 23.5 104.5t60 92.5t81.5 71.5t87 40.5l2 -37q-22 -12 -41.5 -33.5t-34.5 -48.5t-24 -57t-9 -60v-6zM442 768q-44 0 -79 -13.5t-60.5 -37
t-39 -56t-13.5 -69.5q0 -82 50.5 -127t141.5 -45t144 45.5t53 126.5q0 37 -14.5 69.5t-40.5 56t-62 37t-80 13.5zM281 295q-106 32 -159.5 106t-53.5 183q0 167 115 253.5t345 86.5h367v-150h-156q39 -42 56.5 -87.5t17.5 -100.5q0 -59 -18.5 -109t-52.5 -89.5t-82 -66
t-107 -36.5q-52 -9 -93 -15t-69 -14t-42.5 -21.5t-14.5 -37.5q0 -23 18 -37.5t55 -26t92 -22t130 -25.5q136 -28 204 -94t68 -168q0 -140 -116 -214.5t-343 -74.5q-224 0 -337 72t-113 207q0 97 66.5 160t199.5 87q-51 23 -76.5 50.5t-25.5 62.5q0 37 31 66t94 55zM172 -172
q0 -137 268 -137q134 0 204.5 35t70.5 92q0 131 -330 131q-49 0 -88.5 -9.5t-67 -26t-42.5 -38.5t-15 -47z" />
    <glyph glyph-name="Hcircumflex" unicode="&#x124;" horiz-adv-x="1503" 
d="M150 1399h198v-602h807v602h199v-1399h-199v608h-807v-608h-198v1399zM664 1882h178l196 -348h-106l-178 242l-181 -242h-106z" />
    <glyph glyph-name="hcircumflex" unicode="&#x125;" horiz-adv-x="1026" 
d="M121 1399h184v-588q68 65 136 96t149 31q75 0 135.5 -22.5t102.5 -64.5t64.5 -102.5t22.5 -136.5v-612h-186v565q0 113 -46 166t-146 53q-73 0 -127.5 -27.5t-104.5 -90.5v-666h-184v1399zM127 1776h178l197 -349h-107l-178 242l-180 -242h-107z" />
    <glyph glyph-name="Hbar" unicode="&#x126;" horiz-adv-x="1503" 
d="M0 1270h150v129h198v-129h807v129h199v-129h149v-148h-149v-1122h-199v608h-807v-608h-198v1122h-150v148zM1155 797v325h-807v-325h807z" />
    <glyph glyph-name="hbar" unicode="&#x127;" horiz-adv-x="1026" 
d="M-20 1270h141v129h184v-129h342v-140h-342v-319q68 65 136 96t149 31q75 0 135.5 -22.5t102.5 -64.5t64.5 -102.5t22.5 -136.5v-612h-186v565q0 113 -46 166t-146 53q-73 0 -127.5 -27.5t-104.5 -90.5v-666h-184v1130h-141v140z" />
    <glyph glyph-name="Imacron" unicode="&#x12a;" horiz-adv-x="512" 
d="M156 1399h200v-1399h-200v1399zM-2 1712h516v-125h-516v125z" />
    <glyph glyph-name="imacron" unicode="&#x12b;" horiz-adv-x="432" 
d="M123 924h184v-924h-184v924zM-43 1274h516v-125h-516v125z" />
    <glyph glyph-name="Iogonek" unicode="&#x12e;" horiz-adv-x="512" 
d="M156 1399h200v-1399q-68 -62 -102.5 -116.5t-34.5 -106.5q0 -45 23 -63.5t75 -18.5h80l-41 -129h-39q-112 0 -166.5 39.5t-54.5 124.5q0 37 12 70t36 65t59.5 65t81.5 70h-129v1399z" />
    <glyph glyph-name="iogonek" unicode="&#x12f;" horiz-adv-x="430" 
d="M123 924h184v-924q-68 -62 -102.5 -116.5t-34.5 -106.5q0 -45 23 -63.5t75 -18.5h80l-41 -129h-39q-112 0 -166.5 39.5t-54.5 124.5q0 37 12 70t36 65t59.5 65t81.5 70h-113v924zM109 1196q0 22 8.5 41.5t22.5 34t33.5 23t41.5 8.5t41.5 -8.5t34 -23t23 -34t8.5 -41.5
t-8.5 -41.5t-23 -33.5t-34 -22.5t-41.5 -8.5q-45 0 -75.5 30.5t-30.5 75.5z" />
    <glyph glyph-name="Jcircumflex" unicode="&#x134;" horiz-adv-x="516" 
d="M-94 -287q78 0 127.5 13.5t78 45.5t39.5 84t11 130v1413h198v-1362q0 -74 -3 -136.5t-16 -116t-39.5 -98t-74.5 -81.5q-46 -37 -115.5 -56.5t-156.5 -19.5h-35l-45 184h31zM174 1882h178l197 -348h-107l-178 242l-180 -242h-107z" />
    <glyph glyph-name="jcircumflex" unicode="&#x135;" horiz-adv-x="430" 
d="M-4 -334q28 11 48.5 26.5t37.5 37.5q29 37 35 72t6 73v1049h184v-1033q0 -51 -3.5 -97t-20.5 -89q-9 -21 -22.5 -44.5t-34.5 -46t-49.5 -43t-65.5 -36.5zM125 1403h178l197 -348h-107l-178 241l-180 -241h-107z" />
    <glyph glyph-name="Kcommaaccent" unicode="&#x136;" horiz-adv-x="1251" 
d="M156 1399h200v-629l584 629h252l-608 -656l725 -743h-279l-674 692v-692h-200v1399zM655 -332q-40 16 -64 43.5t-24 67.5q0 25 9 47t24.5 38t36.5 25t45 9q26 0 49 -10.5t40.5 -32t27.5 -54.5t10 -77q0 -54 -19 -101t-51.5 -85.5t-74 -66.5t-86.5 -44l-3 36
q41 34 60.5 76.5t19.5 102.5v26z" />
    <glyph glyph-name="kcommaaccent" unicode="&#x137;" horiz-adv-x="989" 
d="M123 1399h184v-1399h-184v1399zM551 502l465 -502h-252l-451 492l398 432h227zM498 -332q-41 16 -64.5 43.5t-23.5 67.5q0 25 9 47t24.5 38t36 25t44.5 9q26 0 49 -10.5t40.5 -32t27.5 -54.5t10 -77q0 -54 -19 -101t-51 -85.5t-74 -66.5t-87 -44l-2 36q40 34 60 76.5
t20 102.5v26z" />
    <glyph glyph-name="Lacute" unicode="&#x139;" horiz-adv-x="1034" 
d="M156 1399h198v-1219h666v-180h-864v1399zM424 1882h178l-280 -348h-107z" />
    <glyph glyph-name="lacute" unicode="&#x13a;" horiz-adv-x="432" 
d="M123 1399h184v-1399h-184v1399zM369 1882h178l-281 -348h-106z" />
    <glyph glyph-name="Lcommaaccent" unicode="&#x13b;" horiz-adv-x="1034" 
d="M156 1399h198v-1219h666v-180h-864v1399zM575 -332q-40 16 -64 43.5t-24 67.5q0 25 9 47t25 38t36.5 25t44.5 9q26 0 49 -10.5t40.5 -32t27.5 -54.5t10 -77q0 -54 -19 -101t-51.5 -85.5t-74 -66.5t-86.5 -44l-2 36q40 34 59.5 76.5t19.5 102.5v26z" />
    <glyph glyph-name="lcommaaccent" unicode="&#x13c;" horiz-adv-x="432" 
d="M123 1399h184v-1399h-184v1399zM186 -332q-40 16 -64 43.5t-24 67.5q0 25 9 47t25 38t36.5 25t44.5 9q26 0 49 -10.5t40.5 -32t27.5 -54.5t10 -77q0 -54 -19 -101t-51.5 -85.5t-74 -66.5t-86.5 -44l-3 36q41 34 60.5 76.5t19.5 102.5v26z" />
    <glyph glyph-name="Lcaron" unicode="&#x13d;" horiz-adv-x="1034" 
d="M156 1399h198v-1219h666v-180h-864v1399zM610 1202q-40 16 -64 43.5t-24 67.5q0 25 9 45.5t24.5 34.5t36.5 22t45 8t46.5 -8.5t39.5 -27.5t27 -50t10 -75q0 -54 -18.5 -100t-50 -82.5t-73 -63.5t-86.5 -43l-2 37q20 17 35 33.5t25 36t15 43t5 53.5v26z" />
    <glyph glyph-name="lcaron" unicode="&#x13e;" horiz-adv-x="596" 
d="M123 1399h184v-1399h-184v1399zM487 1202q-40 16 -64 43.5t-24 67.5q0 25 9 45.5t25 34.5t36.5 22t44.5 8q25 0 47 -8.5t39 -27.5t27 -50t10 -75q0 -54 -18.5 -100t-50 -82.5t-72.5 -63.5t-86 -43l-2 37q20 17 35 33.5t24.5 36t14.5 43t5 53.5v26z" />
    <glyph glyph-name="Ldot" unicode="&#x13f;" horiz-adv-x="1034" 
d="M156 1399h198v-1219h666v-180h-864v1399zM670 717q0 23 8.5 43t23.5 35t35 23.5t43 8.5t43.5 -8.5t35.5 -23.5t23.5 -35t8.5 -43t-8.5 -43.5t-23.5 -35.5t-35.5 -23.5t-43.5 -8.5t-43 8.5t-35 23.5t-23.5 35.5t-8.5 43.5z" />
    <glyph glyph-name="ldot" unicode="&#x140;" horiz-adv-x="731" 
d="M123 1399h184v-1399h-184v1399zM467 717q0 23 8.5 43t23.5 35t35.5 23.5t43.5 8.5t43 -8.5t35 -23.5t23.5 -35t8.5 -43t-8.5 -43.5t-23.5 -35.5t-35 -23.5t-43 -8.5t-43.5 8.5t-35.5 23.5t-23.5 35.5t-8.5 43.5z" />
    <glyph glyph-name="Nacute" unicode="&#x143;" horiz-adv-x="1593" 
d="M150 1399h174l921 -1086v1086h199v-1399h-178l-918 1087v-1087h-198v1399zM897 1882h178l-280 -348h-107z" />
    <glyph glyph-name="nacute" unicode="&#x144;" horiz-adv-x="1022" 
d="M117 924h184v-113q68 65 136 96t149 31q75 0 135 -22.5t101.5 -64.5t64 -102.5t22.5 -136.5v-612h-184v565q0 113 -47 166t-148 53q-72 0 -125 -27.5t-104 -90.5v-666h-184v924zM643 1403h178l-280 -348h-107z" />
    <glyph glyph-name="Ncommaaccent" unicode="&#x145;" horiz-adv-x="1593" 
d="M150 1399h174l921 -1086v1086h199v-1399h-178l-918 1087v-1087h-198v1399zM768 -332q-40 16 -64 43.5t-24 67.5q0 25 9 47t24.5 38t36.5 25t45 9q26 0 49 -10.5t40.5 -32t27.5 -54.5t10 -77q0 -54 -19 -101t-51.5 -85.5t-74.5 -66.5t-87 -44l-2 36q40 34 60 76.5
t20 102.5v26z" />
    <glyph glyph-name="ncommaaccent" unicode="&#x146;" horiz-adv-x="1022" 
d="M117 924h184v-113q68 65 136 96t149 31q75 0 135 -22.5t101.5 -64.5t64 -102.5t22.5 -136.5v-612h-184v565q0 113 -47 166t-148 53q-72 0 -125 -27.5t-104 -90.5v-666h-184v924zM489 -332q-40 16 -64 43.5t-24 67.5q0 25 9 47t25 38t36.5 25t44.5 9q26 0 49 -10.5
t40.5 -32t27.5 -54.5t10 -77q0 -54 -19 -101t-51.5 -85.5t-74 -66.5t-86.5 -44l-2 36q40 34 59.5 76.5t19.5 102.5v26z" />
    <glyph glyph-name="Ncaron" unicode="&#x147;" horiz-adv-x="1593" 
d="M150 1399h174l921 -1086v1086h199v-1399h-178l-918 1087v-1087h-198v1399zM608 1882l180 -244l179 244h106l-196 -348h-179l-196 348h106z" />
    <glyph glyph-name="ncaron" unicode="&#x148;" horiz-adv-x="1022" 
d="M117 924h184v-113q68 65 136 96t149 31q75 0 135 -22.5t101.5 -64.5t64 -102.5t22.5 -136.5v-612h-184v565q0 113 -47 166t-148 53q-72 0 -125 -27.5t-104 -90.5v-666h-184v924zM373 1403l180 -244l178 244h107l-197 -348h-178l-197 348h107z" />
    <glyph glyph-name="Omacron" unicode="&#x14c;" horiz-adv-x="1640" 
d="M74 705q0 142 57 272.5t162 232.5q108 104 242.5 157.5t283.5 53.5q152 0 287.5 -53.5t241.5 -157.5q219 -213 219 -518q0 -142 -55.5 -272.5t-161.5 -233.5q-110 -105 -244 -158t-287 -53q-149 0 -285 54.5t-241 156.5q-108 106 -163.5 237.5t-55.5 281.5zM287 698
q0 -108 40 -204.5t115 -171.5q75 -76 173 -117t204 -41q110 0 206 40t173 118q75 75 115.5 171.5t40.5 204.5q0 109 -40.5 204t-117.5 173q-75 78 -171.5 118t-205.5 40q-106 0 -202.5 -41t-174.5 -117q-75 -74 -115 -171t-40 -206zM561 1712h516v-125h-516v125z" />
    <glyph glyph-name="omacron" unicode="&#x14d;" horiz-adv-x="1096" 
d="M57 463q0 100 38 187.5t104 152.5t156 103t194 38q99 0 187 -36.5t157 -104.5q71 -71 108 -157t37 -183q0 -96 -38 -186t-107 -158q-71 -69 -158 -104t-186 -35q-103 0 -193 37.5t-156.5 102.5t-104.5 153.5t-38 189.5zM250 463q0 -65 23.5 -121.5t63.5 -97.5t94 -64.5
t116 -23.5q61 0 115.5 24t94.5 65t63.5 97t23.5 121q0 64 -23.5 119.5t-63.5 96.5t-94.5 65t-115.5 24q-62 0 -116 -24t-94 -65t-63.5 -96.5t-23.5 -119.5zM289 1274h516v-125h-516v125z" />
    <glyph glyph-name="Ohungarumlaut" unicode="&#x150;" horiz-adv-x="1640" 
d="M74 705q0 142 57 272.5t162 232.5q108 104 242.5 157.5t283.5 53.5q152 0 287.5 -53.5t241.5 -157.5q219 -213 219 -518q0 -142 -55.5 -272.5t-161.5 -233.5q-110 -105 -244 -158t-287 -53q-149 0 -285 54.5t-241 156.5q-108 106 -163.5 237.5t-55.5 281.5zM287 698
q0 -108 40 -204.5t115 -171.5q75 -76 173 -117t204 -41q110 0 206 40t173 118q75 75 115.5 171.5t40.5 204.5q0 109 -40.5 204t-117.5 173q-75 78 -171.5 118t-205.5 40q-106 0 -202.5 -41t-174.5 -117q-75 -74 -115 -171t-40 -206zM831 1882h158l-221 -348h-84zM1110 1882
h156l-240 -348h-84z" />
    <glyph glyph-name="ohungarumlaut" unicode="&#x151;" horiz-adv-x="1096" 
d="M57 463q0 100 38 187.5t104 152.5t156 103t194 38q99 0 187 -36.5t157 -104.5q71 -71 108 -157t37 -183q0 -96 -38 -186t-107 -158q-71 -69 -158 -104t-186 -35q-103 0 -193 37.5t-156.5 102.5t-104.5 153.5t-38 189.5zM250 463q0 -65 23.5 -121.5t63.5 -97.5t94 -64.5
t116 -23.5q61 0 115.5 24t94.5 65t63.5 97t23.5 121q0 64 -23.5 119.5t-63.5 96.5t-94.5 65t-115.5 24q-62 0 -116 -24t-94 -65t-63.5 -96.5t-23.5 -119.5zM508 1403h158l-222 -348h-84zM786 1403h156l-240 -348h-84z" />
    <glyph glyph-name="Racute" unicode="&#x154;" horiz-adv-x="1157" 
d="M514 793q140 0 209.5 53.5t69.5 165.5q0 118 -69 167.5t-210 49.5h-166v-436h166zM147 1399h410q108 0 190.5 -26t138.5 -75t84.5 -120.5t28.5 -161.5q0 -137 -62.5 -221t-199.5 -127q47 -25 79.5 -65t66.5 -91l340 -512h-242l-240 367q-41 62 -76 110t-72.5 81t-81.5 50
t-103 17h-60v-625h-201v1399zM649 1882h178l-280 -348h-107z" />
    <glyph glyph-name="racute" unicode="&#x155;" horiz-adv-x="768" 
d="M119 924h184v-201q34 54 66 95t64.5 68t67 40.5t74.5 13.5q51 0 102.5 -22.5t108.5 -67.5l-100 -164q-43 37 -83.5 55.5t-88.5 18.5q-72 0 -129 -61t-82 -177v-522h-184v924zM578 1403h178l-281 -348h-106z" />
    <glyph glyph-name="Rcommaaccent" unicode="&#x156;" horiz-adv-x="1157" 
d="M514 793q140 0 209.5 53.5t69.5 165.5q0 118 -69 167.5t-210 49.5h-166v-436h166zM147 1399h410q108 0 190.5 -26t138.5 -75t84.5 -120.5t28.5 -161.5q0 -137 -62.5 -221t-199.5 -127q47 -25 79.5 -65t66.5 -91l340 -512h-242l-240 367q-41 62 -76 110t-72.5 81t-81.5 50
t-103 17h-60v-625h-201v1399zM635 -332q-40 16 -64 43.5t-24 67.5q0 25 9 47t24.5 38t36.5 25t45 9q26 0 49 -10.5t40 -32t27 -54.5t10 -77q0 -54 -19 -101t-51 -85.5t-74 -66.5t-87 -44l-2 36q40 34 60 76.5t20 102.5v26z" />
    <glyph glyph-name="rcommaaccent" unicode="&#x157;" horiz-adv-x="768" 
d="M119 924h184v-201q34 54 66 95t64.5 68t67 40.5t74.5 13.5q51 0 102.5 -22.5t108.5 -67.5l-100 -164q-43 37 -83.5 55.5t-88.5 18.5q-72 0 -129 -61t-82 -177v-522h-184v924zM178 -332q-40 16 -64 43.5t-24 67.5q0 25 9 47t24.5 38t36.5 25t45 9q26 0 49 -10.5t40.5 -32
t27.5 -54.5t10 -77q0 -54 -19 -101t-51.5 -85.5t-74.5 -66.5t-87 -44l-2 36q41 34 60.5 76.5t19.5 102.5v26z" />
    <glyph glyph-name="Rcaron" unicode="&#x158;" horiz-adv-x="1157" 
d="M514 793q140 0 209.5 53.5t69.5 165.5q0 118 -69 167.5t-210 49.5h-166v-436h166zM147 1399h410q108 0 190.5 -26t138.5 -75t84.5 -120.5t28.5 -161.5q0 -137 -62.5 -221t-199.5 -127q47 -25 79.5 -65t66.5 -91l340 -512h-242l-240 367q-41 62 -76 110t-72.5 81t-81.5 50
t-103 17h-60v-625h-201v1399zM350 1882l180 -244l179 244h106l-197 -348h-178l-196 348h106z" />
    <glyph glyph-name="rcaron" unicode="&#x159;" horiz-adv-x="768" 
d="M119 924h184v-201q34 54 66 95t64.5 68t67 40.5t74.5 13.5q51 0 102.5 -22.5t108.5 -67.5l-100 -164q-43 37 -83.5 55.5t-88.5 18.5q-72 0 -129 -61t-82 -177v-522h-184v924zM319 1403l181 -244l178 244h106l-196 -348h-178l-197 348h106z" />
    <glyph glyph-name="Sacute" unicode="&#x15a;" horiz-adv-x="944" 
d="M78 373q45 -51 89 -89.5t88 -64t91 -38.5t98 -13q106 0 165 48.5t59 131.5q0 44 -15 78t-45 64t-73.5 60t-100.5 66q-88 57 -155 104t-112 96t-68 105.5t-23 131.5q0 80 30 148t84 118t130 78t169 28q82 0 160.5 -24t157.5 -72v-227q-87 69 -164.5 105t-161.5 36
q-48 0 -87.5 -12.5t-67.5 -35t-43 -53t-15 -65.5q0 -41 19.5 -74.5t55.5 -65t87 -64t115 -72.5q77 -48 137.5 -92t102 -95.5t63.5 -116.5t22 -153q0 -78 -29.5 -145.5t-84 -117t-130.5 -78t-169 -28.5q-111 0 -202 31.5t-177 102.5v264zM645 1882h178l-280 -348h-107z" />
    <glyph glyph-name="sacute" unicode="&#x15b;" horiz-adv-x="770" 
d="M57 260q88 -59 164.5 -86t136.5 -27q73 0 112.5 27t39.5 72q0 27 -15.5 46.5t-44 38t-69 38t-90.5 45.5q-56 28 -98 56t-70 60.5t-42.5 71.5t-14.5 90q0 57 21 103.5t60.5 79.5t97.5 51t132 18q78 0 149.5 -18.5t141.5 -57.5v-180q-81 45 -152 68.5t-137 23.5
q-59 0 -90 -20t-31 -58q0 -27 13.5 -48t40.5 -40.5t66.5 -40t90.5 -45.5q58 -29 103.5 -55.5t76 -58t46.5 -71t16 -93.5q0 -60 -23.5 -109.5t-67 -84.5t-105 -54.5t-138.5 -19.5q-88 0 -166 19.5t-154 61.5v197zM539 1403h178l-281 -348h-106z" />
    <glyph glyph-name="Scircumflex" unicode="&#x15c;" horiz-adv-x="944" 
d="M78 373q45 -51 89 -89.5t88 -64t91 -38.5t98 -13q106 0 165 48.5t59 131.5q0 44 -15 78t-45 64t-73.5 60t-100.5 66q-88 57 -155 104t-112 96t-68 105.5t-23 131.5q0 80 30 148t84 118t130 78t169 28q82 0 160.5 -24t157.5 -72v-227q-87 69 -164.5 105t-161.5 36
q-48 0 -87.5 -12.5t-67.5 -35t-43 -53t-15 -65.5q0 -41 19.5 -74.5t55.5 -65t87 -64t115 -72.5q77 -48 137.5 -92t102 -95.5t63.5 -116.5t22 -153q0 -78 -29.5 -145.5t-84 -117t-130.5 -78t-169 -28.5q-111 0 -202 31.5t-177 102.5v264zM395 1882h178l197 -348h-106
l-179 242l-180 -242h-106z" />
    <glyph glyph-name="scircumflex" unicode="&#x15d;" horiz-adv-x="770" 
d="M57 260q88 -59 164.5 -86t136.5 -27q73 0 112.5 27t39.5 72q0 27 -15.5 46.5t-44 38t-69 38t-90.5 45.5q-56 28 -98 56t-70 60.5t-42.5 71.5t-14.5 90q0 57 21 103.5t60.5 79.5t97.5 51t132 18q78 0 149.5 -18.5t141.5 -57.5v-180q-81 45 -152 68.5t-137 23.5
q-59 0 -90 -20t-31 -58q0 -27 13.5 -48t40.5 -40.5t66.5 -40t90.5 -45.5q58 -29 103.5 -55.5t76 -58t46.5 -71t16 -93.5q0 -60 -23.5 -109.5t-67 -84.5t-105 -54.5t-138.5 -19.5q-88 0 -166 19.5t-154 61.5v197zM295 1403h178l197 -348h-107l-178 241l-180 -241h-107z" />
    <glyph glyph-name="Tcedilla" unicode="&#x162;" horiz-adv-x="1255" 
d="M528 1219h-514v180h1227v-180h-514v-1219h-68v-106h23q112 0 169.5 -45t57.5 -132q0 -89 -63 -135.5t-187 -46.5q-49 0 -110.5 10.5t-138.5 30.5v88q80 -18 142 -27.5t105 -9.5q121 0 121 84q0 53 -33.5 76t-105.5 23q-12 0 -24.5 -0.5t-26.5 -2.5v193h-60v1219z" />
    <glyph glyph-name="tcedilla" unicode="&#x163;" horiz-adv-x="659" 
d="M141 -336q81 -18 143 -27.5t105 -9.5q121 0 121 84q0 53 -33.5 76t-105.5 23q-13 0 -25.5 -0.5t-26.5 -2.5v187q-51 12 -84.5 37.5t-53.5 67t-28 98t-8 129.5v438h-157v18l323 357h21v-215h289v-160h-289v-424q0 -49 4 -83.5t18 -56.5t41 -32t72 -10q42 0 81.5 11
t78.5 34v-174q-45 -25 -94 -36t-105 -11h-19t-18 2v-90h23q112 0 169.5 -45t57.5 -132q0 -89 -63 -135.5t-187 -46.5q-49 0 -110.5 10.5t-139.5 30.5v88z" />
    <glyph glyph-name="Tcaron" unicode="&#x164;" horiz-adv-x="1255" 
d="M528 1219h-514v180h1227v-180h-514v-1219h-199v1219zM449 1882l180 -244l178 244h106l-196 -348h-178l-197 348h107z" />
    <glyph glyph-name="tcaron" unicode="&#x165;" horiz-adv-x="659" 
d="M627 29q-45 -25 -94 -36t-105 -11q-84 0 -139 20t-87 62t-44.5 107t-12.5 155v438h-157v18l323 357h21v-215h289v-160h-289v-424q0 -49 4 -83.5t18 -56.5t41 -32t72 -10q42 0 81.5 11t78.5 34v-174zM508 1202q-40 16 -64 43.5t-24 67.5q0 25 9 45.5t24.5 34.5t36.5 22
t45 8t46.5 -8.5t39 -27.5t26.5 -50t10 -75q0 -54 -18.5 -100t-49.5 -82.5t-72.5 -63.5t-86.5 -43l-2 37q20 17 35 33.5t25 36t15 43t5 53.5v26z" />
    <glyph glyph-name="Umacron" unicode="&#x16a;" horiz-adv-x="1487" 
d="M340 1399v-803q0 -47 1.5 -87.5t7.5 -76t18.5 -66t35.5 -57.5q124 -145 340 -145q91 0 166 25t127.5 70t81.5 108t29 139v893h199v-899q0 -116 -43.5 -212.5t-122.5 -166t-190.5 -108t-246.5 -38.5q-162 0 -288.5 56.5t-214.5 165.5q-36 43 -55.5 88t-29.5 93t-12 100
t-2 110v811h199zM485 1712h516v-125h-516v125z" />
    <glyph glyph-name="umacron" unicode="&#x16b;" horiz-adv-x="1022" 
d="M721 113q-68 -65 -136 -96t-149 -31q-75 0 -135 22.5t-102.5 64.5t-65 102t-22.5 136v613h186v-566q0 -112 47 -165.5t148 -53.5q72 0 125 28t104 91v666h184v-924h-184v113zM260 1274h516v-125h-516v125z" />
    <glyph glyph-name="Ubreve" unicode="&#x16c;" horiz-adv-x="1487" 
d="M340 1399v-803q0 -47 1.5 -87.5t7.5 -76t18.5 -66t35.5 -57.5q124 -145 340 -145q91 0 166 25t127.5 70t81.5 108t29 139v893h199v-899q0 -116 -43.5 -212.5t-122.5 -166t-190.5 -108t-246.5 -38.5q-162 0 -288.5 56.5t-214.5 165.5q-36 43 -55.5 88t-29.5 93t-12 100
t-2 110v811h199zM551 1802q6 -77 52 -111t140 -34t140.5 34t52.5 111h90q-11 -140 -78 -206t-205 -66q-136 0 -204.5 66t-77.5 206h90z" />
    <glyph glyph-name="ubreve" unicode="&#x16d;" horiz-adv-x="1022" 
d="M721 113q-68 -65 -136 -96t-149 -31q-75 0 -135 22.5t-102.5 64.5t-65 102t-22.5 136v613h186v-566q0 -112 47 -165.5t148 -53.5q72 0 125 28t104 91v666h184v-924h-184v113zM317 1364q7 -77 53 -111t140 -34t140 34t52 111h91q-11 -140 -78.5 -206t-204.5 -66
q-136 0 -204.5 66t-78.5 206h90z" />
    <glyph glyph-name="Uring" unicode="&#x16e;" horiz-adv-x="1487" 
d="M340 1399v-803q0 -47 1.5 -87.5t7.5 -76t18.5 -66t35.5 -57.5q124 -145 340 -145q91 0 166 25t127.5 70t81.5 108t29 139v893h199v-899q0 -116 -43.5 -212.5t-122.5 -166t-190.5 -108t-246.5 -38.5q-162 0 -288.5 56.5t-214.5 165.5q-36 43 -55.5 88t-29.5 93t-12 100
t-2 110v811h199zM496 1710q0 52 19 97t52.5 78t78.5 52t97 19t97.5 -19t79 -52t52.5 -78t19 -97t-19 -97.5t-52.5 -79t-79 -52.5t-97.5 -19t-97 19t-78.5 52.5t-52.5 79t-19 97.5zM602 1708q0 -30 11 -56t30 -45.5t44.5 -30.5t55.5 -11t56 11t45.5 30.5t31 45.5t11.5 56
t-11.5 56t-31 45.5t-45.5 30.5t-56 11t-56 -11t-45 -30.5t-29.5 -45.5t-10.5 -56z" />
    <glyph glyph-name="uring" unicode="&#x16f;" horiz-adv-x="1022" 
d="M721 113q-68 -65 -136 -96t-149 -31q-75 0 -135 22.5t-102.5 64.5t-65 102t-22.5 136v613h186v-566q0 -112 47 -165.5t148 -53.5q72 0 125 28t104 91v666h184v-924h-184v113zM262 1260q0 52 19 97t52.5 78t79 51.5t97.5 18.5t97.5 -18.5t79 -51.5t52.5 -78t19 -97
q0 -53 -19 -98t-52.5 -78.5t-79 -52.5t-97.5 -19t-97.5 19t-79 52.5t-52.5 78.5t-19 98zM369 1257q0 -30 11 -56t29.5 -45.5t44.5 -30.5t56 -11t56 11t45.5 30.5t30.5 45.5t11 56t-11 56t-30.5 45.5t-45.5 31t-56 11.5q-31 0 -57 -11.5t-44.5 -31t-29 -45.5t-10.5 -56z" />
    <glyph glyph-name="Uhungarumlaut" unicode="&#x170;" horiz-adv-x="1487" 
d="M340 1399v-803q0 -47 1.5 -87.5t7.5 -76t18.5 -66t35.5 -57.5q124 -145 340 -145q91 0 166 25t127.5 70t81.5 108t29 139v893h199v-899q0 -116 -43.5 -212.5t-122.5 -166t-190.5 -108t-246.5 -38.5q-162 0 -288.5 56.5t-214.5 165.5q-36 43 -55.5 88t-29.5 93t-12 100
t-2 110v811h199zM709 1882h157l-221 -348h-84zM987 1882h156l-240 -348h-84z" />
    <glyph glyph-name="uhungarumlaut" unicode="&#x171;" horiz-adv-x="1022" 
d="M721 113q-68 -65 -136 -96t-149 -31q-75 0 -135 22.5t-102.5 64.5t-65 102t-22.5 136v613h186v-566q0 -112 47 -165.5t148 -53.5q72 0 125 28t104 91v666h184v-924h-184v113zM467 1403h158l-222 -348h-84zM745 1403h156l-239 -348h-84z" />
    <glyph glyph-name="Uogonek" unicode="&#x172;" horiz-adv-x="1487" 
d="M340 1399v-803q0 -47 1.5 -87.5t7.5 -76t18.5 -66t35.5 -57.5q124 -145 340 -145q91 0 166 25t127.5 70t81.5 108t29 139v893h199v-899q0 -79 -20.5 -149t-59 -129t-93 -106t-122.5 -79q-18 -15 -37 -34.5t-36.5 -38.5t-32 -36.5t-21.5 -29.5q-22 -31 -34.5 -61.5
t-12.5 -59.5q0 -45 22.5 -63.5t75.5 -18.5h80l-41 -129h-39q-113 0 -167 39.5t-54 124.5q0 45 17.5 83t51.5 78q25 29 55.5 58t61.5 51q-45 -12 -94.5 -18.5t-102.5 -6.5q-162 0 -288.5 56.5t-214.5 165.5q-36 43 -55.5 88t-29.5 93t-12 100t-2 110v811h199z" />
    <glyph glyph-name="uogonek" unicode="&#x173;" horiz-adv-x="1022" 
d="M721 113q-36 -29 -70 -52t-68.5 -40t-70.5 -26t-76 -9q-75 0 -135 22.5t-102.5 64.5t-65 102t-22.5 136v613h186v-566q0 -112 47 -165.5t148 -53.5q72 0 125 28t104 91v666h184v-924h-112q-69 -62 -103.5 -116.5t-34.5 -106.5q0 -45 23 -63.5t76 -18.5h80l-41 -129h-39
q-113 0 -167.5 39.5t-54.5 124.5q0 37 14 70t39 65.5t59.5 65.5t76.5 69v113v0z" />
    <glyph glyph-name="Zacute" unicode="&#x179;" horiz-adv-x="1305" 
d="M934 1223h-854v176h1200v-23l-903 -1204h903v-172h-1266zM791 1882h178l-281 -348h-106z" />
    <glyph glyph-name="zacute" unicode="&#x17a;" horiz-adv-x="903" 
d="M18 25l517 727h-496v172h817v-21l-506 -731h514v-172h-846v25zM584 1403h178l-281 -348h-106z" />
    <glyph glyph-name="Zdotaccent" unicode="&#x17b;" horiz-adv-x="1305" 
d="M934 1223h-854v176h1200v-23l-903 -1204h903v-172h-1266zM575 1688q0 23 9 43t24 35t35 23.5t43 8.5t43.5 -8.5t35.5 -23.5t23.5 -35t8.5 -43t-8.5 -43.5t-23.5 -35.5t-35.5 -23.5t-43.5 -8.5t-43 8.5t-35 23.5t-24 35.5t-9 43.5z" />
    <glyph glyph-name="zdotaccent" unicode="&#x17c;" horiz-adv-x="903" 
d="M18 25l517 727h-496v172h817v-21l-506 -731h514v-172h-846v25zM328 1208q0 23 8.5 43.5t23.5 35.5t35 23.5t43 8.5t43.5 -8.5t35.5 -23.5t23.5 -35.5t8.5 -43.5t-8.5 -43t-23.5 -35t-35.5 -23.5t-43.5 -8.5t-43 8.5t-35 23.5t-23.5 35t-8.5 43z" />
    <glyph glyph-name="uni018F" unicode="&#x18f;" horiz-adv-x="1493" 
d="M1198 795q-11 58 -30 106.5t-44 88.5t-53.5 72t-58.5 56q-71 57 -158 86t-199 29q-62 0 -128 -10.5t-128 -32.5q-55 -20 -114.5 -47.5t-112.5 -59.5v217q57 29 112 49t107 35q25 8 62 14.5t76 11.5t75 8t60 3q60 0 126 -6.5t134 -26.5t136.5 -56.5t133.5 -96.5
q60 -56 102.5 -118t70 -129.5t40 -138.5t12.5 -144q0 -74 -14.5 -147t-42.5 -141.5t-68.5 -129.5t-91.5 -111q-100 -97 -220.5 -149t-248.5 -52q-148 0 -264 54t-203 145q-48 51 -84 116.5t-60 140.5t-36 157.5t-12 167.5v39h1124zM289 614q6 -96 43.5 -186t103.5 -152
q56 -51 128.5 -81.5t168.5 -30.5q90 0 173.5 30t152.5 101q31 31 56.5 70.5t44 82t28.5 85.5t10 81h-909z" />
    <glyph glyph-name="uni01DD" unicode="&#x1dd;" horiz-adv-x="999" 
d="M260 360q4 -51 23.5 -92t50.5 -70t71.5 -45t88.5 -16q106 0 171 57t85 166h-490zM82 805q43 29 87.5 54.5t92.5 43.5q48 19 99 29t104 10q111 0 199.5 -36t150.5 -101.5t95.5 -157.5t33.5 -203q0 -103 -32.5 -188t-92 -146.5t-143 -95.5t-184.5 -34q-99 0 -179 33
t-137 95.5t-88 152.5t-31 204v27h693q-8 133 -86 205.5t-209 72.5q-51 0 -97 -11.5t-90 -31.5q-32 -15 -69 -37.5t-68 -42.5z" />
    <glyph glyph-name="Gcaron" unicode="&#x1e6;" horiz-adv-x="1450" 
d="M1341 94q-136 -59 -259 -89t-238 -30q-125 0 -236 30.5t-205 92.5q-78 51 -139 117t-103.5 143.5t-64.5 165t-22 181.5q0 70 14.5 139.5t42.5 134t69 123t93 108.5q112 109 251 160t310 51q118 0 234.5 -27.5t240.5 -84.5v-217q-128 69 -244.5 105t-232.5 36
q-125 0 -229 -41.5t-178.5 -114t-116 -170t-41.5 -209.5t41 -209t115 -169t175.5 -113t223.5 -41q72 0 143.5 15.5t149.5 47.5v273h-263v184h469v-592zM545 1882l180 -244l178 244h107l-197 -348h-178l-197 348h107z" />
    <glyph glyph-name="gcaron" unicode="&#x1e7;" horiz-adv-x="915" 
d="M442 768q-44 0 -79 -13.5t-60.5 -37t-39 -56t-13.5 -69.5q0 -82 50.5 -127t141.5 -45t144 45.5t53 126.5q0 37 -14.5 69.5t-40.5 56t-62 37t-80 13.5zM281 295q-106 32 -159.5 106t-53.5 183q0 167 115 253.5t345 86.5h367v-150h-156q39 -42 56.5 -87.5t17.5 -100.5
q0 -59 -18.5 -109t-52.5 -89.5t-82 -66t-107 -36.5q-52 -9 -93 -15t-69 -14t-42.5 -21.5t-14.5 -37.5q0 -23 18 -37.5t55 -26t92 -22t130 -25.5q136 -28 204 -94t68 -168q0 -140 -116 -214.5t-343 -74.5q-224 0 -337 72t-113 207q0 97 66.5 160t199.5 87q-51 23 -76.5 50.5
t-25.5 62.5q0 37 31 66t94 55zM172 -172q0 -137 268 -137q134 0 204.5 35t70.5 92q0 131 -330 131q-49 0 -88.5 -9.5t-67 -26t-42.5 -38.5t-15 -47zM279 1403l180 -244l178 244h106l-196 -348h-178l-197 348h107z" />
    <glyph glyph-name="Scommaaccent" unicode="&#x218;" horiz-adv-x="944" 
d="M78 373q45 -51 89 -89.5t88 -64t91 -38.5t98 -13q106 0 165 48.5t59 131.5q0 44 -15 78t-45 64t-73.5 60t-100.5 66q-88 57 -155 104t-112 96t-68 105.5t-23 131.5q0 80 30 148t84 118t130 78t169 28q82 0 160.5 -24t157.5 -72v-227q-87 69 -164.5 105t-161.5 36
q-48 0 -87.5 -12.5t-67.5 -35t-43 -53t-15 -65.5q0 -41 19.5 -74.5t55.5 -65t87 -64t115 -72.5q77 -48 137.5 -92t102 -95.5t63.5 -116.5t22 -153q0 -78 -29.5 -145.5t-84 -117t-130.5 -78t-169 -28.5q-111 0 -202 31.5t-177 102.5v264zM424 -332q-40 16 -64 43.5t-24 67.5
q0 25 9 47t24.5 38t36.5 25t45 9q26 0 49 -10.5t40.5 -32t27.5 -54.5t10 -77q0 -54 -19 -101t-51.5 -85.5t-74.5 -66.5t-87 -44l-2 36q40 34 60 76.5t20 102.5v26z" />
    <glyph glyph-name="scommaaccent" unicode="&#x219;" horiz-adv-x="770" 
d="M57 260q88 -59 164.5 -86t136.5 -27q73 0 112.5 27t39.5 72q0 27 -15.5 46.5t-44 38t-69 38t-90.5 45.5q-56 28 -98 56t-70 60.5t-42.5 71.5t-14.5 90q0 57 21 103.5t60.5 79.5t97.5 51t132 18q78 0 149.5 -18.5t141.5 -57.5v-180q-81 45 -152 68.5t-137 23.5
q-59 0 -90 -20t-31 -58q0 -27 13.5 -48t40.5 -40.5t66.5 -40t90.5 -45.5q58 -29 103.5 -55.5t76 -58t46.5 -71t16 -93.5q0 -60 -23.5 -109.5t-67 -84.5t-105 -54.5t-138.5 -19.5q-88 0 -166 19.5t-154 61.5v197zM328 -332q-41 16 -64.5 43.5t-23.5 67.5q0 25 9 47t24.5 38
t36 25t44.5 9q26 0 49 -10.5t40.5 -32t27.5 -54.5t10 -77q0 -54 -19 -101t-51 -85.5t-74 -66.5t-87 -44l-2 36q40 34 60 76.5t20 102.5v26z" />
    <glyph glyph-name="Tcommaaccent" unicode="&#x21a;" horiz-adv-x="1255" 
d="M528 1219h-514v180h1227v-180h-514v-1219h-199v1219zM602 -332q-40 16 -64 43.5t-24 67.5q0 25 9 47t24.5 38t36.5 25t45 9q26 0 49 -10.5t40.5 -32t27.5 -54.5t10 -77q0 -54 -19 -101t-51.5 -85.5t-74.5 -66.5t-87 -44l-2 36q40 34 60 76.5t20 102.5v26z" />
    <glyph glyph-name="tcommaaccent" unicode="&#x21b;" horiz-adv-x="659" 
d="M627 29q-45 -25 -94 -36t-105 -11q-84 0 -139 20t-87 62t-44.5 107t-12.5 155v438h-157v18l323 357h21v-215h289v-160h-289v-424q0 -49 4 -83.5t18 -56.5t41 -32t72 -10q42 0 81.5 11t78.5 34v-174zM379 -332q-40 16 -64 43.5t-24 67.5q0 25 9 47t24.5 38t36.5 25t45 9
q26 0 49 -10.5t40 -32t27 -54.5t10 -77q0 -54 -19 -101t-51 -85.5t-74 -66.5t-87 -44l-2 36q40 34 60 76.5t20 102.5v26z" />
    <glyph glyph-name="uni0237" unicode="&#x237;" horiz-adv-x="430" 
d="M-4 -334q28 11 48.5 26.5t37.5 37.5q29 37 35 72t6 73v1049h184v-1033q0 -51 -3.5 -97t-20.5 -89q-9 -21 -22.5 -44.5t-34.5 -46t-49.5 -43t-65.5 -36.5l-115 131v0z" />
    <glyph glyph-name="uni0259" unicode="&#x259;" horiz-adv-x="999" 
d="M260 360q4 -51 23.5 -92t50.5 -70t71.5 -45t88.5 -16q106 0 171 57t85 166h-490zM82 805q43 29 87.5 54.5t92.5 43.5q48 19 99 29t104 10q111 0 199.5 -36t150.5 -101.5t95.5 -157.5t33.5 -203q0 -103 -32.5 -188t-92 -146.5t-143 -95.5t-184.5 -34q-99 0 -179 33
t-137 95.5t-88 152.5t-31 204v27h693q-8 133 -86 205.5t-209 72.5q-51 0 -97 -11.5t-90 -31.5q-32 -15 -69 -37.5t-68 -42.5z" />
    <glyph glyph-name="afii57929" unicode="&#x2bc;" horiz-adv-x="471" 
d="M205 1202q-40 16 -64 43.5t-24 67.5q0 51 33 80.5t81 29.5q25 0 47 -8.5t39 -27.5t27 -50t10 -75q0 -54 -18.5 -100t-49.5 -82.5t-72.5 -63.5t-86.5 -43l-2 37q20 17 35 33.5t25 36t15 43t5 53.5v26v0z" />
    <glyph glyph-name="gravecomb" unicode="&#x300;" horiz-adv-x="0" 
d="M-604 1055l-281 348h178l209 -348h-106z" />
    <glyph glyph-name="acutecomb" unicode="&#x301;" horiz-adv-x="0" 
d="M-379 1403h178l-280 -348h-107z" />
    <glyph glyph-name="anoteleia" unicode="&#x387;" horiz-adv-x="516" 
d="M139 707q0 25 9.5 47t26 38t38.5 25.5t47 9.5t47.5 -9.5t38.5 -25.5t25.5 -38t9.5 -47q0 -26 -9.5 -48t-25.5 -38t-38.5 -25.5t-47.5 -9.5t-47 9.5t-38.5 25.5t-26 38t-9.5 48z" />
    <glyph glyph-name="afii10146" unicode="&#x462;" horiz-adv-x="1219" 
d="M457 1106v-287h200q42 0 87.5 -4t90.5 -15t89.5 -30t85.5 -49q31 -23 58.5 -54t47.5 -70.5t31.5 -88.5t11.5 -109q0 -74 -24 -142.5t-70 -119.5q-21 -24 -53.5 -48t-78.5 -44t-107 -32.5t-140 -12.5h-428v1106h-246v180h246v156h199v-156h403v-180h-403zM457 180h213
q25 0 53.5 1.5t56.5 6.5t54.5 16t48.5 29q10 9 22 23.5t22 35.5t16.5 49.5t6.5 64.5q0 123 -88 182q-27 19 -56.5 29.5t-59.5 15t-58 5.5t-51 1h-180v-459z" />
    <glyph glyph-name="afii10194" unicode="&#x463;" horiz-adv-x="1077" 
d="M463 582h153q31 0 66 -1t70.5 -6t71 -15t67.5 -28q23 -13 47 -33t44 -49.5t33 -69.5t13 -91q0 -45 -10 -80t-24 -61.5t-30.5 -45t-29.5 -28.5q-29 -24 -61 -38.5t-65 -22.5t-67 -10.5t-65 -2.5h-397v764h-193v160h193v215h184v-215h268v-160h-268v-182zM463 160h184
q66 0 98.5 12.5t45.5 22.5q29 23 37 49.5t8 48.5q0 20 -8 45t-35 47q-17 13 -37.5 20.5t-40.5 11t-39 4.5t-33 1h-180v-262z" />
    <glyph glyph-name="afii10147" unicode="&#x472;" horiz-adv-x="1640" 
d="M74 705q0 142 57 272.5t162 232.5q108 104 242.5 157.5t283.5 53.5q152 0 287.5 -53.5t241.5 -157.5q219 -213 219 -518q0 -142 -55.5 -272.5t-161.5 -233.5q-110 -105 -244 -158t-287 -53q-149 0 -285 54.5t-241 156.5q-108 106 -163.5 237.5t-55.5 281.5zM1198 322
q59 58 96.5 131.5t51.5 154.5h-1053q14 -81 51.5 -154.5t97.5 -131.5q75 -76 173 -117t204 -41q110 0 206 40t173 118zM442 1075q-58 -57 -95 -128.5t-52 -149.5h1048q-14 78 -51 148t-96 130q-75 78 -171.5 118t-205.5 40q-106 0 -202.5 -41t-174.5 -117z" />
    <glyph glyph-name="afii10195" unicode="&#x473;" horiz-adv-x="1096" 
d="M57 463q0 100 38 187.5t104 152.5t156 103t194 38q99 0 187 -36.5t157 -104.5q71 -71 108 -157t37 -183q0 -96 -38 -186t-107 -158q-71 -69 -158 -104t-186 -35q-103 0 -193 37.5t-156.5 102.5t-104.5 153.5t-38 189.5zM547 156q53 0 100.5 18t85.5 49.5t64.5 75
t38.5 94.5h-580q12 -52 39 -95.5t65.5 -75t86 -49t100.5 -17.5zM547 768q-51 0 -97.5 -16.5t-84 -46.5t-65 -71t-40.5 -89h574q-13 48 -40.5 89t-65.5 71t-84 46.5t-97 16.5z" />
    <glyph glyph-name="afii10148" unicode="&#x474;" horiz-adv-x="1288" 
d="M1350 1241h-11q-57 0 -94 -8.5t-65 -28.5t-52 -59.5t-43 -79.5l-458 -1075h-52l-616 1409h209l436 -998l277 666q9 20 26 57.5t39.5 79t50 81t56.5 63.5q23 18 47.5 32.5t54 24.5t64 15t77.5 5h9z" />
    <glyph glyph-name="afii10196" unicode="&#x475;" horiz-adv-x="909" 
d="M862 750q-16 -12 -30.5 -32t-26 -39.5t-18 -35t-7.5 -16.5l-278 -645h-86l-445 942h205l289 -613l149 359q10 24 22 50t27 52t32 50t38 44q42 41 91.5 56.5t103.5 21.5l51 -160q-38 -3 -66 -10t-51 -24z" />
    <glyph glyph-name="uni1E9E" unicode="&#x1e9e;" horiz-adv-x="1186" 
d="M150 1012q0 37 8.5 76t25 76.5t41.5 72t58 61.5q54 45 125 73t163 28q99 0 174 -27.5t129 -77.5q57 -54 87.5 -131t33.5 -182l-204 -217q36 -8 70.5 -22t65.5 -32.5t57.5 -40t45.5 -44.5q42 -50 60 -111.5t18 -132.5q0 -88 -35.5 -159t-95.5 -122q-32 -27 -64.5 -46
t-69 -31t-80 -17.5t-97.5 -5.5q-35 0 -65 5t-53 11q-26 7 -48 17v182q19 -10 43 -17q20 -6 46.5 -11t55.5 -5q56 0 102.5 14.5t81.5 49.5q29 29 47.5 67t18.5 90q0 56 -25.5 100.5t-74.5 71.5q-44 25 -105 37t-149 15v80l243 278q0 54 -15 98.5t-46 75.5q-28 28 -66 44
t-88 16q-45 0 -85 -16t-68 -44q-19 -19 -32.5 -43.5t-21.5 -51.5t-12 -54t-4 -52v-958h-196v1012z" />
    <glyph glyph-name="uni2010" unicode="&#x2010;" horiz-adv-x="692" 
d="M84 545h524v-166h-524v166z" />
    <glyph glyph-name="uni2011" unicode="&#x2011;" horiz-adv-x="692" 
d="M84 545h524v-166h-524v166z" />
    <glyph glyph-name="figuredash" unicode="&#x2012;" horiz-adv-x="1024" 
d="M1024 649h-1024v123h1024v-123z" />
    <glyph glyph-name="afii00208" unicode="&#x2015;" horiz-adv-x="2048" 
d="M0 524h2048v-123h-2048v123z" />
    <glyph glyph-name="fraction.001" unicode="&#x2044;" horiz-adv-x="350" 
d="M-342 -25l872 1446h152l-872 -1446h-152z" />
    <glyph glyph-name="uni20B4" unicode="&#x20b4;" horiz-adv-x="1034" 
d="M897 57q-90 -46 -177.5 -64t-180.5 -18q-39 0 -77 3t-75 12t-72 25.5t-67 43.5q-29 24 -50 52.5t-34 58.5t-19 61.5t-6 61.5q0 20 4 43.5t11 47t17.5 46.5t23.5 41q6 9 13.5 18.5t16.5 18.5h-159v110h243l168 164h-411v111h512q15 12 27.5 26t25.5 29q9 12 20.5 27.5
t21 35t16.5 41.5t7 46q0 15 -4 29t-10 28t-16.5 27t-22.5 22q-15 13 -33 19.5t-37 11.5q-21 5 -41.5 6.5t-42.5 1.5q-20 0 -48 -2t-62 -9t-74 -20t-84 -34v180q53 25 95.5 36t84.5 17q29 5 59.5 7.5t59.5 2.5q60 0 124.5 -13.5t115.5 -45.5q38 -24 63.5 -54.5t41 -63.5
t22 -67.5t6.5 -66.5q0 -56 -22 -112.5t-60 -104.5h156v-111h-248l-168 -164h416v-110h-508q-24 -19 -41 -39q-37 -42 -51.5 -83t-14.5 -75q0 -31 13 -57q10 -23 28 -41q20 -19 58 -34t104 -15q26 0 64 4t83 15.5t95 32t100 54.5v-213z" />
    <glyph glyph-name="uni20BD" unicode="&#x20bd;" horiz-adv-x="1034" 
d="M524 1399q26 0 66 -2.5t86 -11.5t94 -27t90 -49q28 -22 52 -49.5t41 -62.5t26.5 -78t9.5 -95q0 -57 -12.5 -102.5t-32.5 -80.5t-44 -60.5t-48 -43.5q-31 -23 -66.5 -39.5t-72.5 -25.5q-47 -13 -93 -17t-96 -4h-127v-164h348v-143h-348v-344h-192v344h-144v143h144v164
h-144v144h144v604h319zM397 795h115q26 0 54 1t56 6.5t54.5 17t50.5 32.5q40 35 50.5 75t10.5 85q0 24 -2.5 48.5t-11.5 48t-25.5 44.5t-43.5 39q-45 28 -92 33.5t-101 5.5h-115v-436z" />
    <glyph glyph-name="openbullet" unicode="&#x25e6;" horiz-adv-x="674" 
d="M338 1456q59 0 111.5 -22.5t91.5 -62t61.5 -92t22.5 -112.5q0 -58 -22 -110t-61 -91t-92 -62t-114 -23t-113.5 22.5t-91 61t-60.5 90.5t-22 112q0 61 23 113.5t62.5 91.5t92 61.5t111.5 22.5zM530 1169q0 40 -15 75t-40.5 61.5t-61 41.5t-75.5 15t-75.5 -15t-62 -41
t-42 -61t-15.5 -76t15 -76.5t41.5 -62t62 -42t76.5 -15.5q42 0 77 15.5t60.5 42.5t40 62.5t14.5 75.5z" />
    <glyph glyph-name="uniF400" unicode="&#xf400;" horiz-adv-x="0" 
d="M-379 1403h178l-280 -348h-107z" />
    <glyph glyph-name="uniF401" unicode="&#xf401;" horiz-adv-x="0" 
d="M-666 1882h179l-281 -348h-106z" />
    <glyph glyph-name="uniF406" unicode="&#xf406;" horiz-adv-x="1024" 
d="M319 1802q7 -77 53 -111t140 -34t140 34t53 111h90q-11 -140 -78.5 -206t-204.5 -66q-136 0 -204.5 66t-78.5 206h90z" />
    <glyph glyph-name="uniF407" unicode="&#xf407;" horiz-adv-x="1024" 
d="M262 -336q81 -18 143 -27.5t105 -9.5q121 0 121 84q0 53 -33.5 76t-105.5 23q-13 0 -25.5 -0.5t-26.5 -2.5v193h72v-106h23q112 0 169.5 -45t57.5 -132q0 -89 -63 -135.5t-187 -46.5q-50 0 -111 10.5t-139 30.5v88z" />
    <glyph glyph-name="uniF408" unicode="&#xf408;" horiz-adv-x="1022" 
d="M422 1882h178l197 -348h-107l-178 242l-180 -242h-107z" />
    <glyph glyph-name="uniF409" unicode="&#xf409;" horiz-adv-x="516" 
d="M221 -332q-40 16 -64 43.5t-24 67.5q0 25 9 47t24.5 38t36.5 25t45 9q26 0 49 -10.5t40.5 -32t27.5 -54.5t10 -77q0 -54 -19 -101t-51.5 -85.5t-74.5 -66.5t-87 -44l-2 36q41 34 60.5 76.5t19.5 102.5v26v0z" />
    <glyph glyph-name="uniF40A" unicode="&#xf40a;" horiz-adv-x="471" 
d="M205 1202q-40 16 -64 43.5t-24 67.5q0 51 33 80.5t81 29.5q25 0 47 -8.5t39 -27.5t27 -50t10 -75q0 -54 -18.5 -100t-49.5 -82.5t-72.5 -63.5t-86.5 -43l-2 37q20 17 35 33.5t25 36t15 43t5 53.5v26v0z" />
    <glyph glyph-name="uniF40B" unicode="&#xf40b;" horiz-adv-x="1024" 
d="M401 1688q0 23 9 43t24 35t35 23.5t43 8.5t43 -8.5t35 -23.5t24 -35t9 -43t-9 -43.5t-24 -35.5t-35 -23.5t-43 -8.5t-43 8.5t-35 23.5t-24 35.5t-9 43.5z" />
    <glyph glyph-name="uniF40C" unicode="&#xf40c;" horiz-adv-x="1024" 
d="M264 1710q0 52 19 97t52.5 78t79 52t97.5 19t97.5 -19t79 -52t52.5 -78t19 -97t-19 -97.5t-52.5 -79t-79 -52.5t-97.5 -19t-97.5 19t-79 52.5t-52.5 79t-19 97.5zM371 1708q0 -30 11 -56t29.5 -45.5t44.5 -30.5t56 -11t56 11t45.5 30.5t30.5 45.5t11 56t-11 56
t-30.5 45.5t-45.5 30.5t-56 11q-31 0 -57 -11t-44.5 -30.5t-29 -45.5t-10.5 -56z" />
    <glyph glyph-name="uniF40D" unicode="&#xf40d;" horiz-adv-x="1024" 
d="M803 1802q-25 -96 -76.5 -144t-122.5 -48q-18 0 -34 2.5t-31 7.5l-80 27q-14 5 -27.5 6.5t-25.5 1.5q-35 0 -58 -15t-39 -49h-88q22 93 72.5 140t126.5 47q15 0 30 -2t29 -7l78 -28q16 -5 31.5 -7.5t29.5 -2.5q71 0 97 71h88v0z" />
    <glyph glyph-name="uniF40E" unicode="&#xf40e;" horiz-adv-x="1024" 
d="M602 0q-68 -62 -102.5 -116.5t-34.5 -106.5q0 -45 23 -63.5t75 -18.5h80l-41 -129h-39q-112 0 -166.5 39.5t-54.5 124.5q0 37 12 70t36 65t59 65t81 70h72v0z" />
    <glyph glyph-name="uniF410" unicode="&#xf410;" horiz-adv-x="0" 
d="M-819 1534l-281 348h178l209 -348h-106z" />
    <glyph glyph-name="afii10017.var.accented" unicode="&#xf460;" horiz-adv-x="1276" 
d="M561 1399h146l614 -1399h-207l-180 412h-596l-178 -412h-205zM852 592l-221 504l-215 -504h436zM817 1882h178l-280 -348h-107z" />
    <glyph glyph-name="afii10022.var.accented" unicode="&#xf461;" horiz-adv-x="1114" 
d="M150 1399h841v-180h-643v-422h625v-181h-625v-436h664v-180h-862v1399zM723 1882h178l-280 -348h-107z" />
    <glyph glyph-name="afii10026.var.accented" unicode="&#xf462;" horiz-adv-x="1524" 
d="M348 1399v-1088l852 1088h174v-1399h-198v1079l-852 -1079h-174v1399h198zM895 1882h178l-280 -348h-107z" />
    <glyph glyph-name="afii10032.var.accented" unicode="&#xf463;" horiz-adv-x="1640" 
d="M74 705q0 142 57 272.5t162 232.5q108 104 242.5 157.5t283.5 53.5q152 0 287.5 -53.5t241.5 -157.5q219 -213 219 -518q0 -142 -55.5 -272.5t-161.5 -233.5q-110 -105 -244 -158t-287 -53q-149 0 -285 54.5t-241 156.5q-108 106 -163.5 237.5t-55.5 281.5zM287 698
q0 -108 40 -204.5t115 -171.5q75 -76 173 -117t204 -41q110 0 206 40t173 118q75 75 115.5 171.5t40.5 204.5q0 109 -40.5 204t-117.5 173q-75 78 -171.5 118t-205.5 40q-106 0 -202.5 -41t-174.5 -117q-75 -74 -115 -171t-40 -206zM995 1882h179l-281 -348h-107z" />
    <glyph glyph-name="afii10037.var.accented" unicode="&#xf464;" horiz-adv-x="1229" 
d="M201 1399l454 -752l408 752h207l-768 -1399h-207l250 451l-586 948h242zM768 1882h178l-280 -348h-107z" />
    <glyph glyph-name="afii10045.var.accented" unicode="&#xf465;" horiz-adv-x="1556" 
d="M348 1399v-580h201q29 0 70 -2.5t87.5 -12.5t95 -29.5t93.5 -53.5q30 -23 56.5 -54t47 -70.5t32 -88.5t11.5 -109q0 -72 -24 -142t-68 -120q-21 -23 -52.5 -47t-76.5 -44t-105 -33t-138 -13h-428v1399h198zM348 180h209q25 0 53.5 1.5t57 6.5t55 16t47.5 29q11 9 23 23.5
t22 35.5t16.5 49.5t6.5 64.5q0 63 -22.5 108t-65.5 74q-27 19 -57 29.5t-60 15t-58 5.5t-51 1h-176v-459zM1407 1399v-1399h-199v1399h199zM932 1882h178l-281 -348h-106z" />
    <glyph glyph-name="afii10047.var.accented" unicode="&#xf466;" horiz-adv-x="1419" 
d="M283 795h841q-7 60 -25.5 109t-44 88.5t-55.5 70.5t-61 55q-69 53 -161 84t-204 31q-27 0 -71 -4t-104.5 -18t-136 -42.5t-163.5 -76.5v217q84 40 162.5 63t142 33.5t108.5 13t62 2.5q52 0 119 -7.5t139.5 -28.5t146 -58t138.5 -96q61 -56 104.5 -120.5t71.5 -133
t41 -138t13 -134.5q0 -74 -15.5 -148t-44 -143t-69 -129.5t-89.5 -108.5q-54 -51 -118.5 -89t-135 -63t-143.5 -37t-143 -12q-51 0 -110.5 6.5t-125 21.5t-135 40t-139.5 63v226q89 -61 171.5 -94.5t150 -50t116 -20t70.5 -3.5q80 0 145.5 15t118.5 40.5t94.5 60t73.5 74.5
q57 69 80 134.5t26 125.5h-841v181zM739 1882h179l-281 -348h-107z" />
    <glyph glyph-name="afii10048.var.accented" unicode="&#xf467;" horiz-adv-x="2032" 
d="M348 1399v-604h205q19 131 72 236t125 179q35 38 83 75.5t110 67.5t138.5 49t169.5 19q157 0 281 -55.5t221 -155.5t151 -226t54 -286t-54 -286t-151 -226t-221 -155.5t-281 -55.5q-93 0 -169.5 19t-138.5 49t-110 67.5t-83 75.5q-34 36 -66 81t-58.5 98.5t-45.5 115.5
t-27 133h-205v-614h-198v1399h198zM760 698q0 -66 11 -122t30 -103t44 -85t54 -69q34 -36 75 -64.5t86.5 -49t94 -31t96.5 -10.5t96.5 10.5t94 31t87 49t75.5 64.5q28 31 53.5 69t44.5 85t30 103t11 122t-11 122t-30 103t-44.5 85t-53.5 69q-34 36 -75.5 65t-87 49.5t-94 31
t-96.5 10.5t-96.5 -10.5t-94 -31t-86.5 -49.5t-75 -65q-29 -31 -54 -69t-44 -85t-30 -103t-11 -122zM1395 1882h178l-281 -348h-106z" />
    <glyph glyph-name="afii10049.var.accented" unicode="&#xf468;" horiz-adv-x="1188" 
d="M1038 0h-198v594h-86q-42 0 -80 -12t-80 -47q-26 -23 -46.5 -48t-38.5 -52.5t-34.5 -57t-34.5 -60.5l-188 -317h-242l293 459q21 33 39 59t36.5 47t40 38t48.5 32q-54 6 -105 26.5t-90 51.5q-51 40 -82.5 104t-31.5 158t31.5 176t93.5 139q38 36 80 57.5t85 33t85.5 15
t82.5 3.5h422v-1399zM840 1227h-224q-23 0 -47 -1.5t-48 -7.5t-47 -17.5t-44 -31.5t-33 -44t-19 -48.5t-9 -48t-2 -41.5q0 -15 1.5 -34.5t6 -40t14 -40.5t25.5 -38q26 -28 71.5 -48t104.5 -20h250v461zM829 1882h179l-281 -348h-106z" />
    <glyph glyph-name="afii10023.var.accented" unicode="&#xf469;" horiz-adv-x="1114" 
d="M150 1399h841v-180h-643v-422h625v-181h-625v-436h664v-180h-862v1399zM219 1688q0 21 8 39.5t22.5 32.5t33 22t39.5 8t39.5 -8t32.5 -22t22 -32.5t8 -39.5t-8 -39.5t-22 -33t-32.5 -22.5t-39.5 -8t-39.5 8t-33 22.5t-22.5 33t-8 39.5zM739 1688q0 21 8 39.5t22.5 32.5
t33 22t39.5 8t39.5 -8t32.5 -22t22 -32.5t8 -39.5t-8 -39.5t-22 -33t-32.5 -22.5t-39.5 -8t-39.5 8t-33 22.5t-22.5 33t-8 39.5zM608 1882h178l-260 -348h-106z" />
    <glyph glyph-name="afii10065.var.accented" unicode="&#xf46a;" horiz-adv-x="887" 
d="M578 76q-68 -48 -130.5 -70t-136.5 -22q-64 0 -113 16t-82.5 45t-51 70t-17.5 92q0 194 305 297l219 74q2 11 2 20v18q0 84 -40.5 120t-133.5 36q-77 0 -158.5 -32t-164.5 -97v182q72 59 160.5 88t185.5 29q91 0 156 -20t105.5 -60.5t59.5 -103.5t19 -148v-391
q0 -45 7.5 -67.5t29.5 -22.5q23 0 45 14t51 37v-112q-51 -44 -102 -64t-105 -20q-53 0 -79 21t-31 71zM571 459q-82 -26 -143.5 -49.5t-102 -49.5t-61 -55.5t-20.5 -66.5q0 -57 36.5 -88t102.5 -31q48 0 95 17t93 52v271zM567 1403h178l-280 -348h-107z" />
    <glyph glyph-name="afii10070.var.accented" unicode="&#xf46b;" horiz-adv-x="999" 
d="M741 561q-5 51 -24 92t-49.5 70t-71 45t-88.5 16q-106 0 -171 -56.5t-85 -166.5h489zM928 98q-93 -60 -189.5 -89t-201.5 -29q-111 0 -199.5 36t-151 101t-96 157t-33.5 203q0 103 33 188.5t92.5 147t143 95.5t184.5 34q98 0 178 -33t137 -95.5t88 -152.5t31 -204v-27
h-692q4 -66 26 -117.5t60 -87.5t91 -54.5t118 -18.5q177 0 381 131v-185zM674 1403h178l-281 -348h-106z" />
    <glyph glyph-name="afii10074.var.accented" unicode="&#xf46c;" horiz-adv-x="1077" 
d="M307 924v-645l484 645h163v-924h-184v645l-483 -645h-164v924h184zM692 1403h178l-280 -348h-107z" />
    <glyph glyph-name="afii10080.var.accented" unicode="&#xf46d;" horiz-adv-x="1096" 
d="M57 463q0 100 38 187.5t104 152.5t156 103t194 38q99 0 187 -36.5t157 -104.5q71 -71 108 -157t37 -183q0 -96 -38 -186t-107 -158q-71 -69 -158 -104t-186 -35q-103 0 -193 37.5t-156.5 102.5t-104.5 153.5t-38 189.5zM250 463q0 -65 23.5 -121.5t63.5 -97.5t94 -64.5
t116 -23.5q61 0 115.5 24t94.5 65t63.5 97t23.5 121q0 64 -23.5 119.5t-63.5 96.5t-94.5 65t-115.5 24q-62 0 -116 -24t-94 -65t-63.5 -96.5t-23.5 -119.5zM702 1403h179l-281 -348h-106z" />
    <glyph glyph-name="afii10085.var.accented" unicode="&#xf46e;" horiz-adv-x="909" 
d="M-29 924h205l285 -541l266 541h201l-686 -1389h-201l319 647zM588 1403h178l-281 -348h-106z" />
    <glyph glyph-name="afii10093.var.accented" unicode="&#xf46f;" horiz-adv-x="1253" 
d="M307 924v-342h117q32 0 66 -1t68.5 -6t68 -15t65.5 -28q22 -13 46 -33t44 -49.5t32.5 -69.5t12.5 -91q0 -68 -24 -123t-68 -92q-31 -27 -65.5 -42t-68 -22t-64.5 -8.5t-54 -1.5h-360v924h184zM307 152h148q17 0 36 1.5t38 5.5t36.5 11t32.5 18q29 25 37 54t8 51
q0 18 -7.5 45.5t-35.5 52.5q-17 14 -37 22t-40 11.5t-39 4.5t-33 1h-144v-278zM946 924h184v-924h-184v924zM760 1403h178l-281 -348h-106z" />
    <glyph glyph-name="afii10095.var.accented" unicode="&#xf470;" horiz-adv-x="901" 
d="M61 219q65 -38 135.5 -57t133.5 -19q81 0 140.5 24.5t94.5 61.5q23 24 37.5 50t22 48.5t10.5 40t4 25.5h-422v152h422q-4 30 -13 55.5t-22 46.5t-27.5 37.5t-29.5 28.5q-53 43 -107.5 55t-105.5 12q-57 0 -118.5 -14.5t-137.5 -58.5v180q37 17 70 28t64.5 17.5t62.5 9
t63 2.5q36 0 77.5 -3.5t84.5 -13.5t86 -28.5t82 -48.5q37 -29 69 -68.5t56 -88.5t37.5 -107.5t13.5 -124.5q0 -56 -11 -109t-32 -100.5t-50 -88t-65 -71.5q-22 -19 -54 -39t-75.5 -36t-99 -26.5t-125.5 -10.5q-101 0 -168 17.5t-103 33.5v188zM461 1403h178l-281 -348h-106z
" />
    <glyph glyph-name="afii10096.var.accented" unicode="&#xf471;" horiz-adv-x="1456" 
d="M307 924v-375h158q14 80 46.5 144.5t76.5 111.5q24 25 56 50t73.5 44.5t93 32t113.5 12.5q59 0 109.5 -11.5t93 -31t77 -44.5t60.5 -52q31 -32 56 -71.5t42.5 -84t27 -92t9.5 -94.5q0 -48 -10 -96t-28 -92.5t-42.5 -84.5t-54.5 -71q-28 -29 -63 -54.5t-77.5 -44.5
t-92.5 -29.5t-107 -10.5q-64 0 -116 12.5t-93.5 33t-73 45t-53.5 48.5q-44 46 -78 114t-45 156h-158v-389h-184v924h184zM924 768q-22 0 -47.5 -3.5t-52.5 -13.5t-54 -27.5t-51 -45.5q-34 -38 -56 -91t-22 -124q0 -40 7 -73t18 -60t25 -48t28 -36q24 -28 50.5 -45.5
t53 -27.5t52.5 -13.5t49 -3.5q63 0 115 24t89 66q36 38 57 93t21 124q0 60 -18 114t-62 101q-24 26 -50.5 43.5t-53 28t-51.5 14.5t-47 4zM885 1403h178l-281 -348h-106z" />
    <glyph glyph-name="afii10097.var.accented" unicode="&#xf472;" horiz-adv-x="958" 
d="M651 0v356h-90q-29 0 -59 -4.5t-56 -19.5q-29 -17 -48.5 -45.5t-35.5 -57.5l-124 -229h-213l174 291q18 31 47 64t82 55q-29 4 -53 12.5t-41.5 18t-28.5 18t-15 12.5q-12 11 -24.5 27t-23 37.5t-17 49t-6.5 62.5q0 68 28 122.5t70 86.5q31 25 66.5 39t70.5 20.5t68.5 7.5
t60.5 1h353v-924h-185zM651 772h-184q-29 0 -60 -3.5t-59 -25.5q-15 -12 -24 -27t-13.5 -30t-6 -28t-1.5 -21q0 -19 6 -45t29 -47q22 -20 57 -28.5t72 -8.5h184v264zM633 1403h178l-281 -348h-106z" />
    <glyph glyph-name="afii10071.var.accented" unicode="&#xf473;" horiz-adv-x="999" 
d="M741 561q-5 51 -24 92t-49.5 70t-71 45t-88.5 16q-106 0 -171 -56.5t-85 -166.5h489zM928 98q-93 -60 -189.5 -89t-201.5 -29q-111 0 -199.5 36t-151 101t-96 157t-33.5 203q0 103 33 188.5t92.5 147t143 95.5t184.5 34q98 0 178 -33t137 -95.5t88 -152.5t31 -204v-27
h-692q4 -66 26 -117.5t60 -87.5t91 -54.5t118 -18.5q177 0 381 131v-185zM205 1208q0 21 8 39.5t22 33t32.5 22.5t39.5 8t39.5 -8t32.5 -22.5t22.5 -33t8.5 -39.5t-8.5 -39.5t-22.5 -32.5t-32.5 -22t-39.5 -8t-39.5 8t-32.5 22t-22 32.5t-8 39.5zM725 1208q0 21 8 39.5
t22 33t32.5 22.5t39.5 8t39.5 -8t33 -22.5t22.5 -33t8 -39.5t-8 -39.5t-22.5 -32.5t-33 -22t-39.5 -8t-39.5 8t-32.5 22t-22 32.5t-8 39.5zM596 1403h178l-260 -348h-106z" />
    <glyph glyph-name="dollar.fitted" unicode="&#xf5f5;" horiz-adv-x="997" 
d="M31 416q111 -97 213 -150t196 -59v428q-202 51 -301.5 146t-99.5 235q0 73 27.5 136.5t79 113t126 81t168.5 39.5v152h127v-149q90 -7 171.5 -36.5t158.5 -84.5v-221q-97 75 -179.5 113.5t-150.5 41.5v-397q201 -62 301.5 -165.5t100.5 -244.5q0 -167 -101.5 -265.5
t-300.5 -123.5v-225h-127v223h-14q-97 0 -193 38.5t-202 111.5v262zM567 205q94 6 144.5 51t50.5 121q0 72 -49.5 126t-145.5 83v-381zM440 1202q-99 -2 -153 -48t-54 -124q0 -68 52 -114t155 -74v360z" />
    <glyph glyph-name="Euro.fitted" unicode="&#xf5f6;" horiz-adv-x="1137" 
d="M1057 53q-78 -45 -150.5 -61.5t-140.5 -16.5q-129 0 -223.5 39.5t-167.5 122.5q-38 44 -67.5 94.5t-49.5 104.5q-15 42 -26 84.5t-17 87.5h-192l36 110h146q-3 44 -2 85t4 79h-184l36 111h160q5 44 17 90.5t31.5 93t45.5 90.5t60 82q83 94 192.5 133t243.5 39
q56 0 123.5 -10t144.5 -41l-65 -188q-57 28 -114.5 39.5t-113.5 11.5q-85 0 -149.5 -30t-112.5 -89q-23 -28 -40 -59.5t-29 -65.5q-10 -23 -16 -47t-11 -49h516l-37 -111h-497q-11 -77 0 -164h458l-37 -110h-409q9 -48 24 -94q13 -34 28.5 -65.5t37.5 -59.5q17 -23 41.5 -45
t57.5 -40t74.5 -29t92.5 -11q55 0 102 13.5t83.5 31.5t61 35.5t34.5 25.5v-217z" />
    <glyph glyph-name="cent.fitted" unicode="&#xf5f7;" horiz-adv-x="866" 
d="M276 49q-125 66 -191.5 176.5t-66.5 249.5q0 106 38 196.5t106 156.5t163.5 103.5t211.5 37.5q20 0 40 -0.5t41 -3.5l121 319h111l-131 -346q17 -3 33.5 -9.5t33.5 -19.5v-198q-31 18 -63 33.5t-66 27.5l-217 -584q58 -12 105 -12q128 0 256 64v-187q-60 -26 -129 -37.5
t-150 -11.5q-29 0 -65 5t-78 16l-146 -385h-108zM555 793q-11 2 -21.5 2h-21.5q-65 0 -120 -24.5t-95 -68t-62 -102.5t-22 -129q0 -77 31.5 -138.5t97.5 -111.5z" />
    <glyph glyph-name="sterling.fitted" unicode="&#xf5f8;" horiz-adv-x="1006" 
d="M186 600h-135v180h197q93 324 220.5 484.5t285.5 160.5q47 0 100 -12l96 -188q-31 8 -60 12t-56 4q-72 0 -130.5 -28t-105 -85.5t-82.5 -144t-65 -203.5h149v-180h-211l-102 -391q21 2 48.5 3t61.5 1q45 0 88 -6t85 -13.5t83 -13.5t82 -6q37 0 84.5 10t106.5 29v-199
q-59 -15 -111 -23.5t-100 -8.5q-37 0 -80 5.5t-91 12.5t-101 12.5t-111 5.5q-108 0 -307 -30z" />
    <glyph glyph-name="yen.fitted" unicode="&#xf5f9;" horiz-adv-x="1305" 
d="M545 614h-434v111h417l-122 164h-295v108h215l-301 402h219l403 -547l408 547h225l-303 -400h199v-110h-283l-125 -164h408v-111h-437v-614h-194v614z" />
    <glyph glyph-name="florin.fitted" unicode="&#xf5fa;" horiz-adv-x="938" 
d="M47 -207q25 -8 43.5 -12t34.5 -4q45 0 75 18t50 54t33 90.5t24 126.5l101 669h-170l26 170h168l25 158q28 178 108 267t226 89q29 0 61.5 -7t71.5 -19l-29 -193q-47 21 -86 21q-41 0 -68 -13t-44.5 -39t-28 -65.5t-19.5 -93.5l-16 -105h182l-27 -178h-182l-108 -735
q-15 -105 -38.5 -182.5t-63 -128.5t-99 -76t-147.5 -25q-36 0 -70 6.5t-66 20.5z" />
    <glyph glyph-name="uni20B4.fitted" unicode="&#xf5fb;" horiz-adv-x="985" 
d="M870 57q-89 -46 -177 -64t-181 -18q-38 0 -76.5 3t-75 12t-72 25.5t-67.5 43.5q-29 24 -49.5 52.5t-33.5 58.5t-19 61.5t-6 61.5q0 20 3.5 43.5t10.5 47t17.5 46.5t23.5 41q6 9 13.5 18.5t17.5 18.5h-160v110h244l168 164h-412v111h512q15 12 28 26t25 29q9 12 20.5 27.5
t21.5 35t17 41.5t7 46q0 15 -4 29t-11 28q-13 31 -39 49q-15 13 -33 19.5t-36 11.5q-22 5 -42 6.5t-42 1.5q-20 0 -48 -2t-62.5 -9t-74.5 -20t-83 -34v180q52 25 95 36t85 17q29 5 59.5 7.5t59.5 2.5q60 0 124 -13.5t115 -45.5q39 -24 64.5 -54.5t40.5 -63.5t21.5 -67.5
t6.5 -66.5q0 -56 -21.5 -112.5t-60.5 -104.5h156v-111h-248l-168 -164h416v-110h-508q-11 -9 -21.5 -18.5t-19.5 -20.5q-37 -42 -51 -83t-14 -75q0 -30 12 -57q5 -11 12 -21.5t17 -19.5q20 -19 57.5 -34t103.5 -15q26 0 64 4t83 15.5t95 32t100 54.5v-213z" />
    <glyph glyph-name="uni20B6.fitted" unicode="&#xf5fc;" horiz-adv-x="987" 
d="M504 1399q26 0 66 -2.5t85.5 -11.5t94 -27t90.5 -49q28 -22 51.5 -49.5t41 -62.5t27 -78t9.5 -95q0 -57 -12.5 -102.5t-32.5 -80.5t-44.5 -60.5t-48.5 -43.5q-30 -23 -66 -39.5t-73 -25.5q-46 -13 -92.5 -17t-95.5 -4h-127v-164h348v-143h-348v-344h-193v344h-143v143
h143v164h-143v144h143v604h320zM377 795h115q26 0 54 1t55.5 6.5t54.5 17t51 32.5q40 35 50.5 75t10.5 85q0 24 -2.5 48.5t-11.5 48t-25.5 44.5t-44.5 39q-45 28 -91.5 33.5t-100.5 5.5h-115v-436z" />
    <glyph glyph-name="uniF639" unicode="&#xf639;" horiz-adv-x="1065" 
d="M74 698q0 174 34 308.5t94.5 226.5t144.5 140t185 48t185.5 -48t145 -140t94.5 -226.5t34 -308.5q0 -173 -34 -308t-94.5 -227t-145 -140t-185.5 -48t-185 48t-144.5 140t-94.5 227t-34 308zM274 698q0 -132 18 -231.5t51.5 -166.5t81 -100.5t107.5 -33.5
q120 0 189.5 134t69.5 398q0 265 -69.5 400t-189.5 135q-60 0 -107.5 -34t-81 -101t-51.5 -167.5t-18 -232.5z" />
    <glyph glyph-name="uniF63A" unicode="&#xf63a;" horiz-adv-x="979" 
d="M49 0q67 99 127.5 180t112 145.5t91.5 114.5t66 88q96 138 144.5 248.5t48.5 200.5q0 57 -17 104t-48.5 80.5t-75.5 51.5t-99 18q-77 0 -154.5 -43.5t-158.5 -128.5v239q87 63 170 94t170 31q92 0 168.5 -30.5t131 -86t84.5 -134t30 -173.5q0 -90 -29 -181t-84 -188
t-135 -202t-182 -225h528v-203h-889v0z" />
    <glyph glyph-name="uniF63B" unicode="&#xf63b;" horiz-adv-x="864" 
d="M57 270q167 -86 301 -86q55 0 98 16t73 45t45.5 70.5t15.5 92.5q0 213 -297 231v176q67 0 119.5 16t88.5 45.5t55 70t19 89.5q0 44 -18 81.5t-51 65t-80.5 43t-106.5 15.5q-55 0 -112 -18t-123 -45v180q69 32 135.5 48.5t134.5 16.5q96 0 173.5 -27t131.5 -75.5
t83.5 -116.5t29.5 -149q0 -97 -42 -175t-126 -132q96 -47 147.5 -133.5t51.5 -200.5q0 -96 -32 -176.5t-91 -139t-142.5 -91t-185.5 -32.5q-77 0 -148 21t-147 61v213z" />
    <glyph glyph-name="uniF63C" unicode="&#xf63c;" horiz-adv-x="985" 
d="M606 1055l-336 -422h330zM600 467h-598v84l705 870h86v-788h155v-166h-155v-467h-193v467z" />
    <glyph glyph-name="uniF63D" unicode="&#xf63d;" horiz-adv-x="905" 
d="M49 276q81 -49 159 -72.5t152 -23.5q67 0 120.5 18t91 51t57.5 78.5t20 100.5q0 125 -92.5 195.5t-271.5 70.5q-29 0 -64.5 -5.5t-77.5 -16.5l25 727h616v-170h-442l-14 -359h30q115 0 207 -31.5t155.5 -89t97.5 -138.5t34 -179q0 -97 -36 -180.5t-100.5 -145t-154 -96.5
t-196.5 -35q-72 0 -150.5 24t-165.5 71v206z" />
    <glyph glyph-name="uniF63E" unicode="&#xf63e;" horiz-adv-x="1001" 
d="M324 756q133 65 231 65q87 0 159.5 -31.5t125.5 -87t82.5 -131.5t29.5 -165q0 -93 -33 -171.5t-91.5 -136t-139.5 -89.5t-178 -32q-98 0 -178 35t-137.5 100t-89 156.5t-31.5 204.5q0 275 143.5 516t429.5 432l109 -137q-84 -58 -153.5 -118t-123.5 -124.5t-93 -135.5
t-62 -150zM289 541q-5 -23 -7.5 -44.5t-2.5 -41.5q0 -66 18 -119.5t50.5 -92t78 -59t100.5 -20.5q50 0 91 16.5t70.5 47t46 73t16.5 94.5q0 53 -17 97t-47.5 75.5t-72.5 48.5t-91 17q-69 0 -126.5 -23t-106.5 -69z" />
    <glyph glyph-name="uniF63F" unicode="&#xf63f;" horiz-adv-x="932" 
d="M635 1217h-596v182h893l-635 -1434l-172 78z" />
    <glyph glyph-name="uniF640" unicode="&#xf640;" horiz-adv-x="1016" 
d="M260 397q0 -50 17.5 -92.5t49 -74t76 -49t97.5 -17.5q58 0 105 17.5t80 48.5t51 74.5t18 94.5t-17.5 92.5t-49.5 70.5t-77 45t-100 16q-57 0 -103 -17t-79 -47.5t-50.5 -72t-17.5 -89.5zM737 1030q0 48 -16.5 86.5t-46.5 66.5t-71.5 43t-92.5 15t-92.5 -15.5t-71 -43
t-45.5 -66t-16 -84.5q0 -51 18 -93.5t48.5 -72.5t70.5 -46.5t84 -16.5q48 0 90.5 16t73.5 45.5t49 71.5t18 94zM254 723q-77 51 -118.5 131t-41.5 180q0 85 31 156t87 123t134 81t172 29q88 0 162.5 -29.5t128.5 -81.5t84.5 -123t30.5 -153q0 -102 -42.5 -184.5
t-117.5 -128.5q48 -18 86 -48.5t64.5 -72.5t40.5 -93.5t14 -109.5q0 -90 -34.5 -167.5t-95.5 -134.5t-146 -89.5t-185 -32.5q-102 0 -187 33t-145.5 90.5t-94.5 135t-34 167.5q0 58 14 109t41 92.5t65.5 72t86.5 48.5z" />
    <glyph glyph-name="uniF641" unicode="&#xf641;" horiz-adv-x="989" 
d="M678 643q-133 -65 -229 -65q-87 0 -160.5 31.5t-126.5 87t-83 131.5t-30 165q0 93 33 172t91.5 136t140 89.5t178.5 32.5t177.5 -35t138 -99.5t89 -156t31.5 -204.5q0 -278 -144 -519.5t-430 -431.5l-108 138q176 120 284 251t148 277zM713 858q5 23 8.5 44.5t3.5 41.5
q0 66 -18 120t-50.5 92.5t-78.5 59.5t-101 21q-50 0 -91 -16.5t-70.5 -47t-45.5 -73t-16 -94.5q0 -53 16.5 -97t46.5 -75.5t71.5 -48.5t90.5 -17q137 0 234 90z" />
    <glyph glyph-name="uniF643" unicode="&#xf643;" horiz-adv-x="1034" 
d="M45 459q0 100 36 188t99.5 154t149.5 104.5t186 38.5t186 -38.5t149.5 -104.5t99.5 -154t36 -188t-36 -188t-99.5 -154t-149.5 -104t-186 -38t-186 38t-149.5 104t-99.5 154t-36 188zM246 461q0 -61 19.5 -114.5t55 -93.5t85 -63.5t110.5 -23.5t110.5 23.5t85 63.5
t55 93.5t19.5 114.5t-19.5 114.5t-55 93.5t-85 63.5t-110.5 23.5t-110.5 -23.5t-85 -63.5t-55 -93.5t-19.5 -114.5z" />
    <glyph glyph-name="uniF644" unicode="&#xf644;" horiz-adv-x="1034" 
d="M657 0h-198v621l-146 -150l-106 84l364 389h86v-944z" />
    <glyph glyph-name="uniF645" unicode="&#xf645;" horiz-adv-x="1034" 
d="M102 0q8 7 30 25.5t52.5 43.5t66.5 55l72 60t69.5 59t58.5 52q46 43 85.5 84t68.5 80t45 76t16 73q0 37 -14.5 62.5t-37.5 44.5q-29 25 -61.5 31t-69.5 6q-43 0 -88 -16t-80 -38q-18 -11 -40 -26.5t-43.5 -32.5t-40.5 -33t-31 -26v239q10 9 26 19.5t35 21.5t40 21.5
t42 19.5q47 20 96 31.5t93 11.5q36 0 69 -2t64.5 -8.5t62 -19t60.5 -33.5q54 -39 86 -100t32 -146q0 -42 -8.5 -79t-22 -69t-31.5 -59.5t-36 -50.5q-25 -31 -52.5 -60t-52 -53t-42.5 -40.5t-23 -20.5h332v-203h-828v0z" />
    <glyph glyph-name="uniF646" unicode="&#xf646;" horiz-adv-x="1034" 
d="M104 -174q65 -40 135.5 -65t141.5 -25q56 0 108 14.5t91 48.5q32 29 50.5 67.5t18.5 94.5q0 35 -10 65.5t-27.5 55t-40.5 43.5t-49 31q-25 11 -55.5 19t-60 13t-54 8t-37.5 5l306 542h-490v181h797l-340 -600q26 -6 54 -17.5t56 -27.5t53.5 -36.5t45.5 -45.5
q73 -92 73 -234q0 -94 -35.5 -175t-97.5 -138q-63 -59 -147.5 -87t-190.5 -28q-77 0 -146.5 19.5t-148.5 62.5v209z" />
    <glyph glyph-name="uniF647" unicode="&#xf647;" horiz-adv-x="1034" 
d="M641 578l-330 -412h330v412zM641 0h-598v84l705 860h86v-778h155v-166h-155v-465h-193v465z" />
    <glyph glyph-name="uniF648" unicode="&#xf648;" horiz-adv-x="1034" 
d="M117 -201q71 -54 154 -79t157 -25q57 0 108.5 16.5t92.5 50.5q43 38 63.5 90t20.5 109q0 36 -9.5 66.5t-25 56t-36.5 45.5t-44 35t-52 25t-59.5 16t-60 9t-53.5 3q-15 0 -34 -1t-41 -3t-44 -5.5t-43 -8.5l84 727h557v-170h-403l-43 -359q38 -2 85 -6t96.5 -15.5
t98.5 -32.5t90 -56q68 -59 106 -142t38 -186q0 -100 -38 -187t-104 -149t-151.5 -91.5t-190.5 -29.5q-35 0 -76.5 6.5t-84 18.5t-83.5 29.5t-75 40.5v202z" />
    <glyph glyph-name="uniF649" unicode="&#xf649;" horiz-adv-x="1034" 
d="M328 756q133 65 231 65q87 0 160 -31.5t125.5 -87t82 -131.5t29.5 -165q0 -93 -33 -171.5t-91.5 -136t-139.5 -89.5t-178 -32q-98 0 -178 35t-137.5 100t-89 156.5t-31.5 204.5q0 275 143.5 516t429.5 432l109 -137q-84 -58 -153 -118t-123.5 -124.5t-93.5 -135.5
t-62 -150zM293 541q-5 -23 -7.5 -44.5t-2.5 -41.5q0 -66 18 -119.5t50.5 -92t78 -59t100.5 -20.5q50 0 91.5 16.5t71 47t45.5 73t16 94.5q0 53 -17 97t-47.5 75.5t-72.5 48.5t-91 17q-69 0 -126.5 -23t-106.5 -69z" />
    <glyph glyph-name="uniF64A" unicode="&#xf64a;" horiz-adv-x="1034" 
d="M686 741h-596v183h893l-696 -1389l-172 78z" />
    <glyph glyph-name="uniF64B" unicode="&#xf64b;" horiz-adv-x="1034" 
d="M268 397q0 -50 17.5 -92.5t49.5 -74t76 -49t97 -17.5q58 0 105 17.5t80 48.5t51 74.5t18 94.5t-17.5 92.5t-49 70.5t-77 45t-100.5 16q-57 0 -103 -17t-78.5 -47.5t-50.5 -72t-18 -89.5zM745 1030q0 48 -16.5 86.5t-46.5 66.5t-71.5 43t-92.5 15t-92.5 -15.5t-71 -43
t-45.5 -66t-16 -84.5q0 -51 18 -93.5t48.5 -72.5t70.5 -46.5t84 -16.5q48 0 90.5 16t73.5 45.5t49 71.5t18 94zM262 723q-77 51 -118.5 131t-41.5 180q0 85 31 156t87 123t134 81t172 29q88 0 162.5 -29.5t128.5 -81.5t84.5 -123t30.5 -153q0 -102 -42.5 -184.5
t-117.5 -128.5q48 -18 86 -48.5t64.5 -72.5t40.5 -93.5t14 -109.5q0 -90 -34.5 -167.5t-95.5 -134.5t-146 -89.5t-185 -32.5q-102 0 -187 33t-145.5 90.5t-94.5 135t-34 167.5q0 58 14 109t41 92.5t65.5 72t86.5 48.5z" />
    <glyph glyph-name="uniF64C" unicode="&#xf64c;" horiz-adv-x="1034" 
d="M707 164q-67 -32 -123.5 -49t-106.5 -17q-87 0 -160 31.5t-126 87t-83 132t-30 165.5q0 93 33 172t91.5 136t139.5 89.5t178 32.5t177.5 -35t138 -99.5t89 -156t31.5 -204.5q0 -277 -144.5 -501t-428.5 -413l-109 137q88 60 159 117t125 116t91.5 122.5t57.5 136.5z
M741 379q5 23 9 44.5t4 41.5q0 66 -18 120t-51 92.5t-78.5 59.5t-100.5 21q-50 0 -91 -16.5t-70.5 -47t-45.5 -73.5t-16 -95q0 -53 16.5 -96.5t46.5 -75t71.5 -48.5t90.5 -17q69 0 126.5 21.5t106.5 68.5z" />
    <glyph glyph-name="uniF64E" unicode="&#xf64e;" horiz-adv-x="1034" 
d="M961 53q-59 -40 -129 -59t-138 -19q-105 0 -191.5 37.5t-148.5 100.5q-33 34 -60 75.5t-47.5 85.5t-34 88t-19.5 84h-193l37 111h149q-1 21 -1.5 39t-0.5 34.5t0.5 33.5t1.5 36h-186l37 111h164q10 46 30 95.5t49 96.5t65.5 89.5t78.5 74.5q74 57 153.5 84t167.5 27
q17 0 43.5 -1.5t59.5 -7t70 -15.5t75 -27l-65 -189q-48 25 -93 38.5t-98 13.5q-57 0 -108.5 -17t-93.5 -49q-20 -15 -39.5 -38t-37 -51t-31.5 -59.5t-21 -64.5h514l-37 -111h-498q-2 -19 -2 -35v-32.5t0.5 -34.5t1.5 -41h459l-37 -111h-410q8 -46 33.5 -100.5t67.5 -99.5
q78 -82 202 -82q47 0 86 10.5t71 26.5t58 34.5t46 34.5v-217z" />
    <glyph glyph-name="uniF64F" unicode="&#xf64f;" horiz-adv-x="1034" 
d="M104 -207q25 -8 44 -12t34 -4q45 0 75 18t50.5 54t33.5 90.5t24 126.5l88 575h-170l26 170h168l17 111q27 179 107 267.5t226 88.5q29 0 62 -7t72 -20l-29 -192q-23 11 -44.5 15.5t-41.5 4.5q-41 0 -68 -12.5t-44.5 -39t-28 -66t-19.5 -93.5l-8 -57h182l-26 -178h-183
l-96 -641q-15 -105 -38.5 -182.5t-63 -128.5t-99 -76t-147.5 -25q-35 0 -69 6.5t-66 20.5z" />
    <glyph glyph-name="uniF651" unicode="&#xf651;" horiz-adv-x="1034" 
d="M215 553h-115v180h174q16 51 37 105t46.5 106t55 100.5t62.5 88.5q62 75 135 110t154 35q51 0 92 -12l96 -189q-20 5 -51.5 11t-75.5 6q-62 0 -108 -17t-84 -55q-22 -21 -44 -51t-42 -67.5t-38 -80.5t-32 -90h160v-180h-219l-90 -344q21 2 48.5 3t61.5 1q45 0 88 -6
t85 -13.5t83 -13.5t82 -6q37 0 84.5 10t106.5 29v-199q-59 -15 -111 -23.5t-100 -8.5q-37 0 -82 6t-95.5 13t-106.5 13t-114 6q-54 0 -123 -8.5t-169 -23.5z" />
    <glyph glyph-name="uniF652" unicode="&#xf652;" horiz-adv-x="1034" 
d="M614 473v-473h-194v473h-430v111h405l-108 164h-297v110h223l-264 399h219l354 -526l338 526h225l-264 -399h223v-110h-296l-109 -164h405v-111h-430z" />
    <glyph glyph-name="uniF653" unicode="&#xf653;" horiz-adv-x="1034" 
d="M63 416q17 -17 41 -37.5t50 -41t52 -39t48 -30.5q25 -15 53 -26.5t55 -19.5t50.5 -12.5t40.5 -4.5v364q-88 25 -161 52t-128 71q-50 40 -77.5 93t-27.5 128q0 36 10.5 72t30 69.5t46.5 62.5t59 52q28 21 61 37t66 26.5t64 16.5t57 8l-9 132h127l9 -132q40 -3 84.5 -13
t83.5 -27q35 -16 70.5 -35t70.5 -45v-222q-40 36 -82 63.5t-80 47.5q-42 20 -79 31t-68 14v-340q40 -12 71.5 -22t59 -19.5t53.5 -21.5t55 -29q33 -20 61 -45t49 -57t32.5 -70.5t11.5 -85.5q0 -90 -34.5 -159.5t-96.5 -119.5q-56 -45 -123 -67.5t-139 -28.5l-9 -162h-127
l9 160q-51 2 -106.5 14t-106.5 33q-26 11 -51 24.5t-48.5 27t-43 27t-34.5 24.5v262zM580 205q82 0 133 39q24 18 40.5 51.5t16.5 71.5q0 75 -57 116q-54 39 -133 58v-336zM453 1071q-16 1 -35 -0.5t-38 -6t-37 -12t-32 -18.5q-21 -17 -39 -42t-18 -60t11 -57.5t36 -45.5
q23 -21 64 -38t88 -31v311z" />
    <glyph glyph-name="uniF6BA" unicode="&#xf6ba;" horiz-adv-x="692" 
d="M84 793h524v-166h-524v166z" />
    <glyph glyph-name="uniF6BB" unicode="&#xf6bb;" horiz-adv-x="1024" 
d="M1024 649h-1024v123h1024v-123z" />
    <glyph glyph-name="uniF6BC" unicode="&#xf6bc;" horiz-adv-x="2048" 
d="M0 772h2048v-123h-2048v123z" />
    <glyph glyph-name="uniF6C3" unicode="&#xf6c3;" horiz-adv-x="516" 
d="M221 -332q-40 16 -64 43.5t-24 67.5q0 25 9 47t24.5 38t36.5 25t45 9q26 0 49 -10.5t40.5 -32t27.5 -54.5t10 -77q0 -54 -19 -101t-51.5 -85.5t-74.5 -66.5t-87 -44l-2 36q41 34 60.5 76.5t19.5 102.5v26v0z" />
    <glyph glyph-name="uniF6C9" unicode="&#xf6c9;" horiz-adv-x="1024" 
d="M584 1882h178l-281 -348h-106z" />
    <glyph glyph-name="uniF6CA" unicode="&#xf6ca;" horiz-adv-x="1022" 
d="M332 1882l180 -244l178 244h107l-197 -348h-178l-197 348h107z" />
    <glyph glyph-name="uniF6CB" unicode="&#xf6cb;" horiz-adv-x="1024" 
d="M221 1688q0 21 8 39.5t22.5 32.5t33 22t39.5 8t39.5 -8t32.5 -22t22 -32.5t8 -39.5t-8 -39.5t-22 -33t-32.5 -22.5t-39.5 -8t-39.5 8t-33 22.5t-22.5 33t-8 39.5zM598 1688q0 21 8 39.5t22 32.5t32.5 22t39.5 8t39.5 -8t33 -22t22.5 -32.5t8 -39.5t-8 -39.5t-22.5 -33
t-33 -22.5t-39.5 -8t-39.5 8t-32.5 22.5t-22 33t-8 39.5z" />
    <glyph glyph-name="uniF6CC" unicode="&#xf6cc;" horiz-adv-x="1053" 
d="M164 1688q0 21 8 39.5t22 32.5t32.5 22t39.5 8t39.5 -8t33 -22t22.5 -32.5t8 -39.5t-8 -39.5t-22.5 -33t-33 -22.5t-39.5 -8t-39.5 8t-32.5 22.5t-22 33t-8 39.5zM684 1688q0 21 8 39.5t22 32.5t32.5 22t39.5 8t39.5 -8t33 -22t22.5 -32.5t8 -39.5t-8 -39.5t-22.5 -33
t-33 -22.5t-39.5 -8t-39.5 8t-32.5 22.5t-22 33t-8 39.5zM553 1882h178l-260 -348h-106z" />
    <glyph glyph-name="uniF6CE" unicode="&#xf6ce;" horiz-adv-x="1024" 
d="M543 1534l-281 348h178l209 -348h-106z" />
    <glyph glyph-name="uniF6CF" unicode="&#xf6cf;" horiz-adv-x="1024" 
d="M469 1882h158l-221 -348h-84zM748 1882h155l-239 -348h-84z" />
    <glyph glyph-name="uniF6D0" unicode="&#xf6d0;" horiz-adv-x="1024" 
d="M254 1712h516v-125h-516v125z" />
    <glyph glyph-name="uniF6D1" unicode="&#xf6d1;" horiz-adv-x="1024" 
d="M315 1802q5 -42 23.5 -69.5t38.5 -42.5q32 -25 69 -32t66 -7t66 7t69 32q20 15 38.5 42.5t23.5 69.5h159q-6 -59 -31 -112.5t-63 -92.5q-30 -30 -63.5 -48t-68 -28.5t-68 -14t-62.5 -3.5t-62.5 3.5t-68 14t-68 28.5t-63.5 48q-38 39 -63 92.5t-31 112.5h159z" />
    <glyph glyph-name="uniF6D4" unicode="&#xf6d4;" horiz-adv-x="1024" 
d="M381 1364q0 -23 8 -49.5t25 -46.5q23 -26 50.5 -33.5t47.5 -7.5t47.5 7.5t50.5 33.5q17 20 25 46.5t8 49.5h152q-3 -65 -28 -117t-60 -84q-38 -35 -88.5 -53t-106.5 -18t-106.5 18t-88.5 53q-35 32 -60 84t-28 117h152z" />
    <glyph glyph-name="uniF6D7" unicode="&#xf6d7;" horiz-adv-x="1053" 
d="M164 1208q0 21 8 39.5t22 33t32.5 22.5t39.5 8t39.5 -8t33 -22.5t22.5 -33t8 -39.5t-8 -39.5t-22.5 -32.5t-33 -22t-39.5 -8t-39.5 8t-32.5 22t-22 32.5t-8 39.5zM684 1208q0 21 8 39.5t22 33t32.5 22.5t39.5 8t39.5 -8t33 -22.5t22.5 -33t8 -39.5t-8 -39.5t-22.5 -32.5
t-33 -22t-39.5 -8t-39.5 8t-32.5 22t-22 32.5t-8 39.5zM555 1403h178l-260 -348h-106z" />
    <glyph glyph-name="uniF6DC" unicode="&#xf6dc;" horiz-adv-x="510" 
d="M156 1399h198v-1399h-198v1399z" />
    <glyph glyph-name="uniF6DE" unicode="&#xf6de;" horiz-adv-x="1536" 
d="M0 524h1536v-123h-1536v123z" />
    <glyph glyph-name="uniF720" unicode="&#xf720;" horiz-adv-x="2007" 
d="M348 1257l729 -958v958h199v-1257h-199l-729 958v-958h-198v1257h198zM1405 993q0 59 22.5 111.5t61.5 91.5t91.5 61.5t111.5 22.5t111 -22.5t91 -61.5t61.5 -91.5t22.5 -111.5t-22.5 -111t-61.5 -91t-91 -61.5t-111 -22.5t-111.5 22.5t-91.5 61.5t-61.5 91t-22.5 111z
M1536 993q0 -32 12.5 -60.5t33.5 -49.5t49.5 -33t60.5 -12t60.5 12t49.5 33t33 49.5t12 60.5t-12 60.5t-33 49.5t-49.5 33.5t-60.5 12.5t-60.5 -12.5t-49.5 -33.5t-33.5 -49.5t-12.5 -60.5zM1405 561h573v-147h-573v147z" />
    <glyph glyph-name="uniF721" unicode="&#xf721;" horiz-adv-x="1034" 
d="M864 57q-45 -23 -86 -38.5t-81.5 -25.5t-82.5 -14t-88 -4q-62 0 -127 15t-118 48.5t-87 87.5t-34 132q0 24 2.5 45.5t9.5 42.5t19 43t30 47h-131v111h211l164 143h-375v111h475q48 40 78.5 82t30.5 96q0 34 -17 57.5t-43.5 37.5t-59 20t-62.5 6q-48 0 -118.5 -15.5
t-158.5 -58.5v180q21 11 55.5 23.5t77.5 23.5t91.5 18t97.5 7q60 0 122 -14.5t112.5 -47t83 -84t32.5 -124.5q0 -37 -10 -70t-23.5 -59.5t-29 -46.5t-25.5 -31h143v-111h-231l-168 -143h399v-111h-496q-12 -12 -24.5 -26.5t-22 -31t-16 -37t-6.5 -44.5q0 -33 15 -58
t40.5 -41.5t59 -25t71.5 -8.5q26 0 57.5 3.5t68.5 14.5t80.5 32t94.5 56v-213z" />
    <glyph glyph-name="uniF722" unicode="&#xf722;" horiz-adv-x="1034" 
d="M516 1257q26 0 65.5 -2.5t84.5 -12t92.5 -28t89.5 -49.5q28 -21 52.5 -48.5t42.5 -62t28 -77t10 -94.5q0 -57 -12.5 -102.5t-32.5 -80.5t-44 -60.5t-48 -43.5q-68 -51 -151.5 -68.5t-176.5 -17.5h-127v-123h348v-143h-348v-244h-192v244h-144v143h144v123h-144v143h144
v604h319zM389 653h94q26 0 56.5 1t61 6t59.5 16.5t53 32.5q40 35 53.5 76.5t13.5 86.5q0 25 -3.5 49.5t-13 47.5t-26.5 43.5t-43 36.5q-45 27 -90.5 34t-99.5 7h-115v-437z" />
    <glyph glyph-name="uniF724" unicode="&#xf724;" horiz-adv-x="1036" 
d="M66 416q17 -17 40.5 -37.5t49.5 -41t52 -39t48 -30.5q25 -15 53 -26.5t55 -19.5t50.5 -12.5t40.5 -4.5v364q-88 25 -161 52t-128 71q-50 40 -77.5 93t-27.5 128q0 36 10.5 72t30 69.5t46.5 62.5t59 52q28 21 61 37t66 26.5t64 16.5t57 8l-9 132h127l9 -132
q40 -3 84.5 -13t83.5 -27q35 -16 70.5 -35t70.5 -45v-222q-40 36 -82 63.5t-80 47.5q-42 20 -79 31t-68 14v-340q40 -12 71.5 -22t59 -19.5t53.5 -21.5t55 -29q33 -20 61 -45t49 -57t32.5 -70.5t11.5 -85.5q0 -90 -34.5 -159.5t-96.5 -119.5q-56 -45 -123 -67.5t-139 -28.5
l-9 -162h-127l9 160q-51 2 -106.5 14t-106.5 33q-26 11 -51 24.5t-48 27t-43 27t-34 24.5v262zM582 205q82 0 133 39q25 18 41 51.5t16 71.5q0 75 -57 116q-54 39 -133 58v-336zM455 1071q-16 1 -35 -0.5t-38 -6t-37 -12t-32 -18.5q-21 -17 -39 -42t-18 -60t11 -57.5
t36 -45.5q23 -21 64 -38t88 -31v311z" />
    <glyph glyph-name="uniF725" unicode="&#xf725;" horiz-adv-x="1024" 
d="M211 553h-115v180h174q16 51 37 105t46.5 106t55 100.5t62.5 88.5q62 75 135 110t154 35q51 0 92 -12l96 -189q-20 5 -51.5 11t-75.5 6q-62 0 -108 -17t-84 -55q-22 -21 -44 -51t-42 -67.5t-38 -80.5t-32 -90h160v-180h-219l-90 -344q21 2 48.5 3t61.5 1q45 0 88 -6
t85 -13.5t83 -13.5t82 -6q37 0 84.5 10t106.5 29v-199q-59 -15 -111 -23.5t-100 -8.5q-37 0 -82 6t-95.5 13t-106.5 13t-114 6q-54 0 -123 -8.5t-170 -23.5z" />
    <glyph glyph-name="uniF727" unicode="&#xf727;" horiz-adv-x="1202" 
d="M698 473v-473h-194v473h-430v111h405l-108 164h-297v110h223l-264 399h219l354 -526l338 526h225l-264 -399h223v-110h-297l-108 -164h405v-111h-430z" />
    <glyph glyph-name="uniF728" unicode="&#xf728;" horiz-adv-x="1034" 
d="M961 53q-59 -40 -129 -59t-138 -19q-105 0 -191.5 37.5t-148.5 100.5q-33 34 -60 75.5t-47.5 85.5t-34 88t-19.5 84h-193l37 111h149q-1 21 -1.5 39t-0.5 34.5t0.5 33.5t1.5 36h-186l37 111h164q10 46 30 95.5t49 96.5t65.5 89.5t78.5 74.5q74 57 153.5 84t167.5 27
q17 0 43.5 -1.5t59.5 -7t70 -15.5t75 -27l-65 -189q-48 25 -93 38.5t-98 13.5q-57 0 -108.5 -17t-93.5 -49q-20 -15 -39.5 -38t-37 -51t-31.5 -59.5t-21 -64.5h514l-37 -111h-498q-2 -19 -2 -35v-32.5t0.5 -34.5t1.5 -41h459l-37 -111h-410q8 -46 33.5 -100.5t67.5 -99.5
q78 -82 202 -82q47 0 86 10.5t71 26.5t58 34.5t46 34.5v-217z" />
    <glyph glyph-name="uniF729" unicode="&#xf729;" horiz-adv-x="786" 
d="M-49 -207q25 -8 43.5 -12t34.5 -4q44 0 74 18t50.5 54t33.5 90.5t24 126.5l88 575h-170l27 170h168l16 111q28 178 108 267t226 89q29 0 62 -7t71 -20l-29 -192q-43 20 -86 20q-41 0 -67.5 -12.5t-44.5 -39t-28.5 -66t-19.5 -93.5l-8 -57h183l-27 -178h-182l-97 -641
q-15 -105 -38.5 -182.5t-62.5 -128.5t-99 -76t-148 -25q-35 0 -69 6.5t-66 20.5z" />
    <glyph glyph-name="uniF72B" unicode="&#xf72b;" horiz-adv-x="2007" 
d="M348 1257l729 -958v958h199v-1257h-199l-729 958v-958h-198v1257h198zM1405 993q0 59 22.5 111.5t61.5 91.5t91.5 61.5t111.5 22.5t111 -22.5t91 -61.5t61.5 -91.5t22.5 -111.5t-22.5 -111t-61.5 -91t-91 -61.5t-111 -22.5t-111.5 22.5t-91.5 61.5t-61.5 91t-22.5 111z
M1536 993q0 -32 12.5 -60.5t33.5 -49.5t49.5 -33t60.5 -12t60.5 12t49.5 33t33 49.5t12 60.5t-12 60.5t-33 49.5t-49.5 33.5t-60.5 12.5t-60.5 -12.5t-49.5 -33.5t-33.5 -49.5t-12.5 -60.5zM1405 561h573v-147h-573v147z" />
    <glyph glyph-name="uniF72C" unicode="&#xf72c;" horiz-adv-x="1032" 
d="M864 57q-45 -23 -86 -38.5t-81.5 -25.5t-82.5 -14t-88 -4q-62 0 -127 15t-118 48.5t-87 87.5t-34 132q0 24 2.5 45.5t9.5 42.5t19 43t30 47h-131v111h211l164 143h-375v111h475q48 40 78.5 82t30.5 96q0 34 -17 57.5t-43.5 37.5t-59 20t-62.5 6q-48 0 -118.5 -15.5
t-158.5 -58.5v180q21 11 55.5 23.5t77.5 23.5t91.5 18t97.5 7q60 0 122 -14.5t112.5 -47t83 -84t32.5 -124.5q0 -37 -10 -70t-23.5 -59.5t-29 -46.5t-25.5 -31h143v-111h-231l-168 -143h399v-111h-496q-12 -12 -24.5 -26.5t-22 -31t-16 -37t-6.5 -44.5q0 -33 15 -58
t40.5 -41.5t59 -25t71.5 -8.5q26 0 57.5 3.5t68.5 14.5t80.5 32t94.5 56v-213z" />
    <glyph glyph-name="uniF72D" unicode="&#xf72d;" horiz-adv-x="1059" 
d="M555 1257q26 0 65.5 -2.5t84.5 -12t92.5 -28t89.5 -49.5q28 -21 52.5 -48.5t42.5 -62t28 -77t10 -94.5q0 -57 -12.5 -102.5t-32.5 -80.5t-44 -60.5t-48 -43.5q-68 -51 -151.5 -68.5t-176.5 -17.5h-127v-123h348v-143h-348v-244h-192v244h-144v143h144v123h-144v143h144
v604h319zM428 653h94q26 0 56.5 1t61 6t59.5 16.5t53 32.5q40 35 53.5 76.5t13.5 86.5q0 25 -3.5 49.5t-13 47.5t-26.5 43.5t-43 36.5q-45 27 -90.5 34t-99.5 7h-115v-437z" />
    <glyph glyph-name="uniF730" unicode="&#xf730;" horiz-adv-x="1034" 
d="M45 459q0 100 36 188t99.5 154t149.5 104.5t186 38.5t186 -38.5t149.5 -104.5t99.5 -154t36 -188t-36 -188t-99.5 -154t-149.5 -104t-186 -38t-186 38t-149.5 104t-99.5 154t-36 188zM246 461q0 -61 19.5 -114.5t55 -93.5t85 -63.5t110.5 -23.5t110.5 23.5t85 63.5
t55 93.5t19.5 114.5t-19.5 114.5t-55 93.5t-85 63.5t-110.5 23.5t-110.5 -23.5t-85 -63.5t-55 -93.5t-19.5 -114.5z" />
    <glyph glyph-name="uniF731" unicode="&#xf731;" horiz-adv-x="655" 
d="M471 0h-199v621l-145 -150l-107 84l365 389h86v-944z" />
    <glyph glyph-name="uniF732" unicode="&#xf732;" horiz-adv-x="872" 
d="M4 0q8 7 30 25.5t52.5 43.5t66.5 55l72 60t69 59t58 52q47 43 86.5 84t68 80t44.5 76t16 73q0 37 -14 62.5t-37 44.5q-29 25 -61.5 31t-69.5 6q-43 0 -88 -16t-80 -38q-18 -11 -40 -26.5t-44 -32.5t-41 -33t-31 -26v239q11 9 27 19.5t35 21.5t40 21.5t42 19.5
q46 20 95.5 31.5t92.5 11.5q36 0 69 -2t64.5 -8.5t62 -19t60.5 -33.5q54 -39 86.5 -100t32.5 -146q0 -42 -8.5 -79t-22 -69t-31.5 -59.5t-36 -50.5q-25 -31 -52.5 -60t-52 -53t-42.5 -40.5t-23 -20.5h331v-203h-827v0z" />
    <glyph glyph-name="uniF733" unicode="&#xf733;" horiz-adv-x="877" 
d="M33 -174q65 -40 135 -65t141 -25q56 0 108.5 14.5t90.5 48.5q32 29 51 67.5t19 94.5q0 35 -10 65.5t-27.5 55t-40.5 43.5t-49 31q-26 11 -56.5 19t-59.5 13t-53.5 8t-37.5 5l305 542h-490v181h797l-340 -600q26 -6 54.5 -17.5t56.5 -27.5t53 -36.5t45 -45.5
q74 -94 74 -234q0 -94 -35.5 -175t-97.5 -138q-63 -59 -148 -87t-190 -28q-77 0 -147 19.5t-148 62.5v209z" />
    <glyph glyph-name="uniF734" unicode="&#xf734;" horiz-adv-x="999" 
d="M610 578l-329 -412h329v412zM610 0h-598v84l705 860h86v-778h155v-166h-155v-465h-193v465z" />
    <glyph glyph-name="uniF735" unicode="&#xf735;" horiz-adv-x="864" 
d="M20 -201q72 -54 154.5 -79t157.5 -25q57 0 108.5 16.5t91.5 50.5q44 38 64 90t20 109q0 36 -9 66.5t-25 56t-36.5 45.5t-43.5 35t-52.5 25t-60 16t-60 9t-53.5 3q-29 0 -74 -3.5t-87 -14.5l84 727h557v-170h-404l-43 -359q39 -2 86 -6t96.5 -15.5t98 -32.5t90.5 -56
q68 -59 105.5 -142t37.5 -186q0 -100 -37.5 -187t-103.5 -149t-151.5 -91.5t-190.5 -29.5q-35 0 -76.5 6.5t-84 18.5t-83.5 29.5t-76 40.5v202z" />
    <glyph glyph-name="uniF736" unicode="&#xf736;" horiz-adv-x="1001" 
d="M332 756q133 65 231 65q87 0 160 -31.5t126 -87t82.5 -131.5t29.5 -165q0 -93 -33 -171.5t-92 -136t-140 -89.5t-178 -32q-98 0 -178 35t-137.5 100t-89 156.5t-31.5 204.5q0 275 143.5 516t429.5 432l109 -137q-84 -58 -153 -118t-123.5 -124.5t-93.5 -135.5t-62 -150z
M297 541q-5 -23 -7.5 -44.5t-2.5 -41.5q0 -66 18 -119.5t50.5 -92t78 -59t101.5 -20.5q50 0 91 16.5t70.5 47t45.5 73t16 94.5q0 53 -17 97t-47.5 75.5t-72.5 48.5t-91 17q-69 0 -126.5 -23t-106.5 -69z" />
    <glyph glyph-name="uniF737" unicode="&#xf737;" horiz-adv-x="930" 
d="M625 741h-596v183h893l-697 -1389l-172 78z" />
    </font>
</defs>
</svg>
